<svg xmlns="http://www.w3.org/2000/svg" xmlns:xlink="http://www.w3.org/1999/xlink" contentStyleType="text/css" data-diagram-type="DESCRIPTION" height="399px" preserveAspectRatio="none" style="width:988px;height:399px;background:#FFFFFF;" version="1.1" viewBox="0 0 988 399" width="988px" zoomAndPan="magnify"><?plantuml 1.2026.6?><defs/><g><g class="title" data-source-line="10"><text fill="#000000" font-family="Arial" font-size="22" font-weight="700" lengthAdjust="spacing" textLength="508.9863" x="238.7268" y="35.4209">Plan-to-Ticket Skill - Logical Architecture</text></g><!--cluster orchestration--><g class="cluster" data-qualified-name="orchestration" data-source-line="14" id="ent0002"><rect fill="#EAF2F8" height="103" rx="2.5" ry="2.5" style="stroke:#000000;stroke-width:1;" width="733.74" x="240.7" y="60.6094"/><text fill="#000000" font-family="Arial" font-size="14" font-weight="700" lengthAdjust="spacing" textLength="160.0498" x="527.5451" y="75.6045">Codex orchestration</text></g><!--cluster repository--><g class="cluster" data-qualified-name="repository" data-source-line="23" id="ent0008"><rect fill="#FDF2E9" height="254" rx="2.5" ry="2.5" style="stroke:#000000;stroke-width:1;" width="200.7" x="12" y="58.6094"/><text fill="#000000" font-family="Arial" font-size="14" font-weight="700" lengthAdjust="spacing" textLength="140.8955" x="41.9022" y="73.6045">Repository assets</text></g><!--entity matcher--><g class="entity" data-qualified-name="orchestration.matcher" data-source-line="15" id="ent0003"><rect fill="#D6EAF8" height="36.2969" rx="2.5" ry="2.5" style="stroke:#000000;stroke-width:1;" width="111.7588" x="256.7" y="95.4594"/><text fill="#000000" font-family="Arial" font-size="14" lengthAdjust="spacing" textLength="91.7588" x="266.7" y="118.4545">Skill matcher</text></g><!--entity planner--><g class="entity" data-qualified-name="orchestration.planner" data-source-line="16" id="ent0004"><rect fill="#D6EAF8" height="36.2969" rx="2.5" ry="2.5" style="stroke:#000000;stroke-width:1;" width="166.7402" x="428.46" y="103.4594"/><text fill="#000000" font-family="Arial" font-size="14" lengthAdjust="spacing" textLength="146.7402" x="438.46" y="126.4545">Planning instructions</text></g><!--entity persistence--><g class="entity" data-qualified-name="orchestration.persistence" data-source-line="17" id="ent0005"><rect fill="#D6EAF8" height="52.5938" rx="2.5" ry="2.5" style="stroke:#000000;stroke-width:1;" width="141.6729" x="655.2" y="95.3094"/><text fill="#000000" font-family="Arial" font-size="14" lengthAdjust="spacing" textLength="121.6729" x="665.2" y="118.3045">Issue persistence</text><text fill="#000000" font-family="Arial" font-size="14" lengthAdjust="spacing" textLength="70.1982" x="665.2" y="134.6014">(required)</text></g><!--entity output--><g class="entity" data-qualified-name="orchestration.output" data-source-line="18" id="ent0006"><rect fill="#D6EAF8" height="52.5938" rx="2.5" ry="2.5" style="stroke:#000000;stroke-width:1;" width="101.5664" x="856.87" y="95.3094"/><text fill="#000000" font-family="Arial" font-size="14" lengthAdjust="spacing" textLength="81.5664" x="866.87" y="118.3045">Text output</text><text fill="#000000" font-family="Arial" font-size="14" lengthAdjust="spacing" textLength="77.041" x="866.87" y="134.6014">(links only)</text></g><!--entity skill--><g class="entity" data-qualified-name="repository.skill" data-source-line="24" id="ent0009"><rect fill="#FAD7A0" height="39.2969" rx="2.5" ry="2.5" style="stroke:#000000;stroke-width:1;" width="94.7705" x="64.97" y="167.9594"/><polygon fill="#FAD7A0" points="142.7405,172.9594,142.7405,186.9594,154.7405,186.9594,154.7405,178.9594,148.7405,172.9594,142.7405,172.9594" style="stroke:#000000;stroke-width:1;stroke-linejoin:miter;stroke-miterlimit:10;"/><line style="stroke:#000000;stroke-width:1;" x1="148.7405" x2="148.7405" y1="172.9594" y2="178.9594"/><line style="stroke:#000000;stroke-width:1;" x1="154.7405" x2="148.7405" y1="178.9594" y2="178.9594"/><text fill="#000000" font-family="Arial" font-size="14" lengthAdjust="spacing" textLength="64.7705" x="74.97" y="193.9545">SKILL.md</text></g><!--entity metadata--><g class="entity" data-qualified-name="repository.metadata" data-source-line="25" id="ent0010"><rect fill="#FAD7A0" height="39.2969" rx="2.5" ry="2.5" style="stroke:#000000;stroke-width:1;" width="168.7012" x="28" y="93.9594"/><polygon fill="#FAD7A0" points="179.7012,98.9594,179.7012,112.9594,191.7012,112.9594,191.7012,104.9594,185.7012,98.9594,179.7012,98.9594" style="stroke:#000000;stroke-width:1;stroke-linejoin:miter;stroke-miterlimit:10;"/><line style="stroke:#000000;stroke-width:1;" x1="185.7012" x2="185.7012" y1="98.9594" y2="104.9594"/><line style="stroke:#000000;stroke-width:1;" x1="191.7012" x2="185.7012" y1="104.9594" y2="104.9594"/><text fill="#000000" font-family="Arial" font-size="14" lengthAdjust="spacing" textLength="138.7012" x="38" y="119.9545">agents/openai.yaml</text></g><!--entity docs--><g class="entity" data-qualified-name="repository.docs" data-source-line="26" id="ent0011"><path d="M79.85,242.4594 L120.85,242.4594 A3.75,3.75 0 0 1 123.35,244.9594 L130.35,263.4594 L144.85,263.4594 A2.5,2.5 0 0 1 147.35,265.9594 L147.35,294.2562 A2.5,2.5 0 0 1 144.85,296.7562 L79.85,296.7562 A2.5,2.5 0 0 1 77.35,294.2562 L77.35,244.9594 A2.5,2.5 0 0 1 79.85,242.4594" fill="#FAD7A0" style="stroke:#000000;stroke-width:1;"/><line style="stroke:#000000;stroke-width:1;" x1="77.35" x2="130.35" y1="263.4594" y2="263.4594"/><text fill="#000000" font-family="Arial" font-size="14" lengthAdjust="spacing" textLength="37.1602" x="87.35" y="283.4545">docs/</text></g><!--entity requestor--><g class="entity" data-qualified-name="requestor" data-source-line="12" id="ent0001"><ellipse cx="312.5792" cy="317.9594" fill="#FFFFFF" rx="8" ry="8" style="stroke:#000000;stroke-width:1;"/><path d="M312.5792,325.9594 L312.5792,352.9594 M299.5792,333.9594 L325.5792,333.9594 M312.5792,352.9594 L299.5792,367.9594 M312.5792,352.9594 L325.5792,367.9594" fill="none" style="stroke:#000000;stroke-width:1;"/><text fill="#000000" font-family="Arial" font-size="14" lengthAdjust="spacing" textLength="71.8184" x="276.67" y="382.9545">Requestor</text></g><!--entity issues--><g class="entity" data-qualified-name="issues" data-source-line="21" id="ent0007"><path d="M451.18,286.8094 C451.18,276.8094 511.8275,276.8094 511.8275,276.8094 C511.8275,276.8094 572.4749,276.8094 572.4749,286.8094 L572.4749,328.4031 C572.4749,338.4031 511.8275,338.4031 511.8275,338.4031 C511.8275,338.4031 451.18,338.4031 451.18,328.4031 L451.18,286.8094" fill="#F9E79F" style="stroke:#000000;stroke-width:1;"/><path d="M451.18,286.8094 C451.18,296.8094 511.8275,296.8094 511.8275,296.8094 C511.8275,296.8094 572.4749,296.8094 572.4749,286.8094" fill="none" style="stroke:#000000;stroke-width:1;"/><text fill="#000000" font-family="Arial" font-size="14" lengthAdjust="spacing" textLength="96.4619" x="461.18" y="313.8045">GitHub Issues</text><text fill="#000000" font-family="Arial" font-size="14" lengthAdjust="spacing" textLength="101.2949" x="461.18" y="330.1014">(authoritative)</text></g><!--link requestor to matcher--><g class="link" data-entity-1="ent0001" data-entity-2="ent0003" data-link-type="dependency" data-source-line="29" id="lnk12"><path d="M324.44,308.7094 C324.44,257.6294 324.44,175.0194 324.44,137.0494" fill="none" id="requestor-to-matcher" style="stroke:#000000;stroke-width:1;"/><polygon fill="#000000" points="324.44,132.0494,320.44,141.0494,324.44,137.0494,328.44,141.0494,324.44,132.0494" style="stroke:#000000;stroke-width:1;stroke-linejoin:miter;stroke-miterlimit:10;"/><text fill="#000000" font-family="Arial" font-size="13" lengthAdjust="spacing" textLength="49.7021" x="274.44" y="233.4463">request</text></g><!--link matcher to planner--><g class="link" data-entity-1="ent0003" data-entity-2="ent0004" data-link-type="dependency" data-source-line="30" id="lnk13"><path d="M368.88,117.6094 C387.29,117.6094 403.16,117.6094 423.14,117.6094" fill="none" id="matcher-to-planner" style="stroke:#000000;stroke-width:1;"/><polygon fill="#000000" points="428.14,117.6094,419.14,113.6094,423.14,117.6094,419.14,121.6094,428.14,117.6094" style="stroke:#000000;stroke-width:1;stroke-linejoin:miter;stroke-miterlimit:10;"/><text fill="#000000" font-family="Arial" font-size="13" lengthAdjust="spacing" textLength="38.6255" x="359.51" y="130.6763">select</text></g><!--link planner to persistence--><g class="link" data-entity-1="ent0004" data-entity-2="ent0005" data-link-type="dependency" data-source-line="31" id="lnk14"><path d="M595.57,121.6094 C615.16,121.6094 630.86,121.6094 649.85,121.6094" fill="none" id="planner-to-persistence" style="stroke:#000000;stroke-width:1;"/><polygon fill="#000000" points="654.85,121.6094,645.85,117.6094,649.85,121.6094,645.85,125.6094,654.85,121.6094" style="stroke:#000000;stroke-width:1;stroke-linejoin:miter;stroke-miterlimit:10;"/><text fill="#000000" font-family="Arial" font-size="13" lengthAdjust="spacing" textLength="43.8496" x="581.21" y="134.6763">persist</text></g><!--link persistence to issues--><g class="link" data-entity-1="ent0005" data-entity-2="ent0007" data-link-type="dependency" data-source-line="32" id="lnk15"><path d="M654.77,145.8694 C599.57,145.8694 532.44,145.8694 532.44,145.8694 C532.44,145.8694 532.44,224.4294 532.44,271.4294" fill="none" id="persistence-to-issues" style="stroke:#000000;stroke-width:1;"/><polygon fill="#000000" points="532.44,276.4294,536.44,267.4294,532.44,271.4294,528.44,267.4294,532.44,276.4294" style="stroke:#000000;stroke-width:1;stroke-linejoin:miter;stroke-miterlimit:10;"/><text fill="#000000" font-family="Arial" font-size="13" lengthAdjust="spacing" textLength="37.6353" x="533.44" y="163.0463">CRUD</text></g><!--link issues to persistence--><g class="link" data-entity-1="ent0007" data-entity-2="ent0005" data-link-type="dependency" data-source-line="33" id="lnk16"><path d="M491.44,276.4194 C491.44,228.8994 491.44,143.8294 491.44,143.8294 C491.44,143.8294 580.97,143.8294 650.01,143.8294" fill="none" id="issues-to-persistence" style="stroke:#000000;stroke-width:1;"/><polygon fill="#000000" points="655.01,143.8294,646.01,139.8294,650.01,143.8294,646.01,147.8294,655.01,143.8294" style="stroke:#000000;stroke-width:1;stroke-linejoin:miter;stroke-miterlimit:10;"/><text fill="#000000" font-family="Arial" font-size="13" lengthAdjust="spacing" textLength="65.8252" x="440.93" y="156.8963">IDs / URLs</text></g><!--link persistence to output--><g class="link" data-entity-1="ent0005" data-entity-2="ent0006" data-link-type="dependency" data-source-line="34" id="lnk17"><path d="M797.3,121.6094 C817.07,121.6094 833.15,121.6094 851.52,121.6094" fill="none" id="persistence-to-output" style="stroke:#000000;stroke-width:1;"/><polygon fill="#000000" points="856.52,121.6094,847.52,117.6094,851.52,121.6094,847.52,125.6094,856.52,121.6094" style="stroke:#000000;stroke-width:1;stroke-linejoin:miter;stroke-miterlimit:10;"/><text fill="#000000" font-family="Arial" font-size="13" lengthAdjust="spacing" textLength="29.7642" x="796.91" y="134.6763">links</text></g><!--link output to requestor--><g class="link" data-entity-1="ent0006" data-entity-2="ent0001" data-link-type="dependency" data-source-line="35" id="lnk18"><path d="M907.44,148.2894 C907.44,210.9694 907.44,362.3294 907.44,362.3294 C907.44,362.3294 483.05,362.3294 353.9,362.3294" fill="none" id="output-to-requestor" style="stroke:#000000;stroke-width:1;"/><polygon fill="#000000" points="348.9,362.3294,357.9,366.3294,353.9,362.3294,357.9,358.3294,348.9,362.3294" style="stroke:#000000;stroke-width:1;stroke-linejoin:miter;stroke-miterlimit:10;"/><text fill="#000000" font-family="Arial" font-size="13" lengthAdjust="spacing" textLength="92.9106" x="642.19" y="375.3963">Plan + Tickets</text></g><!--link skill to matcher--><g class="link" data-entity-1="ent0009" data-entity-2="ent0003" data-link-type="dependency" data-source-line="37" id="lnk19"><path d="M159.84,181.0594 C205.11,181.0594 266.44,181.0594 266.44,181.0594 C266.44,181.0594 266.44,157.0094 266.44,137.0394" fill="none" id="skill-to-matcher" style="stroke:#000000;stroke-width:1;"/><polygon fill="#000000" points="266.44,132.0394,262.44,141.0394,266.44,137.0394,270.44,141.0394,266.44,132.0394" style="stroke:#000000;stroke-width:1;stroke-linejoin:miter;stroke-miterlimit:10;"/><text fill="#000000" font-family="Arial" font-size="13" lengthAdjust="spacing" textLength="43.9004" x="193.65" y="194.1263">trigger</text></g><!--link skill to planner--><g class="link" data-entity-1="ent0009" data-entity-2="ent0004" data-link-type="dependency" data-source-line="38" id="lnk20"><path d="M159.91,194.1594 C250.63,194.1594 439.44,194.1594 439.44,194.1594 C439.44,194.1594 439.44,166.4094 439.44,144.9194" fill="none" id="skill-to-planner" style="stroke:#000000;stroke-width:1;"/><polygon fill="#000000" points="439.44,139.9194,435.44,148.9194,439.44,144.9194,443.44,148.9194,439.44,139.9194" style="stroke:#000000;stroke-width:1;stroke-linejoin:miter;stroke-miterlimit:10;"/><text fill="#000000" font-family="Arial" font-size="13" lengthAdjust="spacing" textLength="31.9668" x="294.8" y="207.2263">rules</text></g><!--link skill to persistence--><g class="link" data-entity-1="ent0009" data-entity-2="ent0005" data-link-type="dependency" data-source-line="39" id="lnk21"><path d="M112.44,167.6494 C112.44,155.2994 112.44,141.7994 112.44,141.7994 C112.44,141.7994 488.06,141.7994 649.75,141.7994" fill="none" id="skill-to-persistence" style="stroke:#000000;stroke-width:1;stroke-dasharray:7,7;"/><polygon fill="#000000" points="654.75,141.7994,645.75,137.7994,649.75,141.7994,645.75,145.7994,654.75,141.7994" style="stroke:#000000;stroke-width:1;stroke-linejoin:miter;stroke-miterlimit:10;"/></g><!--link metadata to matcher--><g class="link" data-entity-1="ent0010" data-entity-2="ent0003" data-link-type="dependency" data-source-line="40" id="lnk22"><path d="M196.98,113.6094 C217.04,113.6094 232.96,113.6094 251.4,113.6094" fill="none" id="metadata-to-matcher" style="stroke:#000000;stroke-width:1;"/><polygon fill="#000000" points="256.4,113.6094,247.4,109.6094,251.4,113.6094,247.4,117.6094,256.4,113.6094" style="stroke:#000000;stroke-width:1;stroke-linejoin:miter;stroke-miterlimit:10;"/></g><!--link docs to requestor--><g class="link" data-entity-1="ent0011" data-entity-2="ent0001" data-link-type="dependency" data-source-line="41" id="lnk23"><path d="M147.73,286.7894 C202.21,286.7894 300.44,286.7894 300.44,286.7894 C300.44,286.7894 300.44,291.8294 300.44,303.7494" fill="none" id="docs-to-requestor" style="stroke:#000000;stroke-width:1;stroke-dasharray:7,7;"/><polygon fill="#000000" points="300.44,308.7494,304.44,299.7494,300.44,303.7494,296.44,299.7494,300.44,308.7494" style="stroke:#000000;stroke-width:1;stroke-linejoin:miter;stroke-miterlimit:10;"/><text fill="#000000" font-family="Arial" font-size="13" lengthAdjust="spacing" textLength="62.645" x="172.06" y="299.8563">reference</text></g><?plantuml-src TLJ1Rjim3BthAxZaic58ClImDZuC29fuAnOCGzhUTc5jsX6YI9v4Rms6_ViesKaSTBrPVEz9v7kIt_2MzWIDGMsLeOg17NXTRnbAxQbWxQnIOQTjWnxtq62nmvhk-M088ewsDZGW56xVE4kMNwU4BPRkjxOrL6Z2437Q4XyQ0kTvwmP0IHMsXdDd-HjAlmklqIZ5ckMCxmRjXDtaGHSxOhZVQMDW0cjNwmADS8kjPkcZzQGK5kmyZ3RqiwKWdoF085tsAwNw0M5qwqfwbaQAhI0Uen69Ur61yMgHN-Kty4V1UNGOTJtiaONR7T5_mtZvKIGtb_GuWOs6Q2ixjydra6HDH5wJtONGIdRaWmvCjg0VzcqSHO8httNoC_R_BHxecS6rtBGiOl5_9nDQS-Za7N1I_bMgHCOd3EBFPyrVsYT8FGJHOYkHUStYoo_gv3fXCCxdg-jvFl1sGuqBMlm-22qGXpw5KtMSB_EhrJpPYfvr9R69gr_lrklflapia2mUvulbzUB31KsEi1nchY6BUdh0lUaI8CRO_a1JELEAkQFI5M6MIF7hH91vJpS39fDFfn2puurHnqf4Zrbb4CZ8VLF7GW87IMJ7bHfM8wjtB8FRpUDIzQkNyhjbW1ayRjRXnGvzP1caB5M_ZCXvb2mz6NWFtOi9wO77DtCn8ijle2O_mCu3-jPGw97fzA8zTV9vi9rAlaRci0jF5Vca-GS0?></g></svg>