<svg xmlns="http://www.w3.org/2000/svg" xmlns:xlink="http://www.w3.org/1999/xlink" contentStyleType="text/css" data-diagram-type="DESCRIPTION" height="685px" preserveAspectRatio="none" style="width:887px;height:685px;background:#FFFFFF;" version="1.1" viewBox="0 0 887 685" width="887px" zoomAndPan="magnify"><?plantuml 1.2026.6?><defs/><g><g class="title" data-source-line="6"><text fill="#000000" font-family="Arial" font-size="22" font-weight="700" lengthAdjust="spacing" textLength="612.0039" x="136.8324" y="35.4209">repo-current-state &#8212; Verified Recovery Snapshot</text></g><!--entity maintainer--><g class="entity" data-qualified-name="maintainer" data-source-line="8" id="ent0001"><ellipse cx="135.0589" cy="65.6094" fill="#FFFFFF" rx="8" ry="8" style="stroke:#000000;stroke-width:1;"/><path d="M135.0589,73.6094 L135.0589,100.6094 M122.0589,81.6094 L148.0589,81.6094 M135.0589,100.6094 L122.0589,115.6094 M135.0589,100.6094 L148.0589,115.6094" fill="none" style="stroke:#000000;stroke-width:1;"/><text fill="#000000" font-family="Arial" font-size="14" lengthAdjust="spacing" textLength="129.6777" x="70.22" y="130.6045">Maintainer / Agent</text></g><!--entity delivery--><g class="entity" data-qualified-name="delivery" data-source-line="9" id="ent0002"><rect fill="#FFFFFF" height="68.8906" rx="2.5" ry="2.5" style="stroke:#000000;stroke-width:1;" width="221.6738" x="453.22" y="210.8994"/><text fill="#000000" font-family="Arial" font-size="14" lengthAdjust="spacing" textLength="109.6895" x="463.22" y="233.8945">Merged Plan PR</text><text fill="#000000" font-family="Arial" font-size="14" lengthAdjust="spacing" textLength="158.9492" x="463.22" y="250.1914">Source branch deleted</text><text fill="#000000" font-family="Arial" font-size="14" lengthAdjust="spacing" textLength="201.6738" x="463.22" y="266.4882">Default branch synchronized</text></g><!--entity evidence--><g class="entity" data-qualified-name="evidence" data-source-line="10" id="ent0003"><rect fill="#FFFFFF" height="52.5938" rx="2.5" ry="2.5" style="stroke:#000000;stroke-width:1;" width="275.8828" x="324.12" y="356.7894"/><text fill="#000000" font-family="Arial" font-size="14" lengthAdjust="spacing" textLength="142.9941" x="334.12" y="379.7845">Repository evidence</text><text fill="#000000" font-family="Arial" font-size="14" lengthAdjust="spacing" textLength="255.8828" x="334.12" y="396.0814">Git state / files / config / issue status</text></g><!--entity skill--><g class="entity" data-qualified-name="skill" data-source-line="11" id="ent0004"><rect fill="#FFFFFF" height="52.5938" rx="2.5" ry="2.5" style="stroke:#000000;stroke-width:1;" width="148.4473" x="224.84" y="219.0494"/><text fill="#000000" font-family="Arial" font-size="14" lengthAdjust="spacing" textLength="128.4473" x="234.84" y="242.0445">repo-current-state</text><text fill="#000000" font-family="Arial" font-size="14" lengthAdjust="spacing" textLength="118.624" x="234.84" y="258.3414">Verification rules</text></g><!--entity snapshot--><g class="entity" data-qualified-name="snapshot" data-source-line="12" id="ent0005"><rect fill="#FFFFFF" height="52.5938" rx="2.5" ry="2.5" style="stroke:#000000;stroke-width:1;" width="246.1191" x="12" y="487.7894"/><text fill="#000000" font-family="Arial" font-size="14" lengthAdjust="spacing" textLength="204.1211" x="22" y="510.7845">docs/Repo_Current_State.md</text><text fill="#000000" font-family="Arial" font-size="14" lengthAdjust="spacing" textLength="226.1191" x="22" y="527.0814">Compact verified recovery point</text></g><!--entity docs--><g class="entity" data-qualified-name="docs" data-source-line="13" id="ent0006"><rect fill="#FFFFFF" height="52.5938" rx="2.5" ry="2.5" style="stroke:#000000;stroke-width:1;" width="199.2041" x="35.46" y="618.7894"/><text fill="#000000" font-family="Arial" font-size="14" lengthAdjust="spacing" textLength="179.2041" x="45.46" y="641.7845">Canonical documentation</text><text fill="#000000" font-family="Arial" font-size="14" lengthAdjust="spacing" textLength="117.6465" x="45.46" y="658.0814">README + docs/</text></g><!--entity issues--><g class="entity" data-qualified-name="issues" data-source-line="14" id="ent0007"><path d="M709.45,224.5494 C709.45,214.5494 786.0594,214.5494 786.0594,214.5494 C786.0594,214.5494 862.6688,214.5494 862.6688,224.5494 L862.6688,266.1431 C862.6688,276.1431 786.0594,276.1431 786.0594,276.1431 C786.0594,276.1431 709.45,276.1431 709.45,266.1431 L709.45,224.5494" fill="#FFFFFF" style="stroke:#000000;stroke-width:1;"/><path d="M709.45,224.5494 C709.45,234.5494 786.0594,234.5494 786.0594,234.5494 C786.0594,234.5494 862.6688,234.5494 862.6688,224.5494" fill="none" style="stroke:#000000;stroke-width:1;"/><text fill="#000000" font-family="Arial" font-size="14" lengthAdjust="spacing" textLength="96.4619" x="719.45" y="251.5445">GitHub Issues</text><text fill="#000000" font-family="Arial" font-size="14" lengthAdjust="spacing" textLength="133.2188" x="719.45" y="267.8414">Plan / Ticket status</text></g><g class="entity" data-qualified-name="GMN15" data-source-line="25" id="ent0016"><path d="M292.72,486.3894 L292.72,510.0894 L258.59,514.0894 L292.72,518.0894 L292.72,541.7878 A0,0 0 0 0 292.72,541.7878 L527.4012,541.7878 A0,0 0 0 0 527.4012,541.7878 L527.4012,496.3894 L517.4012,486.3894 L292.72,486.3894 A0,0 0 0 0 292.72,486.3894" fill="#FFFFFF" style="stroke:#000000;stroke-width:1;"/><path d="M517.4012,486.3894 L517.4012,496.3894 L527.4012,496.3894 L517.4012,486.3894" fill="#FFFFFF" style="stroke:#000000;stroke-width:1;"/><text fill="#000000" font-family="Arial" font-size="13" lengthAdjust="spacing" textLength="93.8501" x="298.72" y="503.4563">Not a backlog.</text><text fill="#000000" font-family="Arial" font-size="13" lengthAdjust="spacing" textLength="158.2661" x="298.72" y="518.5891">Not a session transcript.</text><text fill="#000000" font-family="Arial" font-size="13" lengthAdjust="spacing" textLength="213.6812" x="298.72" y="533.7219">Not a duplicate of GitHub Issues.</text></g><!--link maintainer to skill--><g class="link" data-entity-1="ent0001" data-entity-2="ent0004" data-link-type="dependency" data-source-line="16" id="lnk8"><path d="M177.29,134.3894 C206.71,160.9594 241.4388,192.3187 267.1788,215.5587" fill="none" id="maintainer-to-skill" style="stroke:#000000;stroke-width:1;"/><polygon fill="#000000" points="270.89,218.9094,266.8905,209.9092,267.1788,215.5587,261.5293,215.847,270.89,218.9094" style="stroke:#000000;stroke-width:1;stroke-linejoin:miter;stroke-miterlimit:10;"/><text fill="#000000" font-family="Arial" font-size="13" lengthAdjust="spacing" textLength="220.397" x="227.88" y="176.9663">invoke after verified state change</text></g><!--link delivery to evidence--><g class="link" data-entity-1="ent0002" data-entity-2="ent0003" data-link-type="dependency" data-source-line="17" id="lnk9"><path d="M551.27,280.1494 C544.69,295.2294 535.78,312.7194 525.06,326.7894 C516.86,337.5594 510.0952,344.5442 499.9752,353.2242" fill="none" id="delivery-to-evidence" style="stroke:#000000;stroke-width:1;"/><polygon fill="#000000" points="496.18,356.4794,505.6156,353.6562,499.9752,353.2242,500.4072,347.5839,496.18,356.4794" style="stroke:#000000;stroke-width:1;stroke-linejoin:miter;stroke-miterlimit:10;"/><text fill="#000000" font-family="Arial" font-size="13" lengthAdjust="spacing" textLength="111.1729" x="536.89" y="322.8563">post-merge truth</text></g><!--link issues to evidence--><g class="link" data-entity-1="ent0007" data-entity-2="ent0003" data-link-type="dependency" data-source-line="18" id="lnk10"><path d="M744.44,276.5094 C719.95,293.1594 687.83,313.1694 657.06,326.7894 C630.76,338.4394 606.1748,346.906 578.3548,354.916" fill="none" id="issues-to-evidence" style="stroke:#000000;stroke-width:1;"/><polygon fill="#000000" points="573.55,356.2994,583.3054,357.6531,578.3548,354.916,581.0919,349.9654,573.55,356.2994" style="stroke:#000000;stroke-width:1;stroke-linejoin:miter;stroke-miterlimit:10;"/><text fill="#000000" font-family="Arial" font-size="13" lengthAdjust="spacing" textLength="129.3335" x="691.53" y="322.8563">durable work status</text></g><!--link skill to evidence--><g class="link" data-entity-1="ent0004" data-entity-2="ent0003" data-link-type="dependency" data-source-line="19" id="lnk11"><path d="M311.82,272.0594 C321.34,289.2294 335.68,311.4094 353.06,326.7894 C366.17,338.3994 377.7043,345.9712 393.3443,354.0212" fill="none" id="skill-to-evidence" style="stroke:#000000;stroke-width:1;"/><polygon fill="#000000" points="397.79,356.3094,391.6184,348.634,393.3443,354.0212,387.9572,355.7471,397.79,356.3094" style="stroke:#000000;stroke-width:1;stroke-linejoin:miter;stroke-miterlimit:10;"/><text fill="#000000" font-family="Arial" font-size="13" lengthAdjust="spacing" textLength="162.3223" x="354.06" y="322.8563">verify only relevant facts</text></g><!--link evidence to snapshot--><g class="link" data-entity-1="ent0003" data-entity-2="ent0005" data-link-type="dependency" data-source-line="20" id="lnk12"><path d="M396.67,409.8894 C339.64,432.3794 261.9811,463.0142 204.9811,485.5042" fill="none" id="evidence-to-snapshot" style="stroke:#000000;stroke-width:1;"/><polygon fill="#000000" points="200.33,487.3394,210.17,487.757,204.9811,485.5042,207.2338,480.3153,200.33,487.3394" style="stroke:#000000;stroke-width:1;stroke-linejoin:miter;stroke-miterlimit:10;"/><text fill="#000000" font-family="Arial" font-size="13" lengthAdjust="spacing" textLength="238.5386" x="319.14" y="452.4563">replace stale facts with current facts</text></g><!--link snapshot to docs--><g class="link" data-entity-1="ent0005" data-entity-2="ent0006" data-link-type="dependency" data-source-line="21" id="lnk13"><path d="M135.06,540.8794 C135.06,563.3794 135.06,590.8494 135.06,613.3294" fill="none" id="snapshot-to-docs" style="stroke:#000000;stroke-width:1;"/><polygon fill="#000000" points="135.06,618.3294,139.06,609.3294,135.06,613.3294,131.06,609.3294,135.06,618.3294" style="stroke:#000000;stroke-width:1;stroke-linejoin:miter;stroke-miterlimit:10;"/><text fill="#000000" font-family="Arial" font-size="13" lengthAdjust="spacing" textLength="158.3296" x="136.06" y="584.8563">point to detailed owners</text></g><!--link maintainer to snapshot--><g class="link" data-entity-1="ent0001" data-entity-2="ent0005" data-link-type="dependency" data-source-line="22" id="lnk14"><path d="M128.83,134.1494 C122.05,179.7894 112.6,258.8094 116.06,326.7894 C118.99,384.4294 126.3494,446.7406 130.9794,482.5806" fill="none" id="maintainer-to-snapshot" style="stroke:#000000;stroke-width:1;"/><polygon fill="#000000" points="131.62,487.5394,134.4339,478.1011,130.9794,482.5806,126.4999,479.126,131.62,487.5394" style="stroke:#000000;stroke-width:1;stroke-linejoin:miter;stroke-miterlimit:10;"/><text fill="#000000" font-family="Arial" font-size="13" lengthAdjust="spacing" textLength="212.3291" x="117.06" y="322.8563">resume from exact current state</text></g><?plantuml-src PPDDRjim48NtFCKqsyBnlei2GPB-B184Jj6LWM1CZYJ2r50WHtRTLG_H4_Oa7LAMgoOBsxB8z-RDD-GxwQWd609wDX87a0YxA19xS3wH5H_PvBtd0HFsa3jqyUYvXGP3fiMAemR789yYooEguqto68mHBu4WqH1NTao9M5PPK0Z-_FeDtodvnfE33Tbue7I2PyOXTr6CGIinmTM3vXBzK88rtBIglmBCq5zUcn8IkTKgLm-KMdLx2iZmjDdoSnoJ9TWbPDjfma12RijtKzJvVJxfTuhiVvAhvhhHbpHBwursaBr6EW4Tl2EsjENFNc3gPWsD3vJrrqPkVAiFFkUHwlAOg-siMzg-1RFbYOh5WXxIgBPLhgX3M6fTj7bTShtSJWOlpyNWkjSMRsC_A44up8JJJ7Y8_immpwmNdhV82i9Y07KVUpMjCRQykR-vUxY7zr2hJfZqoJWKt65MgSBuCkxWQsaxRxaEOGtVlDsJB35KBjcOVoE4rUhZr1vy0C-7k2V0HdJX4d-YR3kDIMQUJzNDL5Mg4v9LNyu0I1gbCrEfrzlSc72dpHvZsf-3cQdwgusr-WaYXvFo2tH05ZttLhAvxAhHpo1LelCCQElOjKBT2qSl7PndV9PV54LUEDRqogDSFqUA9MZJyQXmyXjGosfPPmHDqjjAFygyvpALbp4SbLhoRISGcty3VrGrmWxjFiJs-lmtKyxbn8dUYcoJ7sHUSUCGodcaOlBVcAyDiODIvIy0?></g></svg>