<svg xmlns="http://www.w3.org/2000/svg" xmlns:xlink="http://www.w3.org/1999/xlink" contentStyleType="text/css" data-diagram-type="STATE" height="2175px" preserveAspectRatio="none" style="width:863px;height:2175px;background:#FFFFFF;" version="1.1" viewBox="0 0 863 2175" width="863px" zoomAndPan="magnify"><?plantuml 1.2026.6?><defs/><g><g class="title" data-source-line="6"><text fill="#000000" font-family="Arial" font-size="22" font-weight="700" lengthAdjust="spacing" textLength="831.3809" x="15" y="35.4209">Codex Development Workflow &#8212; Explicitly Authorized Full Delivery</text></g><g class="entity" data-qualified-name="Requirement" data-source-line="8" id="ent0001"><rect fill="#FFFFFF" height="50" rx="12.5" ry="12.5" style="stroke:#000000;stroke-width:1;" width="110.9727" x="388.3103" y="138.6094"/><line style="stroke:#000000;stroke-width:1;" x1="388.3103" x2="499.2829" y1="164.9062" y2="164.9062"/><text fill="#000000" font-family="Arial" font-size="14" lengthAdjust="spacing" textLength="90.9727" x="398.3103" y="156.6045">Requirement</text></g><g class="entity" data-qualified-name="Understand" data-source-line="9" id="ent0002"><rect fill="#FFFFFF" height="52.5938" rx="12.5" ry="12.5" style="stroke:#000000;stroke-width:1;" width="259.1895" x="314.2103" y="249.6094"/><line style="stroke:#000000;stroke-width:1;" x1="314.2103" x2="573.3997" y1="292.2031" y2="292.2031"/><text fill="#000000" font-family="Arial" font-size="14" lengthAdjust="spacing" textLength="97.9932" x="324.2103" y="267.6045">plan-workflow</text><text fill="#000000" font-family="Arial" font-size="14" lengthAdjust="spacing" textLength="239.1895" x="324.2103" y="283.9014">Understand &#183; Design &#183; Decompose</text></g><g class="entity" data-qualified-name="Plan" data-source-line="10" id="ent0003"><rect fill="#FFFFFF" height="50" rx="12.5" ry="12.5" style="stroke:#000000;stroke-width:1;" width="50" x="418.8003" y="363.2094"/><line style="stroke:#000000;stroke-width:1;" x1="418.8003" x2="468.8003" y1="389.5062" y2="389.5062"/><text fill="#000000" font-family="Arial" font-size="14" lengthAdjust="spacing" textLength="29.7842" x="428.9082" y="381.2045">Plan</text></g><g class="entity" data-qualified-name="Issues" data-source-line="11" id="ent0004"><rect fill="#FFFFFF" height="52.5938" rx="12.5" ry="12.5" style="stroke:#000000;stroke-width:1;" width="233.3701" x="327.1203" y="490.2094"/><line style="stroke:#000000;stroke-width:1;" x1="327.1203" x2="560.4904" y1="532.8031" y2="532.8031"/><text fill="#000000" font-family="Arial" font-size="14" lengthAdjust="spacing" textLength="212.1875" x="337.1203" y="508.2045">Persist Plan + Tickets + Slices</text><text fill="#000000" font-family="Arial" font-size="14" lengthAdjust="spacing" textLength="213.3701" x="337.1203" y="524.5014">GitHub Issues (when required)</text></g><g class="entity" data-qualified-name="Branch" data-source-line="12" id="ent0005"><rect fill="#FFFFFF" height="50" rx="12.5" ry="12.5" style="stroke:#000000;stroke-width:1;" width="154.1758" x="366.7103" y="603.7994"/><line style="stroke:#000000;stroke-width:1;" x1="366.7103" x2="520.886" y1="630.0962" y2="630.0962"/><text fill="#000000" font-family="Arial" font-size="14" lengthAdjust="spacing" textLength="134.1758" x="376.7103" y="621.7945">Create Plan branch</text></g><g class="entity" data-qualified-name="Implement" data-source-line="13" id="ent0006"><rect fill="#FFFFFF" height="52.5938" rx="12.5" ry="12.5" style="stroke:#000000;stroke-width:1;" width="204.9053" x="341.3503" y="714.7994"/><line style="stroke:#000000;stroke-width:1;" x1="341.3503" x2="546.2555" y1="757.3931" y2="757.3931"/><text fill="#000000" font-family="Arial" font-size="14" lengthAdjust="spacing" textLength="123.5049" x="351.3503" y="732.7945">develop-workflow</text><text fill="#000000" font-family="Arial" font-size="14" lengthAdjust="spacing" textLength="184.9053" x="351.3503" y="749.0914">Implement all Plan Tickets</text></g><g class="entity" data-qualified-name="Test" data-source-line="14" id="ent0007"><rect fill="#FFFFFF" height="52.5938" rx="12.5" ry="12.5" style="stroke:#000000;stroke-width:1;" width="142.4043" x="372.6003" y="844.3994"/><line style="stroke:#000000;stroke-width:1;" x1="372.6003" x2="515.0046" y1="886.9931" y2="886.9931"/><text fill="#000000" font-family="Arial" font-size="14" lengthAdjust="spacing" textLength="107.5225" x="382.6003" y="862.3945">verify-workflow</text><text fill="#000000" font-family="Arial" font-size="14" lengthAdjust="spacing" textLength="122.4043" x="382.6003" y="878.6914">Test Quality Gate</text></g><g class="entity" data-qualified-name="Docs" data-source-line="15" id="ent0008"><rect fill="#FFFFFF" height="50" rx="12.5" ry="12.5" style="stroke:#000000;stroke-width:1;" width="225.9941" x="330.8003" y="973.9894"/><line style="stroke:#000000;stroke-width:1;" x1="330.8003" x2="556.7944" y1="1000.2862" y2="1000.2862"/><text fill="#000000" font-family="Arial" font-size="14" lengthAdjust="spacing" textLength="205.9941" x="340.8003" y="991.9845">Documentation impact check</text></g><g class="entity" data-qualified-name="State" data-source-line="16" id="ent0009"><rect fill="#FFFFFF" height="52.5938" rx="12.5" ry="12.5" style="stroke:#000000;stroke-width:1;" width="223.4375" x="332.0803" y="1084.9894"/><line style="stroke:#000000;stroke-width:1;" x1="332.0803" x2="555.5178" y1="1127.5831" y2="1127.5831"/><text fill="#000000" font-family="Arial" font-size="14" lengthAdjust="spacing" textLength="140.1641" x="342.0803" y="1102.9845">Update State / Docs</text><text fill="#000000" font-family="Arial" font-size="14" lengthAdjust="spacing" textLength="203.4375" x="342.0803" y="1119.2814">if represented state changed</text></g><g class="entity" data-qualified-name="Redact" data-source-line="17" id="ent0010"><rect fill="#FFFFFF" height="52.5938" rx="12.5" ry="12.5" style="stroke:#000000;stroke-width:1;" width="134.0576" x="376.7703" y="1198.5794"/><line style="stroke:#000000;stroke-width:1;" x1="376.7703" x2="510.8279" y1="1241.1731" y2="1241.1731"/><text fill="#000000" font-family="Arial" font-size="14" lengthAdjust="spacing" textLength="107.2148" x="386.7703" y="1216.5745">Redaction scan</text><text fill="#000000" font-family="Arial" font-size="14" lengthAdjust="spacing" textLength="114.0576" x="386.7703" y="1232.8714">when applicable</text></g><g class="entity" data-qualified-name="Publish" data-source-line="18" id="ent0011"><rect fill="#FFFFFF" height="50" rx="12.5" ry="12.5" style="stroke:#000000;stroke-width:1;" width="182.2236" x="352.6903" y="1312.1794"/><line style="stroke:#000000;stroke-width:1;" x1="352.6903" x2="534.9139" y1="1338.4762" y2="1338.4762"/><text fill="#000000" font-family="Arial" font-size="14" lengthAdjust="spacing" textLength="162.2236" x="362.6903" y="1330.1745">Commit + Push branch</text></g><g class="entity" data-qualified-name="PR" data-source-line="19" id="ent0012"><rect fill="#FFFFFF" height="50" rx="12.5" ry="12.5" style="stroke:#000000;stroke-width:1;" width="188" x="349.8003" y="1423.1794"/><line style="stroke:#000000;stroke-width:1;" x1="349.8003" x2="537.8003" y1="1449.4762" y2="1449.4762"/><text fill="#000000" font-family="Arial" font-size="14" lengthAdjust="spacing" textLength="168" x="359.8003" y="1441.1745">Create / Update Plan PR</text></g><g class="entity" data-qualified-name="Merge" data-source-line="20" id="ent0013"><rect fill="#FFFFFF" height="52.5938" rx="12.5" ry="12.5" style="stroke:#000000;stroke-width:1;" width="159.002" x="364.3003" y="1550.1794"/><line style="stroke:#000000;stroke-width:1;" x1="364.3003" x2="523.3022" y1="1592.7731" y2="1592.7731"/><text fill="#000000" font-family="Arial" font-size="14" lengthAdjust="spacing" textLength="131.9541" x="374.3003" y="1568.1745">integrate-workflow</text><text fill="#000000" font-family="Arial" font-size="14" lengthAdjust="spacing" textLength="139.002" x="374.3003" y="1584.4714">Merge Plan PR once</text></g><g class="entity" data-qualified-name="Cleanup" data-source-line="21" id="ent0014"><rect fill="#FFFFFF" height="50" rx="12.5" ry="12.5" style="stroke:#000000;stroke-width:1;" width="229.877" x="328.8603" y="1663.7694"/><line style="stroke:#000000;stroke-width:1;" x1="328.8603" x2="558.7372" y1="1690.0662" y2="1690.0662"/><text fill="#000000" font-family="Arial" font-size="14" lengthAdjust="spacing" textLength="209.877" x="338.8603" y="1681.7645">Delete branch + Update main</text></g><g class="entity" data-qualified-name="Close" data-source-line="22" id="ent0015"><rect fill="#FFFFFF" height="50" rx="12.5" ry="12.5" style="stroke:#000000;stroke-width:1;" width="162.6455" x="362.4803" y="1774.7694"/><line style="stroke:#000000;stroke-width:1;" x1="362.4803" x2="525.1258" y1="1801.0662" y2="1801.0662"/><text fill="#000000" font-family="Arial" font-size="14" lengthAdjust="spacing" textLength="142.6455" x="372.4803" y="1792.7645">Close Plan + Tickets</text></g><g class="entity" data-qualified-name="Evaluate" data-source-line="23" id="ent0016"><rect fill="#FFFFFF" height="50" rx="12.5" ry="12.5" style="stroke:#000000;stroke-width:1;" width="148.3174" x="369.6403" y="1885.7694"/><line style="stroke:#000000;stroke-width:1;" x1="369.6403" x2="517.9576" y1="1912.0662" y2="1912.0662"/><text fill="#000000" font-family="Arial" font-size="14" lengthAdjust="spacing" textLength="128.3174" x="379.6403" y="1903.7645">Evaluate workflow</text></g><g class="entity" data-qualified-name="Improve" data-source-line="24" id="ent0017"><rect fill="#FFFFFF" height="50" rx="12.5" ry="12.5" style="stroke:#000000;stroke-width:1;" width="286.5811" x="148.5103" y="2012.7694"/><line style="stroke:#000000;stroke-width:1;" x1="148.5103" x2="435.0913" y1="2039.0662" y2="2039.0662"/><text fill="#000000" font-family="Arial" font-size="14" lengthAdjust="spacing" textLength="266.5811" x="158.5103" y="2030.7645">Report improvement for user decision</text></g><g class="start_entity" data-qualified-name=".start." data-source-line="26" id="ent0018"><ellipse cx="443.8003" cy="67.6094" fill="#FFFFFF" rx="10" ry="10" style="stroke:#000000;stroke-width:1;"/></g><g class="end_entity" data-qualified-name=".end." data-source-line="44" id="ent0037"><ellipse cx="404.8003" cy="2150.7694" fill="none" rx="11" ry="11" style="stroke:#000000;stroke-width:1;"/><ellipse cx="404.8003" cy="2150.7694" fill="#FFFFFF" rx="6" ry="6" style="stroke:#000000;stroke-width:1;"/></g><!--link *start* to Requirement--><g class="link" data-entity-1="ent0018" data-entity-2="ent0001" data-link-type="dependency" data-source-line="26" id="lnk19"><path d="M443.8003,77.9694 C443.8003,91.8994 443.8003,113.5694 443.8003,133.2594" fill="none" id="*start*-to-Requirement" style="stroke:#000000;stroke-width:1;"/><polygon fill="#000000" points="443.8003,138.2594,447.8003,129.2594,443.8003,133.2594,439.8003,129.2594,443.8003,138.2594" style="stroke:#000000;stroke-width:1;stroke-linejoin:miter;stroke-miterlimit:10;"/></g><!--link Requirement to Understand--><g class="link" data-entity-1="ent0001" data-entity-2="ent0002" data-link-type="dependency" data-source-line="27" id="lnk20"><path d="M443.8003,189.0894 C443.8003,206.9894 443.8003,226.2094 443.8003,244.3494" fill="none" id="Requirement-to-Understand" style="stroke:#000000;stroke-width:1;"/><polygon fill="#000000" points="443.8003,249.3494,447.8003,240.3494,443.8003,244.3494,439.8003,240.3494,443.8003,249.3494" style="stroke:#000000;stroke-width:1;stroke-linejoin:miter;stroke-miterlimit:10;"/></g><!--link Understand to Plan--><g class="link" data-entity-1="ent0002" data-entity-2="ent0003" data-link-type="dependency" data-source-line="28" id="lnk21"><path d="M443.8003,302.4894 C443.8003,320.6894 443.8003,339.9894 443.8003,357.8994" fill="none" id="Understand-to-Plan" style="stroke:#000000;stroke-width:1;"/><polygon fill="#000000" points="443.8003,362.8994,447.8003,353.8994,443.8003,357.8994,439.8003,353.8994,443.8003,362.8994" style="stroke:#000000;stroke-width:1;stroke-linejoin:miter;stroke-miterlimit:10;"/></g><!--link Plan to Issues--><g class="link" data-entity-1="ent0003" data-entity-2="ent0004" data-link-type="dependency" data-source-line="29" id="lnk22"><path d="M443.8003,413.5594 C443.8003,435.4894 443.8003,462.6194 443.8003,484.9294" fill="none" id="Plan-to-Issues" style="stroke:#000000;stroke-width:1;"/><polygon fill="#000000" points="443.8003,489.9294,447.8003,480.9294,443.8003,484.9294,439.8003,480.9294,443.8003,489.9294" style="stroke:#000000;stroke-width:1;stroke-linejoin:miter;stroke-miterlimit:10;"/><text fill="#000000" font-family="Arial" font-size="13" lengthAdjust="spacing" textLength="142.2637" x="444.8003" y="456.2763">persist when required</text></g><!--link Issues to Branch--><g class="link" data-entity-1="ent0004" data-entity-2="ent0005" data-link-type="dependency" data-source-line="30" id="lnk23"><path d="M443.8003,543.0894 C443.8003,561.2894 443.8003,580.5894 443.8003,598.4894" fill="none" id="Issues-to-Branch" style="stroke:#000000;stroke-width:1;"/><polygon fill="#000000" points="443.8003,603.4894,447.8003,594.4894,443.8003,598.4894,439.8003,594.4894,443.8003,603.4894" style="stroke:#000000;stroke-width:1;stroke-linejoin:miter;stroke-miterlimit:10;"/></g><!--link Branch to Implement--><g class="link" data-entity-1="ent0005" data-entity-2="ent0006" data-link-type="dependency" data-source-line="31" id="lnk24"><path d="M443.8003,654.2794 C443.8003,672.1794 443.8003,691.3894 443.8003,709.5394" fill="none" id="Branch-to-Implement" style="stroke:#000000;stroke-width:1;"/><polygon fill="#000000" points="443.8003,714.5394,447.8003,705.5394,443.8003,709.5394,439.8003,705.5394,443.8003,714.5394" style="stroke:#000000;stroke-width:1;stroke-linejoin:miter;stroke-miterlimit:10;"/></g><!--link Implement to Test--><g class="link" data-entity-1="ent0006" data-entity-2="ent0007" data-link-type="dependency" data-source-line="32" id="lnk25"><path d="M439.3103,767.8294 C437.4003,781.6194 435.8203,798.9194 436.8003,814.3994 C437.4203,824.1494 437.9618,829.8543 439.2218,839.1943" fill="none" id="Implement-to-Test" style="stroke:#000000;stroke-width:1;"/><polygon fill="#000000" points="439.8903,844.1494,442.6511,834.6954,439.2218,839.1943,434.7229,835.7649,439.8903,844.1494" style="stroke:#000000;stroke-width:1;stroke-linejoin:miter;stroke-miterlimit:10;"/></g><!--link Test to Implement--><g class="link" data-entity-1="ent0007" data-entity-2="ent0006" data-link-type="dependency" data-source-line="33" id="lnk26"><path d="M443.8003,844.2194 C443.8003,821.9794 443.8003,794.8694 443.8003,772.6094" fill="none" id="Test-to-Implement" style="stroke:#000000;stroke-width:1;"/><polygon fill="#000000" points="443.8003,767.6094,439.8003,776.6094,443.8003,772.6094,447.8003,776.6094,443.8003,767.6094" style="stroke:#000000;stroke-width:1;stroke-linejoin:miter;stroke-miterlimit:10;"/><text fill="#000000" font-family="Arial" font-size="13" lengthAdjust="spacing" textLength="173.9512" x="444.8003" y="810.4663">BLOCKED / failed evidence</text></g><!--link Test to Docs--><g class="link" data-entity-1="ent0007" data-entity-2="ent0008" data-link-type="dependency" data-source-line="34" id="lnk27"><path d="M443.8003,897.2494 C443.8003,919.5894 443.8003,946.8094 443.8003,968.7494" fill="none" id="Test-to-Docs" style="stroke:#000000;stroke-width:1;"/><polygon fill="#000000" points="443.8003,973.7494,447.8003,964.7494,443.8003,968.7494,439.8003,964.7494,443.8003,973.7494" style="stroke:#000000;stroke-width:1;stroke-linejoin:miter;stroke-miterlimit:10;"/><text fill="#000000" font-family="Arial" font-size="13" lengthAdjust="spacing" textLength="183.7393" x="444.8003" y="940.0563">PASS; authorized batch only</text></g><!--link Docs to State--><g class="link" data-entity-1="ent0008" data-entity-2="ent0009" data-link-type="dependency" data-source-line="35" id="lnk28"><path d="M443.8003,1024.4694 C443.8003,1042.3594 443.8003,1061.5794 443.8003,1079.7294" fill="none" id="Docs-to-State" style="stroke:#000000;stroke-width:1;"/><polygon fill="#000000" points="443.8003,1084.7294,447.8003,1075.7294,443.8003,1079.7294,439.8003,1075.7294,443.8003,1084.7294" style="stroke:#000000;stroke-width:1;stroke-linejoin:miter;stroke-miterlimit:10;"/></g><!--link State to Redact--><g class="link" data-entity-1="ent0009" data-entity-2="ent0010" data-link-type="dependency" data-source-line="36" id="lnk29"><path d="M443.8003,1137.8894 C443.8003,1156.0294 443.8003,1175.2794 443.8003,1193.3994" fill="none" id="State-to-Redact" style="stroke:#000000;stroke-width:1;"/><polygon fill="#000000" points="443.8003,1198.3994,447.8003,1189.3994,443.8003,1193.3994,439.8003,1189.3994,443.8003,1198.3994" style="stroke:#000000;stroke-width:1;stroke-linejoin:miter;stroke-miterlimit:10;"/></g><!--link Redact to Publish--><g class="link" data-entity-1="ent0010" data-entity-2="ent0011" data-link-type="dependency" data-source-line="37" id="lnk30"><path d="M443.8003,1251.4594 C443.8003,1269.6594 443.8003,1288.9594 443.8003,1306.8694" fill="none" id="Redact-to-Publish" style="stroke:#000000;stroke-width:1;"/><polygon fill="#000000" points="443.8003,1311.8694,447.8003,1302.8694,443.8003,1306.8694,439.8003,1302.8694,443.8003,1311.8694" style="stroke:#000000;stroke-width:1;stroke-linejoin:miter;stroke-miterlimit:10;"/></g><!--link Publish to PR--><g class="link" data-entity-1="ent0011" data-entity-2="ent0012" data-link-type="dependency" data-source-line="38" id="lnk31"><path d="M443.8003,1362.6394 C443.8003,1380.5894 443.8003,1399.8594 443.8003,1417.7994" fill="none" id="Publish-to-PR" style="stroke:#000000;stroke-width:1;"/><polygon fill="#000000" points="443.8003,1422.7994,447.8003,1413.7994,443.8003,1417.7994,439.8003,1413.7994,443.8003,1422.7994" style="stroke:#000000;stroke-width:1;stroke-linejoin:miter;stroke-miterlimit:10;"/></g><!--link PR to Merge--><g class="link" data-entity-1="ent0012" data-entity-2="ent0013" data-link-type="dependency" data-source-line="39" id="lnk32"><path d="M443.8003,1473.5294 C443.8003,1495.4594 443.8003,1522.5894 443.8003,1544.8994" fill="none" id="PR-to-Merge" style="stroke:#000000;stroke-width:1;"/><polygon fill="#000000" points="443.8003,1549.8994,447.8003,1540.8994,443.8003,1544.8994,439.8003,1540.8994,443.8003,1549.8994" style="stroke:#000000;stroke-width:1;stroke-linejoin:miter;stroke-miterlimit:10;"/><text fill="#000000" font-family="Arial" font-size="13" lengthAdjust="spacing" textLength="231.7212" x="444.8003" y="1516.2463">merge authorized for current scope</text></g><!--link Merge to Cleanup--><g class="link" data-entity-1="ent0013" data-entity-2="ent0014" data-link-type="dependency" data-source-line="40" id="lnk33"><path d="M443.8003,1603.0494 C443.8003,1621.2594 443.8003,1640.5594 443.8003,1658.4594" fill="none" id="Merge-to-Cleanup" style="stroke:#000000;stroke-width:1;"/><polygon fill="#000000" points="443.8003,1663.4594,447.8003,1654.4594,443.8003,1658.4594,439.8003,1654.4594,443.8003,1663.4594" style="stroke:#000000;stroke-width:1;stroke-linejoin:miter;stroke-miterlimit:10;"/></g><!--link Cleanup to Close--><g class="link" data-entity-1="ent0014" data-entity-2="ent0015" data-link-type="dependency" data-source-line="41" id="lnk34"><path d="M443.8003,1714.2294 C443.8003,1732.1794 443.8003,1751.4594 443.8003,1769.3894" fill="none" id="Cleanup-to-Close" style="stroke:#000000;stroke-width:1;"/><polygon fill="#000000" points="443.8003,1774.3894,447.8003,1765.3894,443.8003,1769.3894,439.8003,1765.3894,443.8003,1774.3894" style="stroke:#000000;stroke-width:1;stroke-linejoin:miter;stroke-miterlimit:10;"/></g><!--link Close to Evaluate--><g class="link" data-entity-1="ent0015" data-entity-2="ent0016" data-link-type="dependency" data-source-line="42" id="lnk35"><path d="M443.8003,1825.2294 C443.8003,1843.1794 443.8003,1862.4594 443.8003,1880.3894" fill="none" id="Close-to-Evaluate" style="stroke:#000000;stroke-width:1;"/><polygon fill="#000000" points="443.8003,1885.3894,447.8003,1876.3894,443.8003,1880.3894,439.8003,1876.3894,443.8003,1885.3894" style="stroke:#000000;stroke-width:1;stroke-linejoin:miter;stroke-miterlimit:10;"/></g><!--link Evaluate to Improve--><g class="link" data-entity-1="ent0016" data-entity-2="ent0017" data-link-type="dependency" data-source-line="43" id="lnk36"><path d="M406.0203,1936.1494 C392.9503,1945.0394 378.4303,1955.4494 365.8003,1965.7694 C348.0203,1980.2994 332.8858,1994.6739 318.7658,2008.8739" fill="none" id="Evaluate-to-Improve" style="stroke:#000000;stroke-width:1;"/><polygon fill="#000000" points="315.2403,2012.4194,324.4226,2008.8579,318.7658,2008.8739,318.7498,2003.217,315.2403,2012.4194" style="stroke:#000000;stroke-width:1;stroke-linejoin:miter;stroke-miterlimit:10;"/><text fill="#000000" font-family="Arial" font-size="13" lengthAdjust="spacing" textLength="202.4204" x="366.8003" y="1978.8363">evidence-backed improvement</text></g><!--link Improve to *end*--><g class="link" data-entity-1="ent0017" data-entity-2="ent0037" data-link-type="dependency" data-source-line="44" id="lnk38"><path d="M235.8703,2063.1194 C214.2903,2075.9494 197.7903,2092.5594 211.8003,2109.7694 C235.0803,2138.3694 350.9378,2146.885 388.5978,2148.955" fill="none" id="Improve-to-*end*" style="stroke:#000000;stroke-width:1;"/><polygon fill="#000000" points="393.5903,2149.2294,384.8234,2144.7415,388.5978,2148.955,384.3843,2152.7294,393.5903,2149.2294" style="stroke:#000000;stroke-width:1;stroke-linejoin:miter;stroke-miterlimit:10;"/><text fill="#000000" font-family="Arial" font-size="13" lengthAdjust="spacing" textLength="356.4844" x="212.8003" y="2105.8363">no automatic work; requested follow-up uses new Plan</text></g><!--link Evaluate to *end*--><g class="link" data-entity-1="ent0016" data-entity-2="ent0037" data-link-type="dependency" data-source-line="45" id="lnk39"><path d="M518.4303,1926.1894 C539.9103,1934.1794 560.9803,1946.5594 573.8003,1965.7694 C609.3303,2018.9994 613.5003,2059.5694 573.8003,2109.7694 C553.8803,2134.9594 455.0915,2145.4865 420.8015,2148.4665" fill="none" id="Evaluate-to-*end*" style="stroke:#000000;stroke-width:1;"/><polygon fill="#000000" points="415.8203,2148.8994,425.1328,2152.1051,420.8015,2148.4665,424.4402,2144.1352,415.8203,2148.8994" style="stroke:#000000;stroke-width:1;stroke-linejoin:miter;stroke-miterlimit:10;"/><text fill="#000000" font-family="Arial" font-size="13" lengthAdjust="spacing" textLength="107.8403" x="603.0303" y="2042.3363">no improvement</text></g><?plantuml-src NLHBSjim3Dth56XM_Omd-sIcCudpQQO_rqccYxeBce8jZYcI9Iaxxgg7w5swxr5wae8W9SjP0G8UyNtGYzXWY-2qKAQAra6qiBGnsXPgvL56PKqLDieuuKKBeH6rtIcpXfNG0KUU6bUYq_76clX9KCGBhuIkggYYHfZQ6f_W2hUehMlHHFXg_MQbxGx-_VeDrqzEAqd8FLnqiR5U_SGQRZgjwOrMM_JxgWfHH8IJEVxegB0Kv0H4WD5t3w5cp6HN4YpCewdHaylKyFSF1GngRR8cRUjiG8vpGFLXPXI6NKaPZ0HI8R8Dti23aXkCWRHxwW33mjog-AvRmbq87GPukMlGWCyrrgyuN7Rr0QSUa-HuIo-CR1XqoMeFglFaHatTjKvpqo1eIlowr99pzEu-0irGhVQZ00z8NNpfX5Pn3xU4uNV9sZ-vih9B8KJY0AZM2Hb1DYWt32NtqCIZgvEyvwzJTYsCMb7ZpcEW6BJE39MDC6kiEGB33tkj1RCDWXHcONXmmYLYYAN6ikk46IPdsrP56lsi2yruThDkgLLedatu54gLFApPF4FdFKfHaMjFwcX67z6l1pnO8tCPR1wcX1f9vlHKJ4dIqZqnUAfHcCuDnMWYt3Fs59mDGz3hhT1TqlfQ6D9R3oDpriUq6M-tcGmhww4BwEaSfGeqpPuD2L5Ltrv_XydaxT7HZ7JsZGvXT3d9mtV0fQUlml0pSEKaZgXU5NT25YvdaTyEz3pmEDcPVipC8nGbkVpmUVh--egsk19A4vrmgsgaZHpWYNM4d5tStv-3EFn7bY9IMclqlc98mcRgPRxcWJ2piiZD5X8LcMtpYdYGjCoCCsXPZfAb1SZE-rHraDPXbQ7fKK-58eijhJsp8dqFEnueK2QH5aW9-xOdIq7SgSVBhtfKUf4sVGR6fjfiIoSicKldl22Q69UgYLaJAeGO4y3WBc_uAFCGPvJeFm00?></g></svg>