<svg xmlns="http://www.w3.org/2000/svg" xmlns:xlink="http://www.w3.org/1999/xlink" version="1.1" data-diagram-type="STATE" style="width:1645px;height:2425px;background:#FFFFFF;" width="1645px" height="2425px" viewBox="0 0 1645 2425" zoomAndPan="magnify" preserveAspectRatio="none" contentStyleType="text/css"><?plantuml 1.2026.8?><defs/><g font-family="sans-serif" lengthAdjust="spacing"><g class="title" data-source-line="6"><text x="385.562" y="35.421" fill="#000" font-size="22" textLength="872.717" font-weight="700" font-family="Arial">Persisted Plan / Ticket Lifecycle — Fresh Workers, Shared Plan Branch</text></g><g class="entity" data-qualified-name="persisted" id="ent0001" data-source-line="8"><rect x="742.66" y="172.199" width="267.57" height="50" fill="#FFF" style="stroke:#000;stroke-width:1;" rx="12.5" ry="12.5"/><line x1="742.66" y1="198.496" x2="1010.23" y2="198.496" style="stroke:#000;stroke-width:1;"/><text x="752.66" y="190.194" fill="#000" font-size="14" textLength="247.57" font-family="Arial">Plan + child Ticket Issues persisted</text></g><g class="entity" data-qualified-name="branch" id="ent0002" data-source-line="9"><rect x="774.47" y="314.199" width="203.948" height="50" fill="#FFF" style="stroke:#000;stroke-width:1;" rx="12.5" ry="12.5"/><line x1="774.47" y1="340.496" x2="978.418" y2="340.496" style="stroke:#000;stroke-width:1;"/><text x="784.47" y="332.194" fill="#000" font-size="14" textLength="183.948" font-family="Arial">Shared Plan branch active</text></g><g class="entity" data-qualified-name="select" id="ent0003" data-source-line="10"><rect x="717.57" y="425.199" width="317.746" height="52.594" fill="#FFF" style="stroke:#000;stroke-width:1;" rx="12.5" ry="12.5"/><line x1="717.57" y1="467.793" x2="1035.316" y2="467.793" style="stroke:#000;stroke-width:1;"/><text x="727.57" y="443.194" fill="#000" font-size="14" textLength="269.411" font-family="Arial">Main selects dependency-ready Ticket</text><text x="727.57" y="459.491" fill="#000" font-size="14" textLength="297.746" font-family="Arial">Check dependencies + isolated ownership</text></g><g class="entity" data-qualified-name="ticket_owner" id="ent0004" data-source-line="11"><rect x="497.9" y="554.799" width="375.093" height="52.594" fill="#FFF" style="stroke:#000;stroke-width:1;" rx="12.5" ry="12.5"/><line x1="497.9" y1="597.393" x2="872.993" y2="597.393" style="stroke:#000;stroke-width:1;"/><text x="507.9" y="572.794" fill="#000" font-size="14" textLength="133.096" font-family="Arial">Fresh Ticket owner</text><text x="507.9" y="589.091" fill="#000" font-size="14" textLength="355.093" font-family="Arial">Retains context across dependency-ordered Slices</text></g><g class="entity" data-qualified-name="implement" id="ent0005" data-source-line="12"><rect x="490.48" y="813.979" width="319.913" height="52.594" fill="#FFF" style="stroke:#000;stroke-width:1;" rx="12.5" ry="12.5"/><line x1="490.48" y1="856.573" x2="810.393" y2="856.573" style="stroke:#000;stroke-width:1;"/><text x="500.48" y="831.974" fill="#000" font-size="14" textLength="214.983" font-family="Arial">Owner implements ready Slice</text><text x="500.48" y="848.271" fill="#000" font-size="14" textLength="299.913" font-family="Arial">Local checks; integrate before dependents</text></g><g class="entity" data-qualified-name="module_helpers" id="ent0006" data-source-line="13"><rect x="673.22" y="684.389" width="294.442" height="52.594" fill="#FFF" style="stroke:#000;stroke-width:1;" rx="12.5" ry="12.5"/><line x1="673.22" y1="726.983" x2="967.662" y2="726.983" style="stroke:#000;stroke-width:1;"/><text x="683.22" y="702.384" fill="#000" font-size="14" textLength="266.034" font-family="Arial">Optional independent-module helpers</text><text x="683.22" y="718.681" fill="#000" font-size="14" textLength="274.442" font-family="Arial">Fixed interfaces + isolated workspaces</text></g><g class="entity" data-qualified-name="developed" id="ent0007" data-source-line="14"><rect x="557.36" y="943.579" width="186.168" height="50" fill="#FFF" style="stroke:#000;stroke-width:1;" rx="12.5" ry="12.5"/><line x1="557.36" y1="969.876" x2="743.528" y2="969.876" style="stroke:#000;stroke-width:1;"/><text x="567.36" y="961.574" fill="#000" font-size="14" textLength="166.168" font-family="Arial">Development Complete</text></g><g class="entity" data-qualified-name="verify" id="ent0008" data-source-line="15"><rect x="507.78" y="1078.679" width="285.33" height="52.594" fill="#FFF" style="stroke:#000;stroke-width:1;" rx="12.5" ry="12.5"/><line x1="507.78" y1="1121.273" x2="793.11" y2="1121.273" style="stroke:#000;stroke-width:1;"/><text x="517.78" y="1096.674" fill="#000" font-size="14" textLength="265.33" font-family="Arial">Separate fresh Sol/high Ticket verifier</text><text x="517.78" y="1112.971" fill="#000" font-size="14" textLength="164.035" font-family="Arial">All scenarios; read-only</text></g><g class="entity" data-qualified-name="accepted" id="ent0009" data-source-line="16"><rect x="426.39" y="1233.669" width="304.108" height="50" fill="#FFF" style="stroke:#000;stroke-width:1;" rx="12.5" ry="12.5"/><line x1="426.39" y1="1259.966" x2="730.498" y2="1259.966" style="stroke:#000;stroke-width:1;"/><text x="436.39" y="1251.664" fill="#000" font-size="14" textLength="284.108" font-family="Arial">Main coordinator judges Ticket evidence</text></g><g class="entity" data-qualified-name="more" id="ent0010" data-source-line="17"><rect x="520.17" y="1376.969" width="116.537" height="50" fill="#FFF" style="stroke:#000;stroke-width:1;" rx="12.5" ry="12.5"/><line x1="520.17" y1="1403.266" x2="636.707" y2="1403.266" style="stroke:#000;stroke-width:1;"/><text x="530.17" y="1394.964" fill="#000" font-size="14" textLength="96.537" font-family="Arial">More Tickets?</text></g><g class="entity" data-qualified-name="local" id="ent0011" data-source-line="18"><rect x="427.23" y="1503.969" width="302.427" height="52.594" fill="#FFF" style="stroke:#000;stroke-width:1;" rx="12.5" ry="12.5"/><line x1="427.23" y1="1546.563" x2="729.657" y2="1546.563" style="stroke:#000;stroke-width:1;"/><text x="437.23" y="1521.964" fill="#000" font-size="14" textLength="174.986" font-family="Arial">Local verified checkpoint</text><text x="437.23" y="1538.261" fill="#000" font-size="14" textLength="282.427" font-family="Arial">Normal stopping point; Issues stay open</text></g><g class="entity" data-qualified-name="expand" id="ent0012" data-source-line="19"><rect x="447.54" y="58.609" width="369.809" height="52.594" fill="#FFF" style="stroke:#000;stroke-width:1;" rx="12.5" ry="12.5"/><line x1="447.54" y1="101.203" x2="817.349" y2="101.203" style="stroke:#000;stroke-width:1;"/><text x="457.54" y="76.604" fill="#000" font-size="14" textLength="311.356" font-family="Arial">Append user-requested Ticket before merge</text><text x="457.54" y="92.901" fill="#000" font-size="14" textLength="349.809" font-family="Arial">Update Plan scope/index/dependencies/validation</text></g><g class="entity" data-qualified-name="final_verify" id="ent0013" data-source-line="20"><rect x="12" y="1642.529" width="464.883" height="52.594" fill="#FFF" style="stroke:#000;stroke-width:1;" rx="12.5" ry="12.5"/><line x1="12" y1="1685.123" x2="476.883" y2="1685.123" style="stroke:#000;stroke-width:1;"/><text x="22" y="1660.524" fill="#000" font-size="14" textLength="152.694" font-family="Arial">Final Plan acceptance</text><text x="22" y="1676.821" fill="#000" font-size="14" textLength="444.883" font-family="Arial">Fresh whole-Plan verifier unless exact-scope coalescing applies</text></g><g class="entity" data-qualified-name="gate" id="ent0014" data-source-line="21"><rect x="263.35" y="1781.089" width="274.174" height="52.594" fill="#FFF" style="stroke:#000;stroke-width:1;" rx="12.5" ry="12.5"/><line x1="263.35" y1="1823.683" x2="537.524" y2="1823.683" style="stroke:#000;stroke-width:1;"/><text x="273.35" y="1799.084" fill="#000" font-size="14" textLength="254.174" font-family="Arial">Plan integration + Test Quality Gate</text><text x="273.35" y="1815.381" fill="#000" font-size="14" textLength="176.825" font-family="Arial">Main coordinator decides</text></g><g class="entity" data-qualified-name="publish" id="ent0015" data-source-line="22"><rect x="343.62" y="1910.689" width="321.643" height="52.594" fill="#FFF" style="stroke:#000;stroke-width:1;" rx="12.5" ry="12.5"/><line x1="343.62" y1="1953.283" x2="665.263" y2="1953.283" style="stroke:#000;stroke-width:1;"/><text x="353.62" y="1928.684" fill="#000" font-size="14" textLength="301.643" font-family="Arial">Authorized commit / push / Plan PR actions</text><text x="353.62" y="1944.981" fill="#000" font-size="14" textLength="185.049" font-family="Arial">Stop at selected boundary</text></g><g class="entity" data-qualified-name="merge" id="ent0016" data-source-line="23"><rect x="425.94" y="2040.279" width="159.002" height="50" fill="#FFF" style="stroke:#000;stroke-width:1;" rx="12.5" ry="12.5"/><line x1="425.94" y1="2066.576" x2="584.942" y2="2066.576" style="stroke:#000;stroke-width:1;"/><text x="435.94" y="2058.274" fill="#000" font-size="14" textLength="139.002" font-family="Arial">Merge Plan PR once</text></g><g class="entity" data-qualified-name="cleanup" id="ent0017" data-source-line="24"><rect x="405.5" y="2151.279" width="229.877" height="50" fill="#FFF" style="stroke:#000;stroke-width:1;" rx="12.5" ry="12.5"/><line x1="405.5" y1="2177.576" x2="635.377" y2="2177.576" style="stroke:#000;stroke-width:1;"/><text x="415.5" y="2169.274" fill="#000" font-size="14" textLength="209.877" font-family="Arial">Delete branch + Update main</text></g><g class="entity" data-qualified-name="done" id="ent0018" data-source-line="25"><rect x="442.12" y="2262.279" width="162.646" height="50" fill="#FFF" style="stroke:#000;stroke-width:1;" rx="12.5" ry="12.5"/><line x1="442.12" y1="2288.576" x2="604.766" y2="2288.576" style="stroke:#000;stroke-width:1;"/><text x="452.12" y="2280.274" fill="#000" font-size="14" textLength="142.646" font-family="Arial">Close Plan + Tickets</text></g><g class="entity" data-qualified-name="blocked" id="ent0019" data-source-line="26"><rect x="944.96" y="554.799" width="182.969" height="52.594" fill="#FFF" style="stroke:#000;stroke-width:1;" rx="12.5" ry="12.5"/><line x1="944.96" y1="597.393" x2="1127.929" y2="597.393" style="stroke:#000;stroke-width:1;"/><text x="954.96" y="572.794" fill="#000" font-size="14" textLength="67.006" font-family="Arial">BLOCKED</text><text x="954.96" y="589.091" fill="#000" font-size="14" textLength="162.969" font-family="Arial">No main-agent fallback</text></g><g class="entity" data-qualified-name="verify_blocked" id="ent0020" data-source-line="27"><rect x="765.28" y="1232.369" width="228.325" height="52.594" fill="#FFF" style="stroke:#000;stroke-width:1;" rx="12.5" ry="12.5"/><line x1="765.28" y1="1274.963" x2="993.605" y2="1274.963" style="stroke:#000;stroke-width:1;"/><text x="775.28" y="1250.364" fill="#000" font-size="14" textLength="151.204" font-family="Arial">Verification BLOCKED</text><text x="775.28" y="1266.661" fill="#000" font-size="14" textLength="208.325" font-family="Arial">Record cause + resume point</text></g><g class="start_entity" data-qualified-name=".start." id="ent0021" data-source-line="29"><ellipse cx="876.44" cy="84.899" rx="10" ry="10" fill="#FFF" style="stroke:#000;stroke-width:1;"/></g><g class="end_entity" data-qualified-name=".end." id="ent0040" data-source-line="47"><ellipse cx="773.44" cy="2400.279" rx="11" ry="11" fill="none" style="stroke:#000;stroke-width:1;"/><ellipse cx="773.44" cy="2400.279" rx="6" ry="6" fill="#FFF" style="stroke:#000;stroke-width:1;"/></g><g class="entity" data-qualified-name="GMN54" id="ent0055" data-source-line="62"><path d="M828.03,1054.579 L828.03,1100.979 L793.54,1104.979 L828.03,1108.979 L828.03,1155.376 A0,0 0 0 0 828.03,1155.376 L1436.848,1155.376 A0,0 0 0 0 1436.848,1155.376 L1436.848,1064.579 L1426.848,1054.579 L828.03,1054.579 A0,0 0 0 0 828.03,1054.579" style="stroke:#000;stroke-width:1;" fill="#FFF"/><path d="M1426.848,1054.579 L1426.848,1064.579 L1436.848,1064.579 L1426.848,1054.579" style="stroke:#000;stroke-width:1;" fill="#FFF"/><text x="834.03" y="1071.646" fill="#000" font-size="13" textLength="407.551" font-family="Arial">The main agent directly dispatches fresh owners and verifiers.</text><text x="834.03" y="1086.779" fill="#000" font-size="13" textLength="375.223" font-family="Arial">Every worker is a leaf; no worker spawns another worker.</text><text x="834.03" y="1101.912" fill="#000" font-size="13" textLength="486.027" font-family="Arial">Codex uses fork_turns="none"; other hosts need equivalent fresh context.</text><text x="834.03" y="1117.045" fill="#000" font-size="13" textLength="566.75" font-family="Arial">All active roles count against actual host capacity; main + one worker needs two slots.</text><text x="834.03" y="1132.178" fill="#000" font-size="13" textLength="587.818" font-family="Arial">Dependent Tickets may prepare read-only; writes wait for prerequisite independent PASS.</text><text x="834.03" y="1147.31" fill="#000" font-size="13" textLength="442.673" font-family="Arial">Batch checkpoints preserve accepted state and all failure evidence.</text></g><g class="entity" data-qualified-name="GMN57" id="ent0058" data-source-line="71"><path d="M512.07,1633.559 L512.07,1664.829 L477.19,1668.829 L512.07,1672.829 L512.07,1704.091 A0,0 0 0 0 512.07,1704.091 L1052.822,1704.091 A0,0 0 0 0 1052.822,1704.091 L1052.822,1643.559 L1042.822,1633.559 L512.07,1633.559 A0,0 0 0 0 512.07,1633.559" style="stroke:#000;stroke-width:1;" fill="#FFF"/><path d="M1042.822,1633.559 L1042.822,1643.559 L1052.822,1643.559 L1042.822,1633.559" style="stroke:#000;stroke-width:1;" fill="#FFF"/><text x="518.07" y="1650.626" fill="#000" font-size="13" textLength="466.146" font-family="Arial">Normally a separate fresh verifier checks the entire current Plan scope.</text><text x="518.07" y="1665.759" fill="#000" font-size="13" textLength="519.752" font-family="Arial">One new Sol/high check may cover both gates only for one Ticket with identical</text><text x="518.07" y="1680.892" fill="#000" font-size="13" textLength="410.611" font-family="Arial">scope, artifact/version, configuration, and deployment surface.</text><text x="518.07" y="1696.025" fill="#000" font-size="13" textLength="351.514" font-family="Arial">Never reuse a verifier after scope or surface changes.</text></g><!--link *start* to persisted--><g class="link" data-entity-1="ent0021" data-entity-2="ent0001" id="lnk22" data-source-line="29" data-link-type="dependency"><path d="M876.44,95.309 C876.44,112.079 876.44,142.659 876.44,166.759" style="stroke:#000;stroke-width:1;" fill="none" id="*start*-to-persisted"/><polygon points="876.44,171.759,880.44,162.759,876.44,166.759,872.44,162.759,876.44,171.759" fill="#000" style="stroke:#000;stroke-width:1;stroke-linejoin:miter;stroke-miterlimit:10;"/></g><!--link persisted to branch--><g class="link" data-entity-1="ent0001" data-entity-2="ent0002" id="lnk23" data-source-line="30" data-link-type="dependency"><path d="M876.44,222.589 C876.44,248.279 876.44,283.499 876.44,309.099" style="stroke:#000;stroke-width:1;" fill="none" id="persisted-to-branch"/><polygon points="876.44,314.099,880.44,305.099,876.44,309.099,872.44,305.099,876.44,314.099" fill="#000" style="stroke:#000;stroke-width:1;stroke-linejoin:miter;stroke-miterlimit:10;"/></g><!--link branch to select--><g class="link" data-entity-1="ent0002" data-entity-2="ent0003" id="lnk24" data-source-line="31" data-link-type="dependency"><path d="M876.44,364.679 C876.44,382.579 876.44,401.789 876.44,419.939" style="stroke:#000;stroke-width:1;" fill="none" id="branch-to-select"/><polygon points="876.44,424.939,880.44,415.939,876.44,419.939,872.44,415.939,876.44,424.939" fill="#000" style="stroke:#000;stroke-width:1;stroke-linejoin:miter;stroke-miterlimit:10;"/></g><!--link select to ticket_owner--><g class="link" data-entity-1="ent0003" data-entity-2="ent0004" id="lnk25" data-source-line="32" data-link-type="dependency"><path d="M738.63,478.259 C710.78,486.279 687.29,496.139 678.44,507.799 C668.45,520.949 669.117,534.78 673.517,549.83" style="stroke:#000;stroke-width:1;" fill="none" id="select-to-ticket_owner"/><polygon points="674.92,554.629,676.234,544.869,673.517,549.83,668.555,547.113,674.92,554.629" fill="#000" style="stroke:#000;stroke-width:1;stroke-linejoin:miter;stroke-miterlimit:10;"/><text x="679.44" y="520.866" fill="#000" font-size="13" textLength="309.448" font-family="Arial">fresh independent context + capacity available</text></g><!--link select to blocked--><g class="link" data-entity-1="ent0003" data-entity-2="ent0019" id="lnk26" data-source-line="33" data-link-type="dependency"><path d="M952.77,478.279 C968.76,486.049 984.63,495.799 997.44,507.799 C1011.08,520.559 1019.023,534.584 1025.433,549.744" style="stroke:#000;stroke-width:1;" fill="none" id="select-to-blocked"/><polygon points="1027.38,554.349,1027.559,544.502,1025.433,549.744,1020.191,547.618,1027.38,554.349" fill="#000" style="stroke:#000;stroke-width:1;stroke-linejoin:miter;stroke-miterlimit:10;"/><text x="1011.46" y="520.866" fill="#000" font-size="13" textLength="75.156" font-family="Arial">unavailable</text></g><!--link blocked to select--><g class="link" data-entity-1="ent0019" data-entity-2="ent0003" id="lnk27" data-source-line="34" data-link-type="dependency"><path d="M1077.58,554.559 C1094.54,540.819 1107.69,523.519 1095.44,507.799 C1086.13,495.849 1067.321,487.394 1038.861,479.574" style="stroke:#000;stroke-width:1;" fill="none" id="blocked-to-select"/><polygon points="1034.04,478.249,1041.659,484.491,1038.861,479.574,1043.778,476.777,1034.04,478.249" fill="#000" style="stroke:#000;stroke-width:1;stroke-linejoin:miter;stroke-miterlimit:10;"/><text x="1101.21" y="520.866" fill="#000" font-size="13" textLength="122.104" font-family="Arial">capability restored</text></g><!--link ticket_owner to implement--><g class="link" data-entity-1="ent0004" data-entity-2="ent0005" id="lnk28" data-source-line="35" data-link-type="dependency"><path d="M675.95,607.739 C668.87,628.189 659.71,657.709 655.44,684.389 C648.23,729.419 648.231,777.722 649.151,808.602" style="stroke:#000;stroke-width:1;" fill="none" id="ticket_owner-to-implement"/><polygon points="649.3,813.599,653.03,804.484,649.151,808.602,645.034,804.722,649.3,813.599" fill="#000" style="stroke:#000;stroke-width:1;stroke-linejoin:miter;stroke-miterlimit:10;"/></g><!--link ticket_owner to module_helpers--><g class="link" data-entity-1="ent0004" data-entity-2="ent0006" id="lnk29" data-source-line="36" data-link-type="dependency"><path d="M701.99,607.779 C712.1,622.369 725.85,640.439 740.44,654.389 C751.67,665.119 761.023,672.471 773.703,681.081" style="stroke:#000;stroke-width:1;" fill="none" id="ticket_owner-to-module_helpers"/><polygon points="777.84,683.889,772.641,675.524,773.703,681.081,768.147,682.143,777.84,683.889" fill="#000" style="stroke:#000;stroke-width:1;stroke-linejoin:miter;stroke-miterlimit:10;"/><text x="741.44" y="650.456" fill="#000" font-size="13" textLength="230.064" font-family="Arial">optional safe independent modules</text></g><!--link module_helpers to implement--><g class="link" data-entity-1="ent0006" data-entity-2="ent0005" id="lnk30" data-source-line="37" data-link-type="dependency"><path d="M786.45,737.199 C756.89,759.379 718.289,788.358 688.669,810.588" style="stroke:#000;stroke-width:1;" fill="none" id="module_helpers-to-implement"/><polygon points="684.67,813.589,694.269,811.386,688.669,810.588,689.467,804.988,684.67,813.589" fill="#000" style="stroke:#000;stroke-width:1;stroke-linejoin:miter;stroke-miterlimit:10;"/><text x="746.62" y="780.046" fill="#000" font-size="13" textLength="170.606" font-family="Arial">integrate isolated patches</text></g><!--link implement to developed--><g class="link" data-entity-1="ent0005" data-entity-2="ent0007" id="lnk31" data-source-line="38" data-link-type="dependency"><path d="M650.44,866.839 C650.44,889.179 650.44,916.399 650.44,938.339" style="stroke:#000;stroke-width:1;" fill="none" id="implement-to-developed"/><polygon points="650.44,943.339,654.44,934.339,650.44,938.339,646.44,934.339,650.44,943.339" fill="#000" style="stroke:#000;stroke-width:1;stroke-linejoin:miter;stroke-miterlimit:10;"/></g><!--link developed to verify--><g class="link" data-entity-1="ent0007" data-entity-2="ent0008" id="lnk32" data-source-line="39" data-link-type="dependency"><path d="M650.44,993.919 C650.44,1017.819 650.44,1049.139 650.44,1073.449" style="stroke:#000;stroke-width:1;" fill="none" id="developed-to-verify"/><polygon points="650.44,1078.449,654.44,1069.449,650.44,1073.449,646.44,1069.449,650.44,1078.449" fill="#000" style="stroke:#000;stroke-width:1;stroke-linejoin:miter;stroke-miterlimit:10;"/></g><!--link verify to verify_blocked--><g class="link" data-entity-1="ent0008" data-entity-2="ent0020" id="lnk33" data-source-line="40" data-link-type="dependency"><path d="M674.27,1131.769 C694.62,1152.729 725.44,1182.049 756.44,1202.369 C773.57,1213.599 788.804,1221.582 807.424,1229.892" style="stroke:#000;stroke-width:1;" fill="none" id="verify-to-verify_blocked"/><polygon points="811.99,1231.929,805.402,1224.609,807.424,1229.892,802.141,1231.914,811.99,1231.929" fill="#000" style="stroke:#000;stroke-width:1;stroke-linejoin:miter;stroke-miterlimit:10;"/><text x="757.44" y="1198.436" fill="#000" font-size="13" textLength="119.564" font-family="Arial">checks cannot run</text></g><!--link verify_blocked to verify--><g class="link" data-entity-1="ent0020" data-entity-2="ent0008" id="lnk34" data-source-line="41" data-link-type="dependency"><path d="M887.31,1232.029 C890.26,1217.099 890.92,1198.659 881.44,1185.369 C876.78,1178.849 801.753,1153.842 737.243,1133.222" style="stroke:#000;stroke-width:1;" fill="none" id="verify_blocked-to-verify"/><polygon points="732.48,1131.699,739.835,1138.25,737.243,1133.222,742.271,1130.629,732.48,1131.699" fill="#000" style="stroke:#000;stroke-width:1;stroke-linejoin:miter;stroke-miterlimit:10;"/><text x="889.05" y="1198.436" fill="#000" font-size="13" textLength="97.881" font-family="Arial">cause resolved</text></g><!--link verify to accepted--><g class="link" data-entity-1="ent0008" data-entity-2="ent0009" id="lnk35" data-source-line="42" data-link-type="dependency"><path d="M623.34,1131.719 C609.91,1146.149 594.81,1165.269 586.44,1185.369 C580.13,1200.529 578.312,1213.941 577.902,1228.381" style="stroke:#000;stroke-width:1;" fill="none" id="verify-to-accepted"/><polygon points="577.76,1233.379,582.014,1224.497,577.902,1228.381,574.017,1224.269,577.76,1233.379" fill="#000" style="stroke:#000;stroke-width:1;stroke-linejoin:miter;stroke-miterlimit:10;"/><text x="587.44" y="1198.436" fill="#000" font-size="13" textLength="123.792" font-family="Arial">evidence complete</text></g><!--link verify to implement--><g class="link" data-entity-1="ent0008" data-entity-2="ent0005" id="lnk36" data-source-line="43" data-link-type="dependency"><path d="M552.96,1078.219 C445.33,1049.329 285.97,1004.989 277.44,993.579 C264.14,975.769 263.97,961.249 277.44,943.579 C293.17,922.949 420.89,891.048 523.57,868.138" style="stroke:#000;stroke-width:1;" fill="none" id="verify-to-implement"/><polygon points="528.45,867.049,518.795,865.105,523.57,868.138,520.537,872.913,528.45,867.049" fill="#000" style="stroke:#000;stroke-width:1;stroke-linejoin:miter;stroke-miterlimit:10;"/><text x="314.685" y="965.646" fill="#000" font-size="13" textLength="188.386" font-family="Arial">FAIL: implementation repairs</text><text x="278.44" y="980.779" fill="#000" font-size="13" textLength="260.876" font-family="Arial">then new verifier; retain failed evidence</text></g><!--link accepted to more--><g class="link" data-entity-1="ent0009" data-entity-2="ent0010" id="lnk37" data-source-line="44" data-link-type="dependency"><path d="M578.44,1283.959 C578.44,1309.839 578.44,1345.579 578.44,1371.519" style="stroke:#000;stroke-width:1;" fill="none" id="accepted-to-more"/><polygon points="578.44,1376.519,582.44,1367.519,578.44,1371.519,574.44,1367.519,578.44,1376.519" fill="#000" style="stroke:#000;stroke-width:1;stroke-linejoin:miter;stroke-miterlimit:10;"/><text x="579.44" y="1335.536" fill="#000" font-size="13" textLength="166.385" font-family="Arial">Ticket evidence accepted</text></g><!--link more to select--><g class="link" data-entity-1="ent0010" data-entity-2="ent0003" id="lnk38" data-source-line="45" data-link-type="dependency"><path d="M637.11,1397.749 C759.45,1390.569 1033.3,1371.899 1067.44,1346.969 C1130.94,1300.589 1075.37,1230.949 1139.44,1185.369 C1203.41,1139.869 1438.34,1213.189 1491.44,1155.369 C1521.74,1122.379 1522.18,1087.169 1491.44,1054.579 C1452.34,1013.119 1034.33,1039.909 979.44,1024.579 C966.73,1021.029 776.25,924.879 769.44,913.579 C752.32,885.159 799.73,884.819 827.44,866.579 C903.3,816.639 927.61,807.009 985.44,736.979 C1017.51,698.159 1000.13,668.849 1039.44,637.389 C1077.67,606.799 1115.91,646.439 1145.44,607.389 C1175.32,567.889 1138.89,531.579 1095.44,507.799 C1072.83,495.409 1052.173,487.164 1026.843,479.634" style="stroke:#000;stroke-width:1;" fill="none" id="more-to-select"/><polygon points="1022.05,478.209,1029.537,484.608,1026.843,479.634,1031.817,476.94,1022.05,478.209" fill="#000" style="stroke:#000;stroke-width:1;stroke-linejoin:miter;stroke-miterlimit:10;"/><text x="770.44" y="909.646" fill="#000" font-size="13" textLength="285.733" font-family="Arial">yes; fresh owner and verifier for next Ticket</text></g><!--link more to local--><g class="link" data-entity-1="ent0010" data-entity-2="ent0011" id="lnk39" data-source-line="46" data-link-type="dependency"><path d="M578.44,1427.319 C578.44,1449.249 578.44,1476.379 578.44,1498.689" style="stroke:#000;stroke-width:1;" fill="none" id="more-to-local"/><polygon points="578.44,1503.689,582.44,1494.689,578.44,1498.689,574.44,1494.689,578.44,1503.689" fill="#000" style="stroke:#000;stroke-width:1;stroke-linejoin:miter;stroke-miterlimit:10;"/><text x="579.44" y="1470.036" fill="#000" font-size="13" textLength="16.193" font-family="Arial">no</text></g><!--link local to *end*--><g class="link" data-entity-1="ent0011" data-entity-2="ent0040" id="lnk41" data-source-line="47" data-link-type="dependency"><path d="M730.12,1553.229 C852.12,1572.649 1012.42,1602.619 1070.44,1633.559 C1089.65,1643.799 1105.44,1646.059 1105.44,1667.829 C1105.44,1667.829 1105.44,1667.829 1105.44,2288.279 C1105.44,2357.559 847.058,2390.911 789.458,2397.501" style="stroke:#000;stroke-width:1;" fill="none" id="local-to-*end*"/><polygon points="784.49,2398.069,793.886,2401.02,789.458,2397.501,792.977,2393.072,784.49,2398.069" fill="#000" style="stroke:#000;stroke-width:1;stroke-linejoin:miter;stroke-miterlimit:10;"/><text x="1106.44" y="2006.346" fill="#000" font-size="13" textLength="169.958" font-family="Arial">stop locally; not BLOCKED</text></g><!--link local to expand--><g class="link" data-entity-1="ent0011" data-entity-2="ent0012" id="lnk42" data-source-line="48" data-link-type="dependency"><path d="M555.26,1503.699 C491.08,1430.859 312.35,1213.249 259.44,993.579 C180.24,664.729 299.34,563.589 431.44,252.199 C447.82,213.599 451.22,201.259 481.44,172.199 C507.67,146.989 538.181,128.612 567.881,113.872" style="stroke:#000;stroke-width:1;" fill="none" id="local-to-expand"/><polygon points="572.36,111.649,562.52,112.067,567.881,113.872,566.076,119.233,572.36,111.649" fill="#000" style="stroke:#000;stroke-width:1;stroke-linejoin:miter;stroke-miterlimit:10;"/><text x="236.06" y="780.046" fill="#000" font-size="13" textLength="215.217" font-family="Arial">new user-requested functionality</text></g><!--link publish to expand--><g class="link" data-entity-1="ent0015" data-entity-2="ent0012" id="lnk43" data-source-line="49" data-link-type="dependency"><path d="M601.06,1910.279 C709.45,1879.629 889,1823.329 1033.44,1751.089 C1341.32,1597.109 1417.05,1481.089 1528.44,1155.369 C1630.84,855.939 1463.47,724.059 1232.44,507.799 C1168.18,447.639 1136.07,452.639 1052.44,425.199 C925.23,383.459 842.45,467.639 757.44,364.199 C725.84,325.739 776.07,297.949 756.44,252.199 C748.88,234.579 737.8,236.859 725.44,222.199 C694.98,186.059 667.767,144.15 650.407,115.89" style="stroke:#000;stroke-width:1;" fill="none" id="publish-to-expand"/><polygon points="647.79,111.629,649.093,121.392,650.407,115.89,655.909,117.204,647.79,111.629" fill="#000" style="stroke:#000;stroke-width:1;stroke-linejoin:miter;stroke-miterlimit:10;"/></g><!--link expand to select--><g class="link" data-entity-1="ent0012" data-entity-2="ent0003" id="lnk44" data-source-line="50" data-link-type="dependency"><path d="M606.72,111.479 C578,139.609 529.74,185.659 485.44,222.199 C468.02,236.569 454.66,232.069 444.44,252.199 C438.01,264.879 436.5,272.399 444.44,284.199 C504.67,373.709 615.635,414.11 712.215,433.2" style="stroke:#000;stroke-width:1;" fill="none" id="expand-to-select"/><polygon points="717.12,434.169,709.066,428.5,712.215,433.2,707.515,436.348,717.12,434.169" fill="#000" style="stroke:#000;stroke-width:1;stroke-linejoin:miter;stroke-miterlimit:10;"/><text x="487.83" y="265.266" fill="#000" font-size="13" textLength="221.317" font-family="Arial">same branch/PR; Plan in_progress</text><text x="445.44" y="280.399" fill="#000" font-size="13" textLength="306.097" font-family="Arial">retain evidence; invalidate impacted readiness</text></g><!--link local to final_verify--><g class="link" data-entity-1="ent0011" data-entity-2="ent0013" id="lnk45" data-source-line="51" data-link-type="dependency"><path d="M515.62,1556.949 C456,1581.329 371.518,1615.867 311.898,1640.247" style="stroke:#000;stroke-width:1;" fill="none" id="local-to-final_verify"/><polygon points="307.27,1642.139,317.114,1642.435,311.898,1640.247,314.086,1635.03,307.27,1642.139" fill="#000" style="stroke:#000;stroke-width:1;stroke-linejoin:miter;stroke-miterlimit:10;"/><text x="442.36" y="1599.626" fill="#000" font-size="13" textLength="261.447" font-family="Arial">publication authorized for current scope</text></g><!--link final_verify to gate--><g class="link" data-entity-1="ent0013" data-entity-2="ent0014" id="lnk46" data-source-line="52" data-link-type="dependency"><path d="M273.78,1695.509 C301.67,1719.929 339.618,1753.146 367.468,1777.526" style="stroke:#000;stroke-width:1;" fill="none" id="final_verify-to-gate"/><polygon points="371.23,1780.819,367.093,1771.882,367.468,1777.526,361.823,1777.901,371.23,1780.819" fill="#000" style="stroke:#000;stroke-width:1;stroke-linejoin:miter;stroke-miterlimit:10;"/><text x="337.41" y="1747.156" fill="#000" font-size="13" textLength="33.236" font-family="Arial">PASS</text></g><!--link gate to implement--><g class="link" data-entity-1="ent0014" data-entity-2="ent0005" id="lnk47" data-source-line="53" data-link-type="dependency"><path d="M537.95,1805.629 C713.66,1801.399 1003.21,1782.359 1070.44,1704.089 C1090.87,1680.309 1086.86,1660.259 1070.44,1633.559 C1018.8,1549.599 949.63,1602.549 862.44,1556.559 C794.64,1520.789 740.41,1515.209 767.44,1456.969 C808.6,1368.289 851.53,1365.139 935.44,1314.969 C966.61,1296.329 983.38,1308.019 1011.44,1284.969 C1052.09,1251.569 1030.29,1212.389 1075.44,1185.369 C1147.94,1141.989 1397.11,1217.429 1454.44,1155.369 C1484.84,1122.469 1485.31,1087.049 1454.44,1054.579 C1409.06,1006.839 923.9,1048.239 862.44,1024.579 C853.34,1021.069 733.76,920.029 726.44,913.579 C709.36,898.519 694.427,884.413 679.947,870.353" style="stroke:#000;stroke-width:1;" fill="none" id="gate-to-implement"/><polygon points="676.36,866.869,680.03,876.009,679.947,870.353,685.603,870.269,676.36,866.869" fill="#000" style="stroke:#000;stroke-width:1;stroke-linejoin:miter;stroke-miterlimit:10;"/><text x="936.44" y="1328.036" fill="#000" font-size="13" textLength="196.892" font-family="Arial">affected function needs repair</text><text x="979.442" y="1343.169" fill="#000" font-size="13" textLength="110.887" font-family="Arial">then new verifier</text></g><!--link gate to publish--><g class="link" data-entity-1="ent0014" data-entity-2="ent0015" id="lnk48" data-source-line="54" data-link-type="dependency"><path d="M421.24,1833.899 C439.38,1856.159 462.391,1884.394 480.521,1906.634" style="stroke:#000;stroke-width:1;" fill="none" id="gate-to-publish"/><polygon points="483.68,1910.509,481.094,1901.006,480.521,1906.634,474.893,1906.061,483.68,1910.509" fill="#000" style="stroke:#000;stroke-width:1;stroke-linejoin:miter;stroke-miterlimit:10;"/><text x="459.67" y="1876.756" fill="#000" font-size="13" textLength="33.236" font-family="Arial">PASS</text></g><!--link publish to *end*--><g class="link" data-entity-1="ent0015" data-entity-2="ent0040" id="lnk49" data-source-line="55" data-link-type="dependency"><path d="M665.59,1961.229 C703.61,1969.539 737.23,1980.169 751.44,1993.279 C775.72,2015.679 773.44,2031.239 773.44,2064.279 C773.44,2064.279 773.44,2064.279 773.44,2288.279 C773.44,2325.279 773.44,2364.219 773.44,2383.869" style="stroke:#000;stroke-width:1;" fill="none" id="publish-to-*end*"/><polygon points="773.44,2388.869,777.44,2379.869,773.44,2383.869,769.44,2379.869,773.44,2388.869" fill="#000" style="stroke:#000;stroke-width:1;stroke-linejoin:miter;stroke-miterlimit:10;"/><text x="774.44" y="2180.846" fill="#000" font-size="13" textLength="260.774" font-family="Arial">commit-only / push-only / PR ready stop</text></g><!--link publish to merge--><g class="link" data-entity-1="ent0015" data-entity-2="ent0016" id="lnk50" data-source-line="56" data-link-type="dependency"><path d="M502.39,1963.749 C501.54,1977.549 500.87,1994.839 501.44,2010.279 C501.8,2019.959 502.127,2025.605 502.857,2034.855" style="stroke:#000;stroke-width:1;" fill="none" id="publish-to-merge"/><polygon points="503.25,2039.839,506.53,2030.553,502.857,2034.855,498.554,2031.182,503.25,2039.839" fill="#000" style="stroke:#000;stroke-width:1;stroke-linejoin:miter;stroke-miterlimit:10;"/><text x="502.44" y="2006.346" fill="#000" font-size="13" textLength="244.874" font-family="Arial">current PR ready + merge authorized</text></g><!--link merge to cleanup--><g class="link" data-entity-1="ent0016" data-entity-2="ent0017" id="lnk51" data-source-line="57" data-link-type="dependency"><path d="M508.81,2090.739 C511.28,2108.689 513.938,2128.016 516.408,2145.946" style="stroke:#000;stroke-width:1;" fill="none" id="merge-to-cleanup"/><polygon points="517.09,2150.899,519.824,2141.438,516.408,2145.946,511.899,2142.529,517.09,2150.899" fill="#000" style="stroke:#000;stroke-width:1;stroke-linejoin:miter;stroke-miterlimit:10;"/></g><!--link cleanup to done--><g class="link" data-entity-1="ent0017" data-entity-2="ent0018" id="lnk52" data-source-line="58" data-link-type="dependency"><path d="M521.11,2201.739 C521.61,2219.689 522.143,2238.971 522.633,2256.901" style="stroke:#000;stroke-width:1;" fill="none" id="cleanup-to-done"/><polygon points="522.77,2261.899,526.523,2252.793,522.633,2256.901,518.526,2253.012,522.77,2261.899" fill="#000" style="stroke:#000;stroke-width:1;stroke-linejoin:miter;stroke-miterlimit:10;"/></g><!--link done to *end*--><g class="link" data-entity-1="ent0018" data-entity-2="ent0040" id="lnk53" data-source-line="59" data-link-type="dependency"><path d="M515.2,2312.719 C511.76,2327.849 510.71,2346.709 521.44,2359.279 C553.15,2396.419 712.19,2399.252 757.08,2399.322" style="stroke:#000;stroke-width:1;" fill="none" id="done-to-*end*"/><polygon points="762.08,2399.329,753.086,2395.315,757.08,2399.322,753.074,2403.315,762.08,2399.329" fill="#000" style="stroke:#000;stroke-width:1;stroke-linejoin:miter;stroke-miterlimit:10;"/><text x="522.44" y="2355.346" fill="#000" font-size="13" textLength="224.041" font-family="Arial">later functionality uses a new Plan</text></g><?plantuml-src TLVBSjis5DtpAr0lQqlQMzDs72VkPEeahfssYpZZWKXGH0K1B01ALbVzY7vXlwJduaNITJSn0roS-pxtwXlVYRrWlU9ILzxqp1ksCTwRFMka5RMNHbTk9tNFBTypr_767ANUifOh9oOtZMZveFoDqVuZ1-ALbLnLbPTU2NOdh9FEYuRTAQxPYdsMzKvuTYjRKPzgIFpprz_inWhNiT-CtK7yWZrqtEONRopNTLTLpdCls5auEsTr9rMJiTuxDmZ7-gpgZF79__BBAUWcW38E9myYYCUJBFi1CM5EA4J1mRzUw4Re-hImWZUdfFPHNtUYtetN4ZQSC-cCukIlEMgOqCa-u4UmZ1_zJUO7mKTzBpoqEbOZZkBPmpXht4oxiOqW5nwKh8KBi3v0F0M83Fw9_iFalbV8huO3qUhmwb7Vcfehn0-ckpMJqBMrz6mZMcD5KUSZVa4fu3tL1H2aBgABlMa6PB8JYgB-g6_aCymaRDloUXwM8vBiUfuTY4-VqjEivQqu26LwKiok3TdWOvgQU379gg0Yn5SRGlfWrAgJsnBRWx2obHJUAwMOguNcLXeuJZ5P6ArE0JQ8dMRPhmt2BJNtnhBVXsOBBnAcE4ZAHpI8rxNe9rNsWO8O1TqFoKChycqCVZAgYLde3GBrg3yQkyUTGoVsr6NXU9rh6-zF37xh0Aa89cDUzPG6DZXXKPz_G9h2d6nDMTqBkqNkV-aRUX9QmDM0Mr4MdrVJ4buTk98GGvQ3Bl7SSrtSkv6K-m0GFKVN03ZMyx4pIYp2POux6xGIZb3GQukW4v7bEAl9ITxtIgPAQ0dwQPw9W9Lh51QXa3x3F_Rp02FzYVq8gKVzdtmreaQA8kmM8YLKW--CbNzIwCr-Bptug1zW-IgwT7SVAC5erF03KIBtgN7nOcC6tN0R2wOVDagwaIyelWN3vE88OHzhcgeuKyyvIydOm_WW32xaUkYp-BKoBa6UvuAABM1qmNnp--dwftTlgNe2q89lgMN0q6h3wrraDbJBRYpGNqDcwXZEylvUr0WVgpdA2FgGpe5c0zNWf46UCbRrvTklRB7uViAovOijC2SqxXAb9eVpQIR2yAUSJdcCNQPcdb1COKLGFmTxKFBvWKl5DqeKC58QBGJ6e4U1VBhueWtCsNqjXa2G03Sor1FKedxWpSoUREH8XlDhNCrf3A0cywJZhPXv4aLTzUB9Oge002Cp5-hikGTZk6eKovQDj5Y-obtggFWdg9adao8GfW42eRNnp0wwUY4oZLi2kap5Wf0PTO3ch22fpSG8mKoOr7I1oeli17Rg-ytL-zlByIJMgWNJIveks5iqq-9OI8ROd6OdwbugQCpwgc93Degu6FWlY7mayN3_Qf6S18P6BCkOTP3Yo78WMLY4yep82ISf3MmD26sg-4ave0Qw36mVxzLfpIZugIEpvCIKICI40zTVi7qxw3hM6wguIkJqokigWRpgegFbBNRhwkv-pHBvFlNMRE4u8f_2dED6wqEQ5eAonGDFqcIL6lBPXnI6ARz3Mp0oqH0VUPaYMG_MKY64SL7DtcKmOdM0t5qzF5JX-_zAYRTjfEyS8eHFD2vLqol5bE2IdXpAfAf4jcGmpf6mIQHXahyn2EBYHKaUN-PA31FZilXQfC_JrHYJAXxabtbEfByZ1z1Se7ycrX5ls7brKEbWRGa-KuQh2cM7DiRIX5MqpNJnkOkZYSM94dyHmAz6kaH3qsvmitPmo-eTlazXrwDLbFJ1sfPAF1y2vgZfdK4AR3fTLjS62qcq4QMmU_A3rUwxCms_pjOiodR6OQkbF39qW4G9Xg4Np4bpObdHlXVtUsQnbj1UFK2ARsd9fktQOuS8K6MYhAF7vuo2cCoCrUAFXZbbF3nxMuWy3MKyEh6UwicASQrSiwEL7cgF76i6LJL4g66batu-4AYobjKRYkfa8tJq05r-6Ec9nH5EeGPX1BORe3EtuxAYFP2o-JAdizKgBff89KVhpvRdGcTf7Y3O30OYzMEPbjLnMNr2bAYAoiuTdeLmr0POz6ko2vtgMEW9YWA5Dj7lKUAQJCSqfNMMK2yOjrxYHuDV7MYXCFg2KjhAxH0tm8lWFeAdp2cqk1l2RunbzL6GJYjeAF7H5zvI2yJD4_gJE6pb6Zlz6BD_0G00?></g></svg>