<svg xmlns="http://www.w3.org/2000/svg" xmlns:xlink="http://www.w3.org/1999/xlink" version="1.1" data-diagram-type="STATE" style="width:1748px;height:2442px;background:#FFFFFF;" width="1748px" height="2442px" viewBox="0 0 1748 2442" zoomAndPan="magnify" preserveAspectRatio="none" contentStyleType="text/css"><?plantuml 1.2026.8?><defs/><g font-family="sans-serif" lengthAdjust="spacing"><g class="title" data-source-line="6"><text x="436.922" y="35.421" fill="#000" font-size="22" textLength="872.717" font-weight="700" font-family="Arial">Persisted Plan / Ticket Lifecycle — Fresh Workers, Shared Plan Branch</text></g><g class="entity" data-qualified-name="persisted" id="ent0001" data-source-line="8"><rect x="773.63" y="189.139" width="267.57" height="50" fill="#FFF" style="stroke:#000;stroke-width:1;" rx="12.5" ry="12.5"/><line x1="773.63" y1="215.436" x2="1041.2" y2="215.436" style="stroke:#000;stroke-width:1;"/><text x="783.63" y="207.134" fill="#000" font-size="14" textLength="247.57" font-family="Arial">Plan + child Ticket Issues persisted</text></g><g class="entity" data-qualified-name="branch" id="ent0002" data-source-line="9"><rect x="805.44" y="331.139" width="203.948" height="50" fill="#FFF" style="stroke:#000;stroke-width:1;" rx="12.5" ry="12.5"/><line x1="805.44" y1="357.436" x2="1009.388" y2="357.436" style="stroke:#000;stroke-width:1;"/><text x="815.44" y="349.134" fill="#000" font-size="14" textLength="183.948" font-family="Arial">Shared Plan branch active</text></g><g class="entity" data-qualified-name="select" id="ent0003" data-source-line="10"><rect x="748.55" y="442.139" width="317.746" height="52.594" fill="#FFF" style="stroke:#000;stroke-width:1;" rx="12.5" ry="12.5"/><line x1="748.55" y1="484.733" x2="1066.296" y2="484.733" style="stroke:#000;stroke-width:1;"/><text x="758.55" y="460.134" fill="#000" font-size="14" textLength="269.411" font-family="Arial">Main selects dependency-ready Ticket</text><text x="758.55" y="476.431" fill="#000" font-size="14" textLength="297.746" font-family="Arial">Check dependencies + isolated ownership</text></g><g class="entity" data-qualified-name="ticket_owner" id="ent0004" data-source-line="11"><rect x="605.52" y="571.739" width="253.789" height="52.594" fill="#FFF" style="stroke:#000;stroke-width:1;" rx="12.5" ry="12.5"/><line x1="605.52" y1="614.333" x2="859.309" y2="614.333" style="stroke:#000;stroke-width:1;"/><text x="615.52" y="589.734" fill="#000" font-size="14" textLength="133.096" font-family="Arial">Fresh Ticket owner</text><text x="615.52" y="606.031" fill="#000" font-size="14" textLength="233.789" font-family="Arial">Retains context across the Ticket</text></g><g class="entity" data-qualified-name="implement" id="ent0005" data-source-line="12"><rect x="556.46" y="830.919" width="319.913" height="52.594" fill="#FFF" style="stroke:#000;stroke-width:1;" rx="12.5" ry="12.5"/><line x1="556.46" y1="873.513" x2="876.373" y2="873.513" style="stroke:#000;stroke-width:1;"/><text x="566.46" y="848.914" fill="#000" font-size="14" textLength="224.355" font-family="Arial">Owner implements ready Ticket</text><text x="566.46" y="865.211" fill="#000" font-size="14" textLength="299.913" font-family="Arial">Local checks; integrate before dependents</text></g><g class="entity" data-qualified-name="module_helpers" id="ent0006" data-source-line="13"><rect x="756.2" y="701.329" width="294.442" height="52.594" fill="#FFF" style="stroke:#000;stroke-width:1;" rx="12.5" ry="12.5"/><line x1="756.2" y1="743.923" x2="1050.642" y2="743.923" style="stroke:#000;stroke-width:1;"/><text x="766.2" y="719.324" fill="#000" font-size="14" textLength="266.034" font-family="Arial">Optional independent-module helpers</text><text x="766.2" y="735.621" fill="#000" font-size="14" textLength="274.442" font-family="Arial">Fixed interfaces + isolated workspaces</text></g><g class="entity" data-qualified-name="developed" id="ent0007" data-source-line="14"><rect x="623.33" y="960.519" width="186.168" height="50" fill="#FFF" style="stroke:#000;stroke-width:1;" rx="12.5" ry="12.5"/><line x1="623.33" y1="986.816" x2="809.498" y2="986.816" style="stroke:#000;stroke-width:1;"/><text x="633.33" y="978.514" fill="#000" font-size="14" textLength="166.168" font-family="Arial">Development Complete</text></g><g class="entity" data-qualified-name="verify" id="ent0008" data-source-line="15"><rect x="573.75" y="1095.619" width="285.33" height="52.594" fill="#FFF" style="stroke:#000;stroke-width:1;" rx="12.5" ry="12.5"/><line x1="573.75" y1="1138.213" x2="859.08" y2="1138.213" style="stroke:#000;stroke-width:1;"/><text x="583.75" y="1113.614" fill="#000" font-size="14" textLength="265.33" font-family="Arial">Separate fresh Sol/high Ticket verifier</text><text x="583.75" y="1129.911" fill="#000" font-size="14" textLength="164.035" font-family="Arial">All scenarios; read-only</text></g><g class="entity" data-qualified-name="accepted" id="ent0009" data-source-line="16"><rect x="472.36" y="1250.609" width="304.108" height="50" fill="#FFF" style="stroke:#000;stroke-width:1;" rx="12.5" ry="12.5"/><line x1="472.36" y1="1276.906" x2="776.468" y2="1276.906" style="stroke:#000;stroke-width:1;"/><text x="482.36" y="1268.604" fill="#000" font-size="14" textLength="284.108" font-family="Arial">Main coordinator judges Ticket evidence</text></g><g class="entity" data-qualified-name="more" id="ent0010" data-source-line="17"><rect x="566.15" y="1393.909" width="116.537" height="50" fill="#FFF" style="stroke:#000;stroke-width:1;" rx="12.5" ry="12.5"/><line x1="566.15" y1="1420.206" x2="682.687" y2="1420.206" style="stroke:#000;stroke-width:1;"/><text x="576.15" y="1411.904" fill="#000" font-size="14" textLength="96.537" font-family="Arial">More Tickets?</text></g><g class="entity" data-qualified-name="local" id="ent0011" data-source-line="18"><rect x="473.21" y="1520.909" width="302.427" height="52.594" fill="#FFF" style="stroke:#000;stroke-width:1;" rx="12.5" ry="12.5"/><line x1="473.21" y1="1563.503" x2="775.637" y2="1563.503" style="stroke:#000;stroke-width:1;"/><text x="483.21" y="1538.904" fill="#000" font-size="14" textLength="174.986" font-family="Arial">Local verified checkpoint</text><text x="483.21" y="1555.201" fill="#000" font-size="14" textLength="282.427" font-family="Arial">Normal stopping point; Issues stay open</text></g><g class="entity" data-qualified-name="expand" id="ent0012" data-source-line="19"><rect x="49.51" y="66.579" width="369.809" height="52.594" fill="#FFF" style="stroke:#000;stroke-width:1;" rx="12.5" ry="12.5"/><line x1="49.51" y1="109.173" x2="419.319" y2="109.173" style="stroke:#000;stroke-width:1;"/><text x="59.51" y="84.574" fill="#000" font-size="14" textLength="307.255" font-family="Arial">Add same-requirement scope before merge</text><text x="59.51" y="100.871" fill="#000" font-size="14" textLength="349.809" font-family="Arial">Update Plan scope/index/dependencies/validation</text></g><g class="entity" data-qualified-name="final_verify" id="ent0013" data-source-line="20"><rect x="12" y="1659.469" width="526.837" height="52.594" fill="#FFF" style="stroke:#000;stroke-width:1;" rx="12.5" ry="12.5"/><line x1="12" y1="1702.063" x2="538.837" y2="1702.063" style="stroke:#000;stroke-width:1;"/><text x="22" y="1677.464" fill="#000" font-size="14" textLength="152.694" font-family="Arial">Final Plan acceptance</text><text x="22" y="1693.761" fill="#000" font-size="14" textLength="506.837" font-family="Arial">Separate fresh verifier unless one-Ticket exact-scope coalescing applies</text></g><g class="entity" data-qualified-name="gate" id="ent0014" data-source-line="21"><rect x="312.33" y="1798.029" width="274.174" height="52.594" fill="#FFF" style="stroke:#000;stroke-width:1;" rx="12.5" ry="12.5"/><line x1="312.33" y1="1840.623" x2="586.504" y2="1840.623" style="stroke:#000;stroke-width:1;"/><text x="322.33" y="1816.024" fill="#000" font-size="14" textLength="254.174" font-family="Arial">Plan integration + Test Quality Gate</text><text x="322.33" y="1832.321" fill="#000" font-size="14" textLength="176.825" font-family="Arial">Main coordinator decides</text></g><g class="entity" data-qualified-name="publish" id="ent0015" data-source-line="22"><rect x="403.6" y="1927.629" width="321.643" height="52.594" fill="#FFF" style="stroke:#000;stroke-width:1;" rx="12.5" ry="12.5"/><line x1="403.6" y1="1970.223" x2="725.243" y2="1970.223" style="stroke:#000;stroke-width:1;"/><text x="413.6" y="1945.624" fill="#000" font-size="14" textLength="301.643" font-family="Arial">Authorized commit / push / Plan PR actions</text><text x="413.6" y="1961.921" fill="#000" font-size="14" textLength="185.049" font-family="Arial">Stop at selected boundary</text></g><g class="entity" data-qualified-name="merge" id="ent0016" data-source-line="23"><rect x="485.92" y="2057.219" width="159.002" height="50" fill="#FFF" style="stroke:#000;stroke-width:1;" rx="12.5" ry="12.5"/><line x1="485.92" y1="2083.516" x2="644.922" y2="2083.516" style="stroke:#000;stroke-width:1;"/><text x="495.92" y="2075.214" fill="#000" font-size="14" textLength="139.002" font-family="Arial">Merge Plan PR once</text></g><g class="entity" data-qualified-name="cleanup" id="ent0017" data-source-line="24"><rect x="465.48" y="2168.219" width="229.877" height="50" fill="#FFF" style="stroke:#000;stroke-width:1;" rx="12.5" ry="12.5"/><line x1="465.48" y1="2194.516" x2="695.357" y2="2194.516" style="stroke:#000;stroke-width:1;"/><text x="475.48" y="2186.214" fill="#000" font-size="14" textLength="209.877" font-family="Arial">Delete branch + Update main</text></g><g class="entity" data-qualified-name="done" id="ent0018" data-source-line="25"><rect x="502.1" y="2279.219" width="162.646" height="50" fill="#FFF" style="stroke:#000;stroke-width:1;" rx="12.5" ry="12.5"/><line x1="502.1" y1="2305.516" x2="664.746" y2="2305.516" style="stroke:#000;stroke-width:1;"/><text x="512.1" y="2297.214" fill="#000" font-size="14" textLength="142.646" font-family="Arial">Close Plan + Tickets</text></g><g class="entity" data-qualified-name="blocked" id="ent0019" data-source-line="26"><rect x="991.93" y="571.739" width="182.969" height="52.594" fill="#FFF" style="stroke:#000;stroke-width:1;" rx="12.5" ry="12.5"/><line x1="991.93" y1="614.333" x2="1174.899" y2="614.333" style="stroke:#000;stroke-width:1;"/><text x="1001.93" y="589.734" fill="#000" font-size="14" textLength="67.006" font-family="Arial">BLOCKED</text><text x="1001.93" y="606.031" fill="#000" font-size="14" textLength="162.969" font-family="Arial">No main-agent fallback</text></g><g class="entity" data-qualified-name="verify_blocked" id="ent0020" data-source-line="27"><rect x="811.26" y="1249.309" width="228.325" height="52.594" fill="#FFF" style="stroke:#000;stroke-width:1;" rx="12.5" ry="12.5"/><line x1="811.26" y1="1291.903" x2="1039.585" y2="1291.903" style="stroke:#000;stroke-width:1;"/><text x="821.26" y="1267.304" fill="#000" font-size="14" textLength="151.204" font-family="Arial">Verification BLOCKED</text><text x="821.26" y="1283.601" fill="#000" font-size="14" textLength="208.325" font-family="Arial">Record cause + resume point</text></g><g class="start_entity" data-qualified-name=".start." id="ent0021" data-source-line="29"><ellipse cx="907.42" cy="92.879" rx="10" ry="10" fill="#FFF" style="stroke:#000;stroke-width:1;"/></g><g class="end_entity" data-qualified-name=".end." id="ent0040" data-source-line="47"><ellipse cx="833.42" cy="2417.219" rx="11" ry="11" fill="none" style="stroke:#000;stroke-width:1;"/><ellipse cx="833.42" cy="2417.219" rx="6" ry="6" fill="#FFF" style="stroke:#000;stroke-width:1;"/></g><g class="entity" data-qualified-name="GMN54" id="ent0055" data-source-line="62"><path d="M454.74,57.609 L454.74,88.879 L419.5,92.879 L454.74,96.879 L454.74,128.141 A0,0 0 0 0 454.74,128.141 L862.09,128.141 A0,0 0 0 0 862.09,128.141 L862.09,67.609 L852.09,57.609 L454.74,57.609 A0,0 0 0 0 454.74,57.609" style="stroke:#000;stroke-width:1;" fill="#FFF"/><path d="M852.09,57.609 L852.09,67.609 L862.09,67.609 L852.09,57.609" style="stroke:#000;stroke-width:1;" fill="#FFF"/><text x="460.74" y="74.676" fill="#000" font-size="13" textLength="386.35" font-family="Arial">Same-requirement supplements update the original Ticket;</text><text x="460.74" y="89.809" fill="#000" font-size="13" textLength="329.12" font-family="Arial">add a Ticket only for a distinct behavior boundary.</text><text x="460.74" y="104.942" fill="#000" font-size="13" textLength="336.299" font-family="Arial">Independent requirements always start a new Plan,</text><text x="460.74" y="120.075" fill="#000" font-size="13" textLength="246.683" font-family="Arial">even while another Plan is unmerged.</text></g><g class="entity" data-qualified-name="GMN57" id="ent0058" data-source-line="69"><path d="M894.01,1071.519 L894.01,1117.919 L859.51,1121.919 L894.01,1125.919 L894.01,1172.316 A0,0 0 0 0 894.01,1172.316 L1502.828,1172.316 A0,0 0 0 0 1502.828,1172.316 L1502.828,1081.519 L1492.828,1071.519 L894.01,1071.519 A0,0 0 0 0 894.01,1071.519" style="stroke:#000;stroke-width:1;" fill="#FFF"/><path d="M1492.828,1071.519 L1492.828,1081.519 L1502.828,1081.519 L1492.828,1071.519" style="stroke:#000;stroke-width:1;" fill="#FFF"/><text x="900.01" y="1088.586" fill="#000" font-size="13" textLength="407.551" font-family="Arial">The main agent directly dispatches fresh owners and verifiers.</text><text x="900.01" y="1103.719" fill="#000" font-size="13" textLength="375.223" font-family="Arial">Every worker is a leaf; no worker spawns another worker.</text><text x="900.01" y="1118.852" fill="#000" font-size="13" textLength="486.027" font-family="Arial">Codex uses fork_turns="none"; other hosts need equivalent fresh context.</text><text x="900.01" y="1133.985" fill="#000" font-size="13" textLength="566.75" font-family="Arial">All active roles count against actual host capacity; main + one worker needs two slots.</text><text x="900.01" y="1149.118" fill="#000" font-size="13" textLength="587.818" font-family="Arial">Dependent Tickets may prepare read-only; writes wait for prerequisite independent PASS.</text><text x="900.01" y="1164.25" fill="#000" font-size="13" textLength="442.673" font-family="Arial">Batch checkpoints preserve accepted state and all failure evidence.</text></g><g class="entity" data-qualified-name="GMN60" id="ent0061" data-source-line="78"><path d="M574.04,1650.499 L574.04,1681.769 L539.08,1685.769 L574.04,1689.769 L574.04,1721.031 A0,0 0 0 0 574.04,1721.031 L1114.792,1721.031 A0,0 0 0 0 1114.792,1721.031 L1114.792,1660.499 L1104.792,1650.499 L574.04,1650.499 A0,0 0 0 0 574.04,1650.499" style="stroke:#000;stroke-width:1;" fill="#FFF"/><path d="M1104.792,1650.499 L1104.792,1660.499 L1114.792,1660.499 L1104.792,1650.499" style="stroke:#000;stroke-width:1;" fill="#FFF"/><text x="580.04" y="1667.566" fill="#000" font-size="13" textLength="466.146" font-family="Arial">Normally a separate fresh verifier checks the entire current Plan scope.</text><text x="580.04" y="1682.699" fill="#000" font-size="13" textLength="519.752" font-family="Arial">One new Sol/high check may cover both gates only for one Ticket with identical</text><text x="580.04" y="1697.832" fill="#000" font-size="13" textLength="410.611" font-family="Arial">scope, artifact/version, configuration, and deployment surface.</text><text x="580.04" y="1712.965" fill="#000" font-size="13" textLength="351.514" font-family="Arial">Never reuse a verifier after scope or surface changes.</text></g><!--link *start* to persisted--><g class="link" data-entity-1="ent0021" data-entity-2="ent0001" id="lnk22" data-source-line="29" data-link-type="dependency"><path d="M907.42,103.229 C907.42,121.469 907.42,157.269 907.42,183.699" style="stroke:#000;stroke-width:1;" fill="none" id="*start*-to-persisted"/><polygon points="907.42,188.699,911.42,179.699,907.42,183.699,903.42,179.699,907.42,188.699" fill="#000" style="stroke:#000;stroke-width:1;stroke-linejoin:miter;stroke-miterlimit:10;"/></g><!--link persisted to branch--><g class="link" data-entity-1="ent0001" data-entity-2="ent0002" id="lnk23" data-source-line="30" data-link-type="dependency"><path d="M907.42,239.529 C907.42,265.219 907.42,300.439 907.42,326.039" style="stroke:#000;stroke-width:1;" fill="none" id="persisted-to-branch"/><polygon points="907.42,331.039,911.42,322.039,907.42,326.039,903.42,322.039,907.42,331.039" fill="#000" style="stroke:#000;stroke-width:1;stroke-linejoin:miter;stroke-miterlimit:10;"/></g><!--link branch to select--><g class="link" data-entity-1="ent0002" data-entity-2="ent0003" id="lnk24" data-source-line="31" data-link-type="dependency"><path d="M907.42,381.619 C907.42,399.519 907.42,418.729 907.42,436.879" style="stroke:#000;stroke-width:1;" fill="none" id="branch-to-select"/><polygon points="907.42,441.879,911.42,432.879,907.42,436.879,903.42,432.879,907.42,441.879" fill="#000" style="stroke:#000;stroke-width:1;stroke-linejoin:miter;stroke-miterlimit:10;"/></g><!--link select to ticket_owner--><g class="link" data-entity-1="ent0003" data-entity-2="ent0004" id="lnk25" data-source-line="32" data-link-type="dependency"><path d="M763.67,495.099 C750.39,502.669 738.53,512.359 729.42,524.739 C719.73,537.889 719.596,551.434 722.856,566.404" style="stroke:#000;stroke-width:1;" fill="none" id="select-to-ticket_owner"/><polygon points="723.92,571.289,725.913,561.644,722.856,566.404,718.097,563.347,723.92,571.289" fill="#000" style="stroke:#000;stroke-width:1;stroke-linejoin:miter;stroke-miterlimit:10;"/><text x="730.42" y="537.806" fill="#000" font-size="13" textLength="309.448" font-family="Arial">fresh independent context + capacity available</text></g><!--link select to blocked--><g class="link" data-entity-1="ent0003" data-entity-2="ent0019" id="lnk26" data-source-line="33" data-link-type="dependency"><path d="M997.03,495.149 C1014.03,502.799 1030.75,512.509 1044.42,524.739 C1058.45,537.289 1066.467,551.5 1072.797,566.79" style="stroke:#000;stroke-width:1;" fill="none" id="select-to-blocked"/><polygon points="1074.71,571.409,1074.963,561.564,1072.797,566.79,1067.572,564.624,1074.71,571.409" fill="#000" style="stroke:#000;stroke-width:1;stroke-linejoin:miter;stroke-miterlimit:10;"/><text x="1059.92" y="537.806" fill="#000" font-size="13" textLength="75.156" font-family="Arial">unavailable</text></g><!--link blocked to select--><g class="link" data-entity-1="ent0019" data-entity-2="ent0003" id="lnk27" data-source-line="34" data-link-type="dependency"><path d="M1126.3,571.239 C1143.6,557.589 1156.87,540.429 1144.42,524.739 C1133.06,510.419 1107.192,500.592 1071.462,492.362" style="stroke:#000;stroke-width:1;" fill="none" id="blocked-to-select"/><polygon points="1066.59,491.239,1074.463,497.157,1071.462,492.362,1076.258,489.362,1066.59,491.239" fill="#000" style="stroke:#000;stroke-width:1;stroke-linejoin:miter;stroke-miterlimit:10;"/><text x="1150.28" y="537.806" fill="#000" font-size="13" textLength="122.104" font-family="Arial">capability restored</text></g><!--link ticket_owner to implement--><g class="link" data-entity-1="ent0004" data-entity-2="ent0005" id="lnk28" data-source-line="35" data-link-type="dependency"><path d="M730.83,624.629 C727.76,673.929 721.381,776.519 718.311,825.729" style="stroke:#000;stroke-width:1;" fill="none" id="ticket_owner-to-implement"/><polygon points="718,830.719,722.553,821.986,718.311,825.729,714.568,821.488,718,830.719" fill="#000" style="stroke:#000;stroke-width:1;stroke-linejoin:miter;stroke-miterlimit:10;"/></g><!--link ticket_owner to module_helpers--><g class="link" data-entity-1="ent0004" data-entity-2="ent0006" id="lnk29" data-source-line="36" data-link-type="dependency"><path d="M763.6,624.649 C780.99,638.719 803.16,656.309 823.42,671.329 C836.84,681.289 847.728,688.98 861.088,698.15" style="stroke:#000;stroke-width:1;" fill="none" id="ticket_owner-to-module_helpers"/><polygon points="865.21,700.979,860.053,692.588,861.088,698.15,855.526,699.184,865.21,700.979" fill="#000" style="stroke:#000;stroke-width:1;stroke-linejoin:miter;stroke-miterlimit:10;"/><text x="824.42" y="667.396" fill="#000" font-size="13" textLength="230.064" font-family="Arial">optional safe independent modules</text></g><!--link module_helpers to implement--><g class="link" data-entity-1="ent0006" data-entity-2="ent0005" id="lnk30" data-source-line="37" data-link-type="dependency"><path d="M811.51,754.409 C793.72,762.059 776.08,771.759 761.42,783.919 C746.4,796.389 737.137,810.743 729.517,826.063" style="stroke:#000;stroke-width:1;" fill="none" id="module_helpers-to-implement"/><polygon points="727.29,830.539,734.88,824.263,729.517,826.063,727.717,820.7,727.29,830.539" fill="#000" style="stroke:#000;stroke-width:1;stroke-linejoin:miter;stroke-miterlimit:10;"/><text x="762.42" y="796.986" fill="#000" font-size="13" textLength="170.606" font-family="Arial">integrate isolated patches</text></g><!--link implement to developed--><g class="link" data-entity-1="ent0005" data-entity-2="ent0007" id="lnk31" data-source-line="38" data-link-type="dependency"><path d="M716.42,883.779 C716.42,906.119 716.42,933.339 716.42,955.279" style="stroke:#000;stroke-width:1;" fill="none" id="implement-to-developed"/><polygon points="716.42,960.279,720.42,951.279,716.42,955.279,712.42,951.279,716.42,960.279" fill="#000" style="stroke:#000;stroke-width:1;stroke-linejoin:miter;stroke-miterlimit:10;"/></g><!--link developed to verify--><g class="link" data-entity-1="ent0007" data-entity-2="ent0008" id="lnk32" data-source-line="39" data-link-type="dependency"><path d="M716.42,1010.859 C716.42,1034.759 716.42,1066.079 716.42,1090.389" style="stroke:#000;stroke-width:1;" fill="none" id="developed-to-verify"/><polygon points="716.42,1095.389,720.42,1086.389,716.42,1090.389,712.42,1086.389,716.42,1095.389" fill="#000" style="stroke:#000;stroke-width:1;stroke-linejoin:miter;stroke-miterlimit:10;"/></g><!--link verify to verify_blocked--><g class="link" data-entity-1="ent0008" data-entity-2="ent0020" id="lnk33" data-source-line="40" data-link-type="dependency"><path d="M734.77,1148.549 C750.94,1169.699 776.12,1199.359 803.42,1219.309 C819.19,1230.839 833.201,1238.673 851.011,1246.803" style="stroke:#000;stroke-width:1;" fill="none" id="verify-to-verify_blocked"/><polygon points="855.56,1248.879,849.034,1241.503,851.011,1246.803,845.712,1248.781,855.56,1248.879" fill="#000" style="stroke:#000;stroke-width:1;stroke-linejoin:miter;stroke-miterlimit:10;"/><text x="804.42" y="1215.376" fill="#000" font-size="13" textLength="119.564" font-family="Arial">checks cannot run</text></g><!--link verify_blocked to verify--><g class="link" data-entity-1="ent0020" data-entity-2="ent0008" id="lnk34" data-source-line="41" data-link-type="dependency"><path d="M933.65,1249.059 C936.8,1234.169 937.72,1215.729 928.42,1202.309 C920.37,1190.709 859.27,1168.66 803.06,1150.19" style="stroke:#000;stroke-width:1;" fill="none" id="verify_blocked-to-verify"/><polygon points="798.31,1148.629,805.612,1155.239,803.06,1150.19,808.109,1147.639,798.31,1148.629" fill="#000" style="stroke:#000;stroke-width:1;stroke-linejoin:miter;stroke-miterlimit:10;"/><text x="935.82" y="1215.376" fill="#000" font-size="13" textLength="97.881" font-family="Arial">cause resolved</text></g><!--link verify to accepted--><g class="link" data-entity-1="ent0008" data-entity-2="ent0009" id="lnk35" data-source-line="42" data-link-type="dependency"><path d="M681.8,1148.669 C665.45,1162.699 647.2,1181.449 636.42,1202.309 C628.77,1217.119 626.175,1230.723 625.105,1245.333" style="stroke:#000;stroke-width:1;" fill="none" id="verify-to-accepted"/><polygon points="624.74,1250.319,629.387,1241.636,625.105,1245.333,621.408,1241.051,624.74,1250.319" fill="#000" style="stroke:#000;stroke-width:1;stroke-linejoin:miter;stroke-miterlimit:10;"/><text x="637.42" y="1215.376" fill="#000" font-size="13" textLength="123.792" font-family="Arial">evidence complete</text></g><!--link verify to implement--><g class="link" data-entity-1="ent0008" data-entity-2="ent0005" id="lnk36" data-source-line="43" data-link-type="dependency"><path d="M573.55,1108.529 C441.16,1091.239 274.33,1051.109 343.42,960.519 C370.14,925.479 462.6,900.423 551.15,883.403" style="stroke:#000;stroke-width:1;" fill="none" id="verify-to-implement"/><polygon points="556.06,882.459,546.467,880.23,551.15,883.403,547.977,888.086,556.06,882.459" fill="#000" style="stroke:#000;stroke-width:1;stroke-linejoin:miter;stroke-miterlimit:10;"/><text x="380.665" y="982.586" fill="#000" font-size="13" textLength="188.386" font-family="Arial">FAIL: implementation repairs</text><text x="344.42" y="997.719" fill="#000" font-size="13" textLength="260.876" font-family="Arial">then new verifier; retain failed evidence</text></g><!--link accepted to more--><g class="link" data-entity-1="ent0009" data-entity-2="ent0010" id="lnk37" data-source-line="44" data-link-type="dependency"><path d="M624.42,1300.899 C624.42,1326.779 624.42,1362.519 624.42,1388.459" style="stroke:#000;stroke-width:1;" fill="none" id="accepted-to-more"/><polygon points="624.42,1393.459,628.42,1384.459,624.42,1388.459,620.42,1384.459,624.42,1393.459" fill="#000" style="stroke:#000;stroke-width:1;stroke-linejoin:miter;stroke-miterlimit:10;"/><text x="625.42" y="1352.476" fill="#000" font-size="13" textLength="166.385" font-family="Arial">Ticket evidence accepted</text></g><!--link more to select--><g class="link" data-entity-1="ent0010" data-entity-2="ent0003" id="lnk38" data-source-line="45" data-link-type="dependency"><path d="M682.85,1413.009 C808.85,1402.249 1096.22,1376.469 1113.42,1363.909 C1176.91,1317.529 1121.25,1247.749 1185.42,1202.309 C1253.11,1154.389 1501.18,1233.269 1557.42,1172.309 C1587.8,1139.389 1588.15,1104.109 1557.42,1071.519 C1518.55,1030.289 1101.71,1060.749 1048.42,1041.519 C970.07,1013.239 935.03,1004.839 897.42,930.519 C880.47,897.019 951.85,807.059 981.42,783.919 C1013.63,758.719 1037.22,780.369 1068.42,753.919 C1106.83,721.369 1085.22,688.259 1122.42,654.329 C1147.43,631.519 1173.79,652.589 1192.42,624.329 C1219.47,583.309 1187.49,548.379 1144.42,524.739 C1120.53,511.619 1098.439,502.978 1071.569,495.328" style="stroke:#000;stroke-width:1;" fill="none" id="more-to-select"/><polygon points="1066.76,493.959,1074.321,500.271,1071.569,495.328,1076.511,492.577,1066.76,493.959" fill="#000" style="stroke:#000;stroke-width:1;stroke-linejoin:miter;stroke-miterlimit:10;"/><text x="898.42" y="926.586" fill="#000" font-size="13" textLength="285.733" font-family="Arial">yes; fresh owner and verifier for next Ticket</text></g><!--link more to local--><g class="link" data-entity-1="ent0010" data-entity-2="ent0011" id="lnk39" data-source-line="46" data-link-type="dependency"><path d="M624.42,1444.259 C624.42,1466.189 624.42,1493.319 624.42,1515.629" style="stroke:#000;stroke-width:1;" fill="none" id="more-to-local"/><polygon points="624.42,1520.629,628.42,1511.629,624.42,1515.629,620.42,1511.629,624.42,1520.629" fill="#000" style="stroke:#000;stroke-width:1;stroke-linejoin:miter;stroke-miterlimit:10;"/><text x="625.42" y="1486.976" fill="#000" font-size="13" textLength="16.193" font-family="Arial">no</text></g><!--link local to *end*--><g class="link" data-entity-1="ent0011" data-entity-2="ent0040" id="lnk41" data-source-line="47" data-link-type="dependency"><path d="M776.04,1556.839 C936.69,1570.269 1167.42,1603.659 1167.42,1684.769 C1167.42,1684.769 1167.42,1684.769 1167.42,2305.219 C1167.42,2374.879 907.459,2407.94 849.499,2414.47" style="stroke:#000;stroke-width:1;" fill="none" id="local-to-*end*"/><polygon points="844.53,2415.029,853.921,2417.997,849.499,2414.47,853.026,2410.047,844.53,2415.029" fill="#000" style="stroke:#000;stroke-width:1;stroke-linejoin:miter;stroke-miterlimit:10;"/><text x="1168.42" y="2023.286" fill="#000" font-size="13" textLength="169.958" font-family="Arial">stop locally; not BLOCKED</text></g><!--link local to expand--><g class="link" data-entity-1="ent0011" data-entity-2="ent0012" id="lnk42" data-source-line="48" data-link-type="dependency"><path d="M692.37,1520.449 C729.77,1506.419 777.04,1488.909 819.42,1473.909 C924.22,1436.799 950.69,1428.269 1056.42,1393.909 C1098.93,1380.089 1117.1,1391.309 1152.42,1363.909 C1219.15,1312.139 1180.51,1246.609 1252.42,1202.309 C1317.38,1162.299 1542.88,1228.569 1594.42,1172.309 C1624.68,1139.279 1625.06,1104.199 1594.42,1071.519 C1523.6,995.979 1200.24,1117.059 1129.42,1041.519 C1086.57,995.819 1219.97,967.629 1188.42,913.519 C1174.78,890.129 1158.39,897.829 1135.42,883.519 C928.21,754.469 970.93,843.449 1014.42,783.919 C1040.29,748.509 1072.04,778.409 1108.42,753.919 C1156.22,721.749 1151.88,696.239 1191.42,654.329 C1204.8,640.149 1210.64,639.049 1223.42,624.329 C1284.49,553.989 1305.46,560.819 1281.42,524.739 C1147.64,323.979 977.32,494.079 750.42,412.139 C727.58,403.889 716.71,402.639 705.42,381.139 C695.08,361.469 693.55,349.929 705.42,331.139 C721.98,304.919 751.86,327.359 768.42,301.139 C776.01,289.119 777.06,280.429 768.42,269.139 C737.35,228.569 706.28,254.119 657.42,239.139 C532.14,200.749 392.922,151.551 309.372,121.321" style="stroke:#000;stroke-width:1;" fill="none" id="local-to-expand"/><polygon points="304.67,119.619,311.772,126.443,309.372,121.321,314.494,118.92,304.67,119.619" fill="#000" style="stroke:#000;stroke-width:1;stroke-linejoin:miter;stroke-miterlimit:10;"/><text x="1015.42" y="796.986" fill="#000" font-size="13" textLength="202.135" font-family="Arial">same-requirement supplement</text></g><!--link publish to expand--><g class="link" data-entity-1="ent0015" data-entity-2="ent0012" id="lnk43" data-source-line="49" data-link-type="dependency"><path d="M661.51,1927.129 C770.44,1896.399 950.95,1840.039 1096.42,1768.029 C1446.25,1594.879 1733.56,1448.259 1631.42,1071.519 C1401.09,221.959 1385.84,522.229 1252.42,442.139 C1163.25,388.619 857,459.329 788.42,381.139 C764.82,354.239 792.22,336.539 797.42,301.139 C799.48,287.069 805.3,280.979 797.42,269.139 C771.93,230.829 650.05,203.779 606.42,189.139 C522.99,161.149 431.56,137.831 357.85,120.711" style="stroke:#000;stroke-width:1;" fill="none" id="publish-to-expand"/><polygon points="352.98,119.579,360.842,125.512,357.85,120.711,362.652,117.719,352.98,119.579" fill="#000" style="stroke:#000;stroke-width:1;stroke-linejoin:miter;stroke-miterlimit:10;"/></g><!--link expand to select--><g class="link" data-entity-1="ent0012" data-entity-2="ent0003" id="lnk44" data-source-line="50" data-link-type="dependency"><path d="M256.98,119.609 C314.08,182.709 471.95,344.859 642.42,412.139 C675.75,425.299 707.859,434.436 743.359,442.316" style="stroke:#000;stroke-width:1;" fill="none" id="expand-to-select"/><polygon points="748.24,443.399,740.321,437.544,743.359,442.316,738.587,445.354,748.24,443.399" fill="#000" style="stroke:#000;stroke-width:1;stroke-linejoin:miter;stroke-miterlimit:10;"/><text x="495.86" y="282.206" fill="#000" font-size="13" textLength="221.317" font-family="Arial">same branch/PR; Plan in_progress</text><text x="453.47" y="297.339" fill="#000" font-size="13" textLength="306.097" font-family="Arial">retain evidence; invalidate impacted readiness</text></g><!--link local to final_verify--><g class="link" data-entity-1="ent0011" data-entity-2="ent0013" id="lnk45" data-source-line="51" data-link-type="dependency"><path d="M558.77,1573.889 C496.48,1598.269 408.016,1632.877 345.716,1657.257" style="stroke:#000;stroke-width:1;" fill="none" id="local-to-final_verify"/><polygon points="341.06,1659.079,350.899,1659.525,345.716,1657.257,347.983,1652.075,341.06,1659.079" fill="#000" style="stroke:#000;stroke-width:1;stroke-linejoin:miter;stroke-miterlimit:10;"/><text x="482.18" y="1616.566" fill="#000" font-size="13" textLength="261.447" font-family="Arial">publication authorized for current scope</text></g><!--link final_verify to gate--><g class="link" data-entity-1="ent0013" data-entity-2="ent0014" id="lnk46" data-source-line="52" data-link-type="dependency"><path d="M308.15,1712.449 C339.25,1736.869 381.847,1770.292 412.907,1794.672" style="stroke:#000;stroke-width:1;" fill="none" id="final_verify-to-gate"/><polygon points="416.84,1797.759,412.23,1789.056,412.907,1794.672,407.291,1795.349,416.84,1797.759" fill="#000" style="stroke:#000;stroke-width:1;stroke-linejoin:miter;stroke-miterlimit:10;"/><text x="379" y="1764.096" fill="#000" font-size="13" textLength="33.236" font-family="Arial">PASS</text></g><!--link gate to implement--><g class="link" data-entity-1="ent0014" data-entity-2="ent0005" id="lnk47" data-source-line="53" data-link-type="dependency"><path d="M586.89,1823.039 C765.71,1819.399 1063.46,1801.089 1132.42,1721.029 C1167.27,1680.569 1147.31,1639.009 1107.42,1603.499 C1004.76,1512.129 896.91,1604.409 819.42,1490.909 C815.16,1484.669 816.3,1480.789 819.42,1473.909 C858.94,1386.699 899.69,1381.769 981.42,1331.909 C1012.42,1312.989 1029.36,1324.959 1057.42,1301.909 C1098.07,1268.509 1076.22,1229.249 1121.42,1202.309 C1197.8,1156.799 1459.95,1237.499 1520.42,1172.309 C1550.89,1139.469 1551.24,1104.019 1520.42,1071.519 C1477.24,1025.979 1015.31,1063.189 956.42,1041.519 C909.31,1024.179 802.144,933.5 749.244,887.25" style="stroke:#000;stroke-width:1;" fill="none" id="gate-to-implement"/><polygon points="745.48,883.959,749.623,892.895,749.244,887.25,754.888,886.872,745.48,883.959" fill="#000" style="stroke:#000;stroke-width:1;stroke-linejoin:miter;stroke-miterlimit:10;"/><text x="982.42" y="1344.976" fill="#000" font-size="13" textLength="196.892" font-family="Arial">affected function needs repair</text><text x="1025.422" y="1360.109" fill="#000" font-size="13" textLength="110.887" font-family="Arial">then new verifier</text></g><!--link gate to publish--><g class="link" data-entity-1="ent0014" data-entity-2="ent0015" id="lnk48" data-source-line="54" data-link-type="dependency"><path d="M472.41,1850.839 C492.47,1873.099 518.073,1901.495 538.113,1923.735" style="stroke:#000;stroke-width:1;" fill="none" id="gate-to-publish"/><polygon points="541.46,1927.449,538.407,1918.086,538.113,1923.735,532.464,1923.441,541.46,1927.449" fill="#000" style="stroke:#000;stroke-width:1;stroke-linejoin:miter;stroke-miterlimit:10;"/><text x="514.8" y="1893.696" fill="#000" font-size="13" textLength="33.236" font-family="Arial">PASS</text></g><!--link publish to *end*--><g class="link" data-entity-1="ent0015" data-entity-2="ent0040" id="lnk49" data-source-line="55" data-link-type="dependency"><path d="M725.57,1978.169 C763.58,1986.479 797.21,1997.109 811.42,2010.219 C835.7,2032.619 833.42,2048.179 833.42,2081.219 C833.42,2081.219 833.42,2081.219 833.42,2305.219 C833.42,2342.219 833.42,2381.159 833.42,2400.809" style="stroke:#000;stroke-width:1;" fill="none" id="publish-to-*end*"/><polygon points="833.42,2405.809,837.42,2396.809,833.42,2400.809,829.42,2396.809,833.42,2405.809" fill="#000" style="stroke:#000;stroke-width:1;stroke-linejoin:miter;stroke-miterlimit:10;"/><text x="834.42" y="2197.786" fill="#000" font-size="13" textLength="260.774" font-family="Arial">commit-only / push-only / PR ready stop</text></g><!--link publish to merge--><g class="link" data-entity-1="ent0015" data-entity-2="ent0016" id="lnk50" data-source-line="56" data-link-type="dependency"><path d="M562.37,1980.689 C561.52,1994.489 560.85,2011.779 561.42,2027.219 C561.78,2036.899 562.097,2042.545 562.827,2051.795" style="stroke:#000;stroke-width:1;" fill="none" id="publish-to-merge"/><polygon points="563.22,2056.779,566.5,2047.493,562.827,2051.795,558.524,2048.122,563.22,2056.779" fill="#000" style="stroke:#000;stroke-width:1;stroke-linejoin:miter;stroke-miterlimit:10;"/><text x="562.42" y="2023.286" fill="#000" font-size="13" textLength="244.874" font-family="Arial">current PR ready + merge authorized</text></g><!--link merge to cleanup--><g class="link" data-entity-1="ent0016" data-entity-2="ent0017" id="lnk51" data-source-line="57" data-link-type="dependency"><path d="M568.78,2107.679 C571.26,2125.629 573.92,2144.956 576.38,2162.886" style="stroke:#000;stroke-width:1;" fill="none" id="merge-to-cleanup"/><polygon points="577.06,2167.839,579.8,2158.379,576.38,2162.886,571.874,2159.467,577.06,2167.839" fill="#000" style="stroke:#000;stroke-width:1;stroke-linejoin:miter;stroke-miterlimit:10;"/></g><!--link cleanup to done--><g class="link" data-entity-1="ent0017" data-entity-2="ent0018" id="lnk52" data-source-line="58" data-link-type="dependency"><path d="M581.09,2218.679 C581.59,2236.629 582.111,2255.911 582.611,2273.841" style="stroke:#000;stroke-width:1;" fill="none" id="cleanup-to-done"/><polygon points="582.75,2278.839,586.498,2269.731,582.611,2273.841,578.501,2269.954,582.75,2278.839" fill="#000" style="stroke:#000;stroke-width:1;stroke-linejoin:miter;stroke-miterlimit:10;"/></g><!--link done to *end*--><g class="link" data-entity-1="ent0018" data-entity-2="ent0040" id="lnk53" data-source-line="59" data-link-type="dependency"><path d="M575.18,2329.659 C571.74,2344.789 570.69,2363.649 581.42,2376.219 C613.13,2413.359 772.17,2416.192 817.05,2416.262" style="stroke:#000;stroke-width:1;" fill="none" id="done-to-*end*"/><polygon points="822.05,2416.269,813.056,2412.255,817.05,2416.262,813.044,2420.255,822.05,2416.269" fill="#000" style="stroke:#000;stroke-width:1;stroke-linejoin:miter;stroke-miterlimit:10;"/><text x="582.42" y="2372.286" fill="#000" font-size="13" textLength="224.041" font-family="Arial">later functionality uses a new Plan</text></g><?plantuml-src TLVDSjis4BxpAL0VAqkwMzDs72VkPEeahkssXpZZWKXGH0K1B01ALazzY3vXdwJVue-KurmicbZipxUxtow_yvtO2TOhBdNbJS-yOMlZlTcnHbfHUsbqvRPIzzpo7NCTRyn1wWrhkN9YSjA8bW_ANnljFt9elBIIgwhoqYl1ReLrqddHi5l5DLko1rblXMStiXNriOR4V__yowwjS1txmzWjnC_PVSTjll76SbrtLUKyzuATXNSpLdTIDLdNU-S6uLYVJPqnFlaltvmgNGUbZ2F8lGZYyKsM_G1Cc1CAA3Z4rmlT25qVvrRmvfZCFkghJjJRyLZ2XncJpYXEyPg3XWkTx8F-g2phZ_4czuFWexuJ7bOTgu6ZUFPmpXhd6BAK18CU7nwVmfsixHFzm-IkLqYeXiUdRjwOcYiW1cVTYabetrYwjnQjiQBuxrqmKDGKxJrL0ZH8NKJdEzCCo5qd5E7ygA_bCq8ctRRbzIaG1wJLzVGs68XNdzBLREMjs0jbUZBChWpvu6DYcdWmoQEWiiDJ6q2yDshPoKr1So-iR2K1UgaKSxNGt4g3m0cKkT7g6DG6iUD9lcjZR2CrzyQoFuTcWoYIJh6NbE3e4AzhqK_gwWE160NTJob2A_9f13yvrSGiz0P0FUgFnkvmvj1xFVLLUBtArOpxHuQuTL2fI4tMUTaqpA7JK8v_3MZL09gh8PnpkXDs8nxrRtr35qB9X_CbvV1vEItPvPuh2J7aE5WIpptN9RXhIPaF2cBSw18eVf63Z3aRj1AeMQF5F4FtZ2QRH-Tgmt5SKwoyxvLC1T6IZQVJX0IBkLJX6khfGJZFVXtWhJ-odo7rgBzAMoDgP2ggtK2a83RupbZvDsN0x7RIWuZw0PulOsotTu4BZ4OftnCNSfyw5ZVMPj0Djx5k-c6jf1k9We0kEaokaO3_MDfKp9bpPYnbPGVdWp18aEkXp-9NohYaSfRhAdO2OCr2Rsu-NVtoxYqLKL0qvnig0b2pMlDw6oaDHRCTw_JtaAGwmbdktuaQyB6Q3p0wGvEuWOO2bUAaJvwohkhpzr_OVFxZX5xB4vjZG6YS9IvD0UUtcG73JtaxvJDsaUffmZI53i7v72H2oUTxBXLVAr6KaT7e8NGCUXJ8R-UVjO4xso_54GYImhKCzGIpg1z4S-9FTdBanDDZ79so6PIQJ9UEj-8aaYZggXTNvbC3K30IT67GddiGXwj6iUpPo8xbgPobZee_mSnfCWc1C1G0XDR6CpleweN85BUaw28L2o0pQW_BsK0oc_aHWfatgUa2enVPYTffxDUNxsyknZUnLYt8HjAGmIZKJ8j3uHiYTHgQg7kfO37RgueFsIcYPEX_mUSZbuVpLulaA30xObd6h8CTHy83sy8Zb6VKdFGaeu6qeKARAZvI3gY1BWBfntDrN342FtLabfou4XcPBdt5-KEV2pFnqYiNgtJ_rUX8PUhNvUtTYYNUVUgjsI1cW9uGpf3H0f4cXg14yK2HD5kbXdnsFo4mfNPO2quc1k8Z9HE8zM1j6MFLoRsiZ0WTIculx--hyFojAk9j6vcx7NHWTQH8D2uLqYjrbDGbEndAPAeWMv8NHqZO9T8SoS-O0N7teloEDtCHXc5nKM8jqhDqD69InHVvPXuHwNTiVne9z6VY7L66BQ77SOb-nU8IOgOCLnKg3XsCjGdhPviBvVxRzUNO4ASMhQDmSHFsWbZqgufZ8U5bdIKeAAKStn7EI_Y1jQJZUubtUPOkglSJPfpOX9lgm8zX_x5-ulDv1OBJx8357q31_mvHndA5SphWrImgQAHs4Yz3J6JuqCN1o-AyZ1ywy1UU9fATzhexQNQtgDxX-HWMMbgu2L8afAK6pY-Xvg1TSJ2-NLHN1djNJ0EWsJxvmMhtmvb6wivMBCfsnY5yAbL6UA3BmaWFxgGfkAXegOsVBSmQJ1ES393Y6_fse8y6Zmqfg2hpSXKZdj5QbjsC3U4FXZbbF29xMvAHLWvSEhAUMiQASNTUiOEL7cOF74iKPHaY8NrE-jDnHyspgDuGgfErrz459-n-95yM5nI26dGOk7o0pSmutyxfoU8OjscaaeFTNjzEqxIZ4eQ3IFtOYML3NbIVW18LNVcm2DS27BM1Blf8xW8PkR7M2TfK_mU9Ot8TkmBjxAJrdA6O9RwC_79FwvBHvvJILcw6kD-UX_01dZB7r7hXGsfHVHHaqmeQkNoCXRVKvN6lXlqa3b-vneVBYDd_?></g></svg>