<svg xmlns="http://www.w3.org/2000/svg" xmlns:xlink="http://www.w3.org/1999/xlink" contentStyleType="text/css" data-diagram-type="ACTIVITY" height="1350px" preserveAspectRatio="none" style="width:1085px;height:1350px;background:#FFFFFF;" version="1.1" viewBox="0 0 1085 1350" width="1085px" zoomAndPan="magnify"><?plantuml 1.2026.6?><defs/><g><g class="title" data-source-line="5"><text fill="#000000" font-family="Arial" font-size="22" font-weight="700" lengthAdjust="spacing" textLength="789.3789" x="146.9805" y="35.4209">install-all.sh &#8212; Destination, Ownership, Update and Retirement</text></g><ellipse cx="279.9647" cy="66.6094" fill="#FFFFFF" rx="10" ry="10" style="stroke:#000000;stroke-width:1;"/><rect fill="#FFFFFF" height="33.9688" rx="12.5" ry="12.5" style="stroke:#000000;stroke-width:1;" width="323.2871" x="118.3212" y="96.6094"/><text fill="#000000" font-family="Arial" font-size="12" lengthAdjust="spacing" textLength="303.2871" x="128.3212" y="117.748">Parse target / dest / update / adopt-legacy options</text><polygon fill="#FFFFFF" points="217.3995,150.5781,342.5299,150.5781,354.5299,162.5781,342.5299,174.5781,217.3995,174.5781,205.3995,162.5781,217.3995,150.5781" style="stroke:#000000;stroke-width:1;stroke-linejoin:miter;stroke-miterlimit:10;"/><text fill="#000000" font-family="Arial" font-size="11" lengthAdjust="spacing" textLength="125.1304" x="217.3995" y="166.3862">Explicit dest provided?</text><text fill="#000000" font-family="Arial" font-size="11" lengthAdjust="spacing" textLength="19.0083" x="186.3912" y="159.9839">yes</text><text fill="#000000" font-family="Arial" font-size="11" lengthAdjust="spacing" textLength="13.7017" x="354.5299" y="159.9839">no</text><rect fill="#FFFFFF" height="33.9688" rx="12.5" ry="12.5" style="stroke:#000000;stroke-width:1;" width="193.959" x="53.3314" y="184.5781"/><text fill="#000000" font-family="Arial" font-size="12" lengthAdjust="spacing" textLength="173.959" x="63.3314" y="205.7168">Use explicit skills destination</text><rect fill="#FFFFFF" height="61.9063" rx="12.5" ry="12.5" style="stroke:#000000;stroke-width:1;" width="284.6563" x="267.2904" y="184.5781"/><text fill="#000000" font-family="Arial" font-size="12" lengthAdjust="spacing" textLength="133.6816" x="277.2904" y="205.7168">Resolve target default</text><text fill="#000000" font-family="Arial" font-size="12" lengthAdjust="spacing" textLength="264.6563" x="277.2904" y="219.6855">Codex: CODEX_HOME or HOME/.codex/skills</text><text fill="#000000" font-family="Arial" font-size="12" lengthAdjust="spacing" textLength="167.1797" x="277.2904" y="233.6543">Claude: HOME/.claude/skills</text><polygon fill="#FFFFFF" points="279.9647,252.4844,291.9647,264.4844,279.9647,276.4844,267.9647,264.4844,279.9647,252.4844" style="stroke:#000000;stroke-width:1;stroke-linejoin:miter;stroke-miterlimit:10;"/><rect fill="#FFFFFF" height="33.9688" rx="12.5" ry="12.5" style="stroke:#000000;stroke-width:1;" width="131.2578" x="214.3358" y="344.8867"/><text fill="#000000" font-family="Arial" font-size="12" lengthAdjust="spacing" textLength="111.2578" x="224.3358" y="366.0254">Refuse installation</text><ellipse cx="279.9647" cy="418.3711" fill="none" rx="11" ry="11" style="stroke:#000000;stroke-width:1;"/><ellipse cx="279.9647" cy="418.3711" fill="#FFFFFF" rx="6" ry="6" style="stroke:#000000;stroke-width:1;"/><polygon fill="#FFFFFF" points="191.6317,296.4844,368.2977,296.4844,380.2977,308.4844,368.2977,320.4844,191.6317,320.4844,179.6317,308.4844,191.6317,296.4844" style="stroke:#000000;stroke-width:1;stroke-linejoin:miter;stroke-miterlimit:10;"/><text fill="#000000" font-family="Arial" font-size="11" lengthAdjust="spacing" textLength="19.0083" x="283.9647" y="330.6948">yes</text><text fill="#000000" font-family="Arial" font-size="11" lengthAdjust="spacing" textLength="176.666" x="191.6317" y="312.2925">Destination is inside repository?</text><rect fill="#FFFFFF" height="33.9688" rx="12.5" ry="12.5" style="stroke:#000000;stroke-width:1;" width="212.123" x="173.9032" y="519.7734"/><text fill="#000000" font-family="Arial" font-size="12" lengthAdjust="spacing" textLength="192.123" x="183.9032" y="540.9121">Inspect retired skill destinations</text><polygon fill="#FFFFFF" points="190.6139,573.7422,369.3156,573.7422,381.3156,585.7422,369.3156,597.7422,190.6139,597.7422,178.6139,585.7422,190.6139,573.7422" style="stroke:#000000;stroke-width:1;stroke-linejoin:miter;stroke-miterlimit:10;"/><text fill="#000000" font-family="Arial" font-size="11" lengthAdjust="spacing" textLength="178.7017" x="190.6139" y="589.5503">Retired destination is managed?</text><text fill="#000000" font-family="Arial" font-size="11" lengthAdjust="spacing" textLength="19.0083" x="159.6056" y="583.1479">yes</text><text fill="#000000" font-family="Arial" font-size="11" lengthAdjust="spacing" textLength="13.7017" x="381.3156" y="583.1479">no</text><rect fill="#FFFFFF" height="33.9688" rx="12.5" ry="12.5" style="stroke:#000000;stroke-width:1;" width="184.3906" x="11.2091" y="607.7422"/><text fill="#000000" font-family="Arial" font-size="12" lengthAdjust="spacing" textLength="164.3906" x="21.2091" y="628.8809">Remove retired destination</text><polygon fill="#FFFFFF" points="393.6564,607.7422,519.3937,607.7422,531.3937,619.7422,519.3937,631.7422,393.6564,631.7422,381.6564,619.7422,393.6564,607.7422" style="stroke:#000000;stroke-width:1;stroke-linejoin:miter;stroke-miterlimit:10;"/><text fill="#000000" font-family="Arial" font-size="11" lengthAdjust="spacing" textLength="125.7373" x="393.6564" y="623.5503">Adopt legacy enabled?</text><text fill="#000000" font-family="Arial" font-size="11" lengthAdjust="spacing" textLength="19.0083" x="362.6481" y="617.1479">yes</text><text fill="#000000" font-family="Arial" font-size="11" lengthAdjust="spacing" textLength="13.7017" x="531.3937" y="617.1479">no</text><rect fill="#FFFFFF" height="47.9375" rx="12.5" ry="12.5" style="stroke:#000000;stroke-width:1;" width="210.5352" x="225.5997" y="641.7422"/><text fill="#000000" font-family="Arial" font-size="12" lengthAdjust="spacing" textLength="190.5352" x="235.5997" y="662.8809">Move retired legacy destination</text><text fill="#000000" font-family="Arial" font-size="12" lengthAdjust="spacing" textLength="134.7773" x="235.5997" y="676.8496">to recoverable backup</text><rect fill="#FFFFFF" height="33.9688" rx="12.5" ry="12.5" style="stroke:#000000;stroke-width:1;" width="252.0957" x="456.1349" y="641.7422"/><text fill="#000000" font-family="Arial" font-size="12" lengthAdjust="spacing" textLength="232.0957" x="466.1349" y="662.8809">Preserve unverified retired destination</text><polygon fill="#FFFFFF" points="456.525,695.6797,468.525,707.6797,456.525,719.6797,444.525,707.6797,456.525,695.6797" style="stroke:#000000;stroke-width:1;stroke-linejoin:miter;stroke-miterlimit:10;"/><polygon fill="#FFFFFF" points="279.9647,725.6797,291.9647,737.6797,279.9647,749.6797,267.9647,737.6797,279.9647,725.6797" style="stroke:#000000;stroke-width:1;stroke-linejoin:miter;stroke-miterlimit:10;"/><polygon fill="#FFFFFF" points="233.2443,471.3711,326.6852,471.3711,338.6852,483.3711,326.6852,495.3711,233.2443,495.3711,221.2443,483.3711,233.2443,471.3711" style="stroke:#000000;stroke-width:1;stroke-linejoin:miter;stroke-miterlimit:10;"/><text fill="#000000" font-family="Arial" font-size="11" lengthAdjust="spacing" textLength="19.0083" x="283.9647" y="505.5815">yes</text><text fill="#000000" font-family="Arial" font-size="11" lengthAdjust="spacing" textLength="93.4409" x="233.2443" y="487.1792">Update enabled?</text><polygon fill="#FFFFFF" points="279.9647,769.6797,291.9647,781.6797,279.9647,793.6797,267.9647,781.6797,279.9647,769.6797" style="stroke:#000000;stroke-width:1;stroke-linejoin:miter;stroke-miterlimit:10;"/><rect fill="#FFFFFF" height="33.9688" rx="12.5" ry="12.5" style="stroke:#000000;stroke-width:1;" width="218.0586" x="170.9354" y="813.6797"/><text fill="#000000" font-family="Arial" font-size="12" lengthAdjust="spacing" textLength="198.0586" x="180.9354" y="834.8184">For each of 13 managed bundles</text><polygon fill="#FFFFFF" points="227.6825,867.6484,332.2469,867.6484,344.2469,879.6484,332.2469,891.6484,227.6825,891.6484,215.6825,879.6484,227.6825,867.6484" style="stroke:#000000;stroke-width:1;stroke-linejoin:miter;stroke-miterlimit:10;"/><text fill="#000000" font-family="Arial" font-size="11" lengthAdjust="spacing" textLength="104.5645" x="227.6825" y="883.4565">Destination exists?</text><text fill="#000000" font-family="Arial" font-size="11" lengthAdjust="spacing" textLength="13.7017" x="201.9808" y="877.0542">no</text><text fill="#000000" font-family="Arial" font-size="11" lengthAdjust="spacing" textLength="19.0083" x="344.2469" y="877.0542">yes</text><rect fill="#FFFFFF" height="33.9688" rx="12.5" ry="12.5" style="stroke:#000000;stroke-width:1;" width="95.416" x="45.7813" y="901.6484"/><text fill="#000000" font-family="Arial" font-size="12" lengthAdjust="spacing" textLength="75.416" x="55.7813" y="922.7871">Copy bundle</text><rect fill="#FFFFFF" height="33.9688" rx="12.5" ry="12.5" style="stroke:#000000;stroke-width:1;" width="164.9785" x="11" y="970.6172"/><text fill="#000000" font-family="Arial" font-size="12" lengthAdjust="spacing" textLength="144.9785" x="21" y="991.7559">Write ownership marker</text><polygon fill="#FFFFFF" points="419.7197,901.6484,513.1606,901.6484,525.1606,913.6484,513.1606,925.6484,419.7197,925.6484,407.7197,913.6484,419.7197,901.6484" style="stroke:#000000;stroke-width:1;stroke-linejoin:miter;stroke-miterlimit:10;"/><text fill="#000000" font-family="Arial" font-size="11" lengthAdjust="spacing" textLength="93.4409" x="419.7197" y="917.4565">Update enabled?</text><text fill="#000000" font-family="Arial" font-size="11" lengthAdjust="spacing" textLength="13.7017" x="394.0181" y="911.0542">no</text><text fill="#000000" font-family="Arial" font-size="11" lengthAdjust="spacing" textLength="19.0083" x="525.1606" y="911.0542">yes</text><rect fill="#FFFFFF" height="33.9688" rx="12.5" ry="12.5" style="stroke:#000000;stroke-width:1;" width="141.6406" x="205.9785" y="935.6484"/><text fill="#000000" font-family="Arial" font-size="12" lengthAdjust="spacing" textLength="121.6406" x="215.9785" y="956.7871">Skip existing bundle</text><polygon fill="#FFFFFF" points="576.874,935.6484,735.2891,935.6484,747.2891,947.6484,735.2891,959.6484,576.874,959.6484,564.874,947.6484,576.874,935.6484" style="stroke:#000000;stroke-width:1;stroke-linejoin:miter;stroke-miterlimit:10;"/><text fill="#000000" font-family="Arial" font-size="11" lengthAdjust="spacing" textLength="158.415" x="576.874" y="951.4565">Ownership marker matches?</text><text fill="#000000" font-family="Arial" font-size="11" lengthAdjust="spacing" textLength="19.0083" x="545.8657" y="945.0542">yes</text><text fill="#000000" font-family="Arial" font-size="11" lengthAdjust="spacing" textLength="13.7017" x="747.2891" y="945.0542">no</text><rect fill="#FFFFFF" height="33.9688" rx="12.5" ry="12.5" style="stroke:#000000;stroke-width:1;" width="173.416" x="377.6191" y="969.6484"/><text fill="#000000" font-family="Arial" font-size="12" lengthAdjust="spacing" textLength="153.416" x="387.6191" y="990.7871">Replace managed bundle</text><polygon fill="#FFFFFF" points="784.9673,969.6484,910.7046,969.6484,922.7046,981.6484,910.7046,993.6484,784.9673,993.6484,772.9673,981.6484,784.9673,969.6484" style="stroke:#000000;stroke-width:1;stroke-linejoin:miter;stroke-miterlimit:10;"/><text fill="#000000" font-family="Arial" font-size="11" lengthAdjust="spacing" textLength="125.7373" x="784.9673" y="985.4565">Adopt legacy enabled?</text><text fill="#000000" font-family="Arial" font-size="11" lengthAdjust="spacing" textLength="19.0083" x="753.959" y="979.0542">yes</text><text fill="#000000" font-family="Arial" font-size="11" lengthAdjust="spacing" textLength="13.7017" x="922.7046" y="979.0542">no</text><rect fill="#FFFFFF" height="33.9688" rx="12.5" ry="12.5" style="stroke:#000000;stroke-width:1;" width="278.9492" x="581.0352" y="1003.6484"/><text fill="#000000" font-family="Arial" font-size="12" lengthAdjust="spacing" textLength="258.9492" x="591.0352" y="1024.7871">Move legacy bundle to recoverable backup</text><rect fill="#FFFFFF" height="33.9688" rx="12.5" ry="12.5" style="stroke:#000000;stroke-width:1;" width="161.5332" x="639.7432" y="1071.5859"/><text fill="#000000" font-family="Arial" font-size="12" lengthAdjust="spacing" textLength="141.5332" x="649.7432" y="1092.7246">Install managed bundle</text><rect fill="#FFFFFF" height="47.9375" rx="12.5" ry="12.5" style="stroke:#000000;stroke-width:1;" width="190.3555" x="879.9844" y="1003.6484"/><text fill="#000000" font-family="Arial" font-size="12" lengthAdjust="spacing" textLength="83.7012" x="889.9844" y="1024.7871">Preserve path</text><text fill="#000000" font-family="Arial" font-size="12" lengthAdjust="spacing" textLength="170.3555" x="889.9844" y="1038.7559">Report ownership unverified</text><polygon fill="#FFFFFF" points="847.8359,1111.5547,859.8359,1123.5547,847.8359,1135.5547,835.8359,1123.5547,847.8359,1111.5547" style="stroke:#000000;stroke-width:1;stroke-linejoin:miter;stroke-miterlimit:10;"/><polygon fill="#FFFFFF" points="656.0815,1141.5547,668.0815,1153.5547,656.0815,1165.5547,644.0815,1153.5547,656.0815,1141.5547" style="stroke:#000000;stroke-width:1;stroke-linejoin:miter;stroke-miterlimit:10;"/><polygon fill="#FFFFFF" points="466.4402,1171.5547,478.4402,1183.5547,466.4402,1195.5547,454.4402,1183.5547,466.4402,1171.5547" style="stroke:#000000;stroke-width:1;stroke-linejoin:miter;stroke-miterlimit:10;"/><polygon fill="#FFFFFF" points="279.9647,1201.5547,291.9647,1213.5547,279.9647,1225.5547,267.9647,1213.5547,279.9647,1201.5547" style="stroke:#000000;stroke-width:1;stroke-linejoin:miter;stroke-miterlimit:10;"/><rect fill="#FFFFFF" height="47.9375" rx="12.5" ry="12.5" style="stroke:#000000;stroke-width:1;" width="239.7969" x="160.0663" y="1245.5547"/><text fill="#000000" font-family="Arial" font-size="12" lengthAdjust="spacing" textLength="219.7969" x="170.0663" y="1266.6934">Report installed / skipped / migrated</text><text fill="#000000" font-family="Arial" font-size="12" lengthAdjust="spacing" textLength="148.7871" x="170.0663" y="1280.6621">and resolved destination</text><ellipse cx="279.9647" cy="1324.4922" fill="none" rx="11" ry="11" style="stroke:#000000;stroke-width:1;"/><ellipse cx="279.9647" cy="1324.4922" fill="#FFFFFF" rx="6" ry="6" style="stroke:#000000;stroke-width:1;"/><line style="stroke:#000000;stroke-width:1;" x1="279.9647" x2="279.9647" y1="76.6094" y2="96.6094"/><polygon fill="#000000" points="275.9647,86.6094,279.9647,96.6094,283.9647,86.6094,279.9647,90.6094" style="stroke:#000000;stroke-width:1;stroke-linejoin:miter;stroke-miterlimit:10;"/><line style="stroke:#000000;stroke-width:1;" x1="205.3995" x2="150.3109" y1="162.5781" y2="162.5781"/><line style="stroke:#000000;stroke-width:1;" x1="150.3109" x2="150.3109" y1="162.5781" y2="184.5781"/><polygon fill="#000000" points="146.3109,174.5781,150.3109,184.5781,154.3109,174.5781,150.3109,178.5781" style="stroke:#000000;stroke-width:1;stroke-linejoin:miter;stroke-miterlimit:10;"/><line style="stroke:#000000;stroke-width:1;" x1="354.5299" x2="409.6185" y1="162.5781" y2="162.5781"/><line style="stroke:#000000;stroke-width:1;" x1="409.6185" x2="409.6185" y1="162.5781" y2="184.5781"/><polygon fill="#000000" points="405.6185,174.5781,409.6185,184.5781,413.6185,174.5781,409.6185,178.5781" style="stroke:#000000;stroke-width:1;stroke-linejoin:miter;stroke-miterlimit:10;"/><line style="stroke:#000000;stroke-width:1;" x1="150.3109" x2="150.3109" y1="218.5469" y2="264.4844"/><line style="stroke:#000000;stroke-width:1;" x1="150.3109" x2="267.9647" y1="264.4844" y2="264.4844"/><polygon fill="#000000" points="257.9647,260.4844,267.9647,264.4844,257.9647,268.4844,261.9647,264.4844" style="stroke:#000000;stroke-width:1;stroke-linejoin:miter;stroke-miterlimit:10;"/><line style="stroke:#000000;stroke-width:1;" x1="409.6185" x2="409.6185" y1="246.4844" y2="264.4844"/><line style="stroke:#000000;stroke-width:1;" x1="409.6185" x2="291.9647" y1="264.4844" y2="264.4844"/><polygon fill="#000000" points="301.9647,260.4844,291.9647,264.4844,301.9647,268.4844,297.9647,264.4844" style="stroke:#000000;stroke-width:1;stroke-linejoin:miter;stroke-miterlimit:10;"/><line style="stroke:#000000;stroke-width:1;" x1="279.9647" x2="279.9647" y1="130.5781" y2="150.5781"/><polygon fill="#000000" points="275.9647,140.5781,279.9647,150.5781,283.9647,140.5781,279.9647,144.5781" style="stroke:#000000;stroke-width:1;stroke-linejoin:miter;stroke-miterlimit:10;"/><line style="stroke:#000000;stroke-width:1;" x1="279.9647" x2="279.9647" y1="378.8555" y2="407.3711"/><polygon fill="#000000" points="275.9647,397.3711,279.9647,407.3711,283.9647,397.3711,279.9647,401.3711" style="stroke:#000000;stroke-width:1;stroke-linejoin:miter;stroke-miterlimit:10;"/><line style="stroke:#000000;stroke-width:1;" x1="279.9647" x2="279.9647" y1="320.4844" y2="344.8867"/><polygon fill="#000000" points="275.9647,334.8867,279.9647,344.8867,283.9647,334.8867,279.9647,338.8867" style="stroke:#000000;stroke-width:1;stroke-linejoin:miter;stroke-miterlimit:10;"/><line style="stroke:#000000;stroke-width:1;" x1="380.2977" x2="392.2977" y1="308.4844" y2="308.4844"/><polygon fill="#000000" points="388.2977,377.3711,392.2977,387.3711,396.2977,377.3711,392.2977,381.3711" style="stroke:#000000;stroke-width:1;stroke-linejoin:miter;stroke-miterlimit:10;"/><line style="stroke:#000000;stroke-width:1;" x1="392.2977" x2="392.2977" y1="308.4844" y2="451.3711"/><line style="stroke:#000000;stroke-width:1;" x1="392.2977" x2="279.9647" y1="451.3711" y2="451.3711"/><line style="stroke:#000000;stroke-width:1;" x1="279.9647" x2="279.9647" y1="451.3711" y2="471.3711"/><polygon fill="#000000" points="275.9647,461.3711,279.9647,471.3711,283.9647,461.3711,279.9647,465.3711" style="stroke:#000000;stroke-width:1;stroke-linejoin:miter;stroke-miterlimit:10;"/><line style="stroke:#000000;stroke-width:1;" x1="279.9647" x2="279.9647" y1="276.4844" y2="296.4844"/><polygon fill="#000000" points="275.9647,286.4844,279.9647,296.4844,283.9647,286.4844,279.9647,290.4844" style="stroke:#000000;stroke-width:1;stroke-linejoin:miter;stroke-miterlimit:10;"/><line style="stroke:#000000;stroke-width:1;" x1="381.6564" x2="330.8673" y1="619.7422" y2="619.7422"/><line style="stroke:#000000;stroke-width:1;" x1="330.8673" x2="330.8673" y1="619.7422" y2="641.7422"/><polygon fill="#000000" points="326.8673,631.7422,330.8673,641.7422,334.8673,631.7422,330.8673,635.7422" style="stroke:#000000;stroke-width:1;stroke-linejoin:miter;stroke-miterlimit:10;"/><line style="stroke:#000000;stroke-width:1;" x1="531.3937" x2="582.1827" y1="619.7422" y2="619.7422"/><line style="stroke:#000000;stroke-width:1;" x1="582.1827" x2="582.1827" y1="619.7422" y2="641.7422"/><polygon fill="#000000" points="578.1827,631.7422,582.1827,641.7422,586.1827,631.7422,582.1827,635.7422" style="stroke:#000000;stroke-width:1;stroke-linejoin:miter;stroke-miterlimit:10;"/><line style="stroke:#000000;stroke-width:1;" x1="330.8673" x2="330.8673" y1="689.6797" y2="707.6797"/><line style="stroke:#000000;stroke-width:1;" x1="330.8673" x2="444.525" y1="707.6797" y2="707.6797"/><polygon fill="#000000" points="434.525,703.6797,444.525,707.6797,434.525,711.6797,438.525,707.6797" style="stroke:#000000;stroke-width:1;stroke-linejoin:miter;stroke-miterlimit:10;"/><line style="stroke:#000000;stroke-width:1;" x1="582.1827" x2="582.1827" y1="675.7109" y2="707.6797"/><line style="stroke:#000000;stroke-width:1;" x1="582.1827" x2="468.525" y1="707.6797" y2="707.6797"/><polygon fill="#000000" points="478.525,703.6797,468.525,707.6797,478.525,711.6797,474.525,707.6797" style="stroke:#000000;stroke-width:1;stroke-linejoin:miter;stroke-miterlimit:10;"/><line style="stroke:#000000;stroke-width:1;" x1="178.6139" x2="103.4044" y1="585.7422" y2="585.7422"/><line style="stroke:#000000;stroke-width:1;" x1="103.4044" x2="103.4044" y1="585.7422" y2="607.7422"/><polygon fill="#000000" points="99.4044,597.7422,103.4044,607.7422,107.4044,597.7422,103.4044,601.7422" style="stroke:#000000;stroke-width:1;stroke-linejoin:miter;stroke-miterlimit:10;"/><line style="stroke:#000000;stroke-width:1;" x1="381.3156" x2="456.525" y1="585.7422" y2="585.7422"/><line style="stroke:#000000;stroke-width:1;" x1="456.525" x2="456.525" y1="585.7422" y2="607.7422"/><polygon fill="#000000" points="452.525,597.7422,456.525,607.7422,460.525,597.7422,456.525,601.7422" style="stroke:#000000;stroke-width:1;stroke-linejoin:miter;stroke-miterlimit:10;"/><line style="stroke:#000000;stroke-width:1;" x1="103.4044" x2="103.4044" y1="641.7109" y2="737.6797"/><line style="stroke:#000000;stroke-width:1;" x1="103.4044" x2="267.9647" y1="737.6797" y2="737.6797"/><polygon fill="#000000" points="257.9647,733.6797,267.9647,737.6797,257.9647,741.6797,261.9647,737.6797" style="stroke:#000000;stroke-width:1;stroke-linejoin:miter;stroke-miterlimit:10;"/><line style="stroke:#000000;stroke-width:1;" x1="456.525" x2="456.525" y1="719.6797" y2="737.6797"/><line style="stroke:#000000;stroke-width:1;" x1="456.525" x2="291.9647" y1="737.6797" y2="737.6797"/><polygon fill="#000000" points="301.9647,733.6797,291.9647,737.6797,301.9647,741.6797,297.9647,737.6797" style="stroke:#000000;stroke-width:1;stroke-linejoin:miter;stroke-miterlimit:10;"/><line style="stroke:#000000;stroke-width:1;" x1="279.9647" x2="279.9647" y1="553.7422" y2="573.7422"/><polygon fill="#000000" points="275.9647,563.7422,279.9647,573.7422,283.9647,563.7422,279.9647,567.7422" style="stroke:#000000;stroke-width:1;stroke-linejoin:miter;stroke-miterlimit:10;"/><line style="stroke:#000000;stroke-width:1;" x1="279.9647" x2="279.9647" y1="495.3711" y2="519.7734"/><polygon fill="#000000" points="275.9647,509.7734,279.9647,519.7734,283.9647,509.7734,279.9647,513.7734" style="stroke:#000000;stroke-width:1;stroke-linejoin:miter;stroke-miterlimit:10;"/><line style="stroke:#000000;stroke-width:1;" x1="338.6852" x2="738.2306" y1="483.3711" y2="483.3711"/><polygon fill="#000000" points="734.2306,617.2266,738.2306,627.2266,742.2306,617.2266,738.2306,621.2266" style="stroke:#000000;stroke-width:1;stroke-linejoin:miter;stroke-miterlimit:10;"/><line style="stroke:#000000;stroke-width:1;" x1="738.2306" x2="738.2306" y1="483.3711" y2="781.6797"/><line style="stroke:#000000;stroke-width:1;" x1="738.2306" x2="291.9647" y1="781.6797" y2="781.6797"/><polygon fill="#000000" points="301.9647,777.6797,291.9647,781.6797,301.9647,785.6797,297.9647,781.6797" style="stroke:#000000;stroke-width:1;stroke-linejoin:miter;stroke-miterlimit:10;"/><line style="stroke:#000000;stroke-width:1;" x1="279.9647" x2="279.9647" y1="749.6797" y2="769.6797"/><polygon fill="#000000" points="275.9647,759.6797,279.9647,769.6797,283.9647,759.6797,279.9647,763.6797" style="stroke:#000000;stroke-width:1;stroke-linejoin:miter;stroke-miterlimit:10;"/><line style="stroke:#000000;stroke-width:1;" x1="279.9647" x2="279.9647" y1="793.6797" y2="813.6797"/><polygon fill="#000000" points="275.9647,803.6797,279.9647,813.6797,283.9647,803.6797,279.9647,807.6797" style="stroke:#000000;stroke-width:1;stroke-linejoin:miter;stroke-miterlimit:10;"/><line style="stroke:#000000;stroke-width:1;" x1="93.4893" x2="93.4893" y1="935.6172" y2="970.6172"/><polygon fill="#000000" points="89.4893,960.6172,93.4893,970.6172,97.4893,960.6172,93.4893,964.6172" style="stroke:#000000;stroke-width:1;stroke-linejoin:miter;stroke-miterlimit:10;"/><line style="stroke:#000000;stroke-width:1;" x1="720.5098" x2="720.5098" y1="1037.6172" y2="1071.5859"/><polygon fill="#000000" points="716.5098,1061.5859,720.5098,1071.5859,724.5098,1061.5859,720.5098,1065.5859" style="stroke:#000000;stroke-width:1;stroke-linejoin:miter;stroke-miterlimit:10;"/><line style="stroke:#000000;stroke-width:1;" x1="772.9673" x2="720.5098" y1="981.6484" y2="981.6484"/><line style="stroke:#000000;stroke-width:1;" x1="720.5098" x2="720.5098" y1="981.6484" y2="1003.6484"/><polygon fill="#000000" points="716.5098,993.6484,720.5098,1003.6484,724.5098,993.6484,720.5098,997.6484" style="stroke:#000000;stroke-width:1;stroke-linejoin:miter;stroke-miterlimit:10;"/><line style="stroke:#000000;stroke-width:1;" x1="922.7046" x2="975.1621" y1="981.6484" y2="981.6484"/><line style="stroke:#000000;stroke-width:1;" x1="975.1621" x2="975.1621" y1="981.6484" y2="1003.6484"/><polygon fill="#000000" points="971.1621,993.6484,975.1621,1003.6484,979.1621,993.6484,975.1621,997.6484" style="stroke:#000000;stroke-width:1;stroke-linejoin:miter;stroke-miterlimit:10;"/><line style="stroke:#000000;stroke-width:1;" x1="720.5098" x2="720.5098" y1="1105.5547" y2="1123.5547"/><line style="stroke:#000000;stroke-width:1;" x1="720.5098" x2="835.8359" y1="1123.5547" y2="1123.5547"/><polygon fill="#000000" points="825.8359,1119.5547,835.8359,1123.5547,825.8359,1127.5547,829.8359,1123.5547" style="stroke:#000000;stroke-width:1;stroke-linejoin:miter;stroke-miterlimit:10;"/><line style="stroke:#000000;stroke-width:1;" x1="975.1621" x2="975.1621" y1="1051.5859" y2="1123.5547"/><line style="stroke:#000000;stroke-width:1;" x1="975.1621" x2="859.8359" y1="1123.5547" y2="1123.5547"/><polygon fill="#000000" points="869.8359,1119.5547,859.8359,1123.5547,869.8359,1127.5547,865.8359,1123.5547" style="stroke:#000000;stroke-width:1;stroke-linejoin:miter;stroke-miterlimit:10;"/><line style="stroke:#000000;stroke-width:1;" x1="564.874" x2="464.3271" y1="947.6484" y2="947.6484"/><line style="stroke:#000000;stroke-width:1;" x1="464.3271" x2="464.3271" y1="947.6484" y2="969.6484"/><polygon fill="#000000" points="460.3271,959.6484,464.3271,969.6484,468.3271,959.6484,464.3271,963.6484" style="stroke:#000000;stroke-width:1;stroke-linejoin:miter;stroke-miterlimit:10;"/><line style="stroke:#000000;stroke-width:1;" x1="747.2891" x2="847.8359" y1="947.6484" y2="947.6484"/><line style="stroke:#000000;stroke-width:1;" x1="847.8359" x2="847.8359" y1="947.6484" y2="969.6484"/><polygon fill="#000000" points="843.8359,959.6484,847.8359,969.6484,851.8359,959.6484,847.8359,963.6484" style="stroke:#000000;stroke-width:1;stroke-linejoin:miter;stroke-miterlimit:10;"/><line style="stroke:#000000;stroke-width:1;" x1="464.3271" x2="464.3271" y1="1003.6172" y2="1153.5547"/><line style="stroke:#000000;stroke-width:1;" x1="464.3271" x2="644.0815" y1="1153.5547" y2="1153.5547"/><polygon fill="#000000" points="634.0815,1149.5547,644.0815,1153.5547,634.0815,1157.5547,638.0815,1153.5547" style="stroke:#000000;stroke-width:1;stroke-linejoin:miter;stroke-miterlimit:10;"/><line style="stroke:#000000;stroke-width:1;" x1="847.8359" x2="847.8359" y1="1135.5547" y2="1153.5547"/><line style="stroke:#000000;stroke-width:1;" x1="847.8359" x2="668.0815" y1="1153.5547" y2="1153.5547"/><polygon fill="#000000" points="678.0815,1149.5547,668.0815,1153.5547,678.0815,1157.5547,674.0815,1153.5547" style="stroke:#000000;stroke-width:1;stroke-linejoin:miter;stroke-miterlimit:10;"/><line style="stroke:#000000;stroke-width:1;" x1="407.7197" x2="276.7988" y1="913.6484" y2="913.6484"/><line style="stroke:#000000;stroke-width:1;" x1="276.7988" x2="276.7988" y1="913.6484" y2="935.6484"/><polygon fill="#000000" points="272.7988,925.6484,276.7988,935.6484,280.7988,925.6484,276.7988,929.6484" style="stroke:#000000;stroke-width:1;stroke-linejoin:miter;stroke-miterlimit:10;"/><line style="stroke:#000000;stroke-width:1;" x1="525.1606" x2="656.0815" y1="913.6484" y2="913.6484"/><line style="stroke:#000000;stroke-width:1;" x1="656.0815" x2="656.0815" y1="913.6484" y2="935.6484"/><polygon fill="#000000" points="652.0815,925.6484,656.0815,935.6484,660.0815,925.6484,656.0815,929.6484" style="stroke:#000000;stroke-width:1;stroke-linejoin:miter;stroke-miterlimit:10;"/><line style="stroke:#000000;stroke-width:1;" x1="276.7988" x2="276.7988" y1="969.6172" y2="1183.5547"/><line style="stroke:#000000;stroke-width:1;" x1="276.7988" x2="454.4402" y1="1183.5547" y2="1183.5547"/><polygon fill="#000000" points="444.4402,1179.5547,454.4402,1183.5547,444.4402,1187.5547,448.4402,1183.5547" style="stroke:#000000;stroke-width:1;stroke-linejoin:miter;stroke-miterlimit:10;"/><line style="stroke:#000000;stroke-width:1;" x1="656.0815" x2="656.0815" y1="1165.5547" y2="1183.5547"/><line style="stroke:#000000;stroke-width:1;" x1="656.0815" x2="478.4402" y1="1183.5547" y2="1183.5547"/><polygon fill="#000000" points="488.4402,1179.5547,478.4402,1183.5547,488.4402,1187.5547,484.4402,1183.5547" style="stroke:#000000;stroke-width:1;stroke-linejoin:miter;stroke-miterlimit:10;"/><line style="stroke:#000000;stroke-width:1;" x1="215.6825" x2="93.4893" y1="879.6484" y2="879.6484"/><line style="stroke:#000000;stroke-width:1;" x1="93.4893" x2="93.4893" y1="879.6484" y2="901.6484"/><polygon fill="#000000" points="89.4893,891.6484,93.4893,901.6484,97.4893,891.6484,93.4893,895.6484" style="stroke:#000000;stroke-width:1;stroke-linejoin:miter;stroke-miterlimit:10;"/><line style="stroke:#000000;stroke-width:1;" x1="344.2469" x2="466.4402" y1="879.6484" y2="879.6484"/><line style="stroke:#000000;stroke-width:1;" x1="466.4402" x2="466.4402" y1="879.6484" y2="901.6484"/><polygon fill="#000000" points="462.4402,891.6484,466.4402,901.6484,470.4402,891.6484,466.4402,895.6484" style="stroke:#000000;stroke-width:1;stroke-linejoin:miter;stroke-miterlimit:10;"/><line style="stroke:#000000;stroke-width:1;" x1="93.4893" x2="93.4893" y1="1004.5859" y2="1213.5547"/><line style="stroke:#000000;stroke-width:1;" x1="93.4893" x2="267.9647" y1="1213.5547" y2="1213.5547"/><polygon fill="#000000" points="257.9647,1209.5547,267.9647,1213.5547,257.9647,1217.5547,261.9647,1213.5547" style="stroke:#000000;stroke-width:1;stroke-linejoin:miter;stroke-miterlimit:10;"/><line style="stroke:#000000;stroke-width:1;" x1="466.4402" x2="466.4402" y1="1195.5547" y2="1213.5547"/><line style="stroke:#000000;stroke-width:1;" x1="466.4402" x2="291.9647" y1="1213.5547" y2="1213.5547"/><polygon fill="#000000" points="301.9647,1209.5547,291.9647,1213.5547,301.9647,1217.5547,297.9647,1213.5547" style="stroke:#000000;stroke-width:1;stroke-linejoin:miter;stroke-miterlimit:10;"/><line style="stroke:#000000;stroke-width:1;" x1="279.9647" x2="279.9647" y1="847.6484" y2="867.6484"/><polygon fill="#000000" points="275.9647,857.6484,279.9647,867.6484,283.9647,857.6484,279.9647,861.6484" style="stroke:#000000;stroke-width:1;stroke-linejoin:miter;stroke-miterlimit:10;"/><line style="stroke:#000000;stroke-width:1;" x1="279.9647" x2="279.9647" y1="1225.5547" y2="1245.5547"/><polygon fill="#000000" points="275.9647,1235.5547,279.9647,1245.5547,283.9647,1235.5547,279.9647,1239.5547" style="stroke:#000000;stroke-width:1;stroke-linejoin:miter;stroke-miterlimit:10;"/><line style="stroke:#000000;stroke-width:1;" x1="279.9647" x2="279.9647" y1="1293.4922" y2="1313.4922"/><polygon fill="#000000" points="275.9647,1303.4922,279.9647,1313.4922,283.9647,1303.4922,279.9647,1307.4922" style="stroke:#000000;stroke-width:1;stroke-linejoin:miter;stroke-miterlimit:10;"/><?plantuml-src bLHDRzim3BtxLt2t56WR3BivXw58Kwo7BaM6OZi4A1IBZeKeaY3AQNBRZzWlt2yPPSkfyrLWXq0EH3u-laVgKwXmZU2qK2QZbJ9EUB46geIqRyeieHIQi7SZiHIr3W_MXE-2C--y4ZhBWWeQGHaAGkiR_jrI1Nz__u5xfA2C2CgQQvY-6VHKANSDBqwAW22CX1a6vPc52Ld6-Jva-RFmXC3VImmmvA8KZxhD6GAJS-56ur8KE-1F1gTHbgaI1fEjqwfGeSrntcwKHFdr2hXH0uCTqbK6aBymF7QXt9tMr6GaggCCkMqO6Dj4pv2itkm99GtcPcmbRdCOJ-ydlrw_JPycO3t4StXRnAjXYyo1MjGIy-wk-PSkkPIHgcpPzzG2HL5FPWyUdIKLhD-Tz373igQzy8ax00Nh-hX9RJHYeS-eyMZ8OH6uK7H2jeBqzQ086e5cAK8U4bqB8vQdm0t1jTtW7lb0Ou2-ocs1ksWj96ily6s0d_gmARw7FZV1ydN1KJw2m48KgzgDclJ3iWpsx97GCs1jE5wLYZ4lKERiHjVkJ2hd3smzYg82MyBdBvqYiAYDrDXDPzzVt2eAjEyjZThOkbrAYjNodrwnSRPR7CRrA_JTV2P1Fh2uQpB_iUBifcPSw_SA1q0jrFIe6X-Xg93E-Z13VZmAF6hulCx_Ot1dSOfiOU43KvkKntOHph8vvTDttebGpGrtOttewVq-47kGPF-bGKWGQIMPmp3katFDrrejFTiavoQ-VBvzLuvcB2xlFm00?></g></svg>