<svg xmlns="http://www.w3.org/2000/svg" xmlns:xlink="http://www.w3.org/1999/xlink" contentStyleType="text/css" data-diagram-type="STATE" height="2485px" preserveAspectRatio="none" style="width:1992px;height:2485px;background:#FFFFFF;" version="1.1" viewBox="0 0 1992 2485" width="1992px" zoomAndPan="magnify"><?plantuml 1.2026.6?><defs/><g><g class="title" data-source-line="12"><text fill="#000000" font-family="Arial" font-size="22" font-weight="700" lengthAdjust="spacing" textLength="757.6143" x="616.2" y="35.4209">Codex Development Workflow - Single-Agent Staged Process</text></g><g class="entity" data-qualified-name="requirement" data-source-line="14" id="ent0001"><rect fill="#F8F9FA" height="50" rx="12.5" ry="12.5" style="stroke:#4A5568;stroke-width:1;" width="110.9727" x="1144.2" y="1025.9794"/><line style="stroke:#4A5568;stroke-width:1;" x1="1144.2" x2="1255.1727" y1="1052.2763" y2="1052.2763"/><text fill="#1A202C" font-family="Arial" font-size="14" lengthAdjust="spacing" textLength="90.9727" x="1154.2" y="1043.9745">Requirement</text></g><g class="entity" data-qualified-name="classify" data-source-line="15" id="ent0002"><rect fill="#F8F9FA" height="52.5938" rx="12.5" ry="12.5" style="stroke:#4A5568;stroke-width:1;" width="189.3877" x="1047.99" y="1155.6794"/><line style="stroke:#4A5568;stroke-width:1;" x1="1047.99" x2="1237.3777" y1="1198.2731" y2="1198.2731"/><text fill="#1A202C" font-family="Arial" font-size="14" lengthAdjust="spacing" textLength="87.8555" x="1057.99" y="1173.6745">Classify task</text><text fill="#1A202C" font-family="Arial" font-size="14" lengthAdjust="spacing" textLength="169.3877" x="1057.99" y="1189.9714">Tiny / Normal / Complex</text></g><g class="entity" data-qualified-name="context" data-source-line="16" id="ent0003"><rect fill="#F8F9FA" height="52.5938" rx="12.5" ry="12.5" style="stroke:#4A5568;stroke-width:1;" width="113.3789" x="1085.99" y="1285.2794"/><line style="stroke:#4A5568;stroke-width:1;" x1="1085.99" x2="1199.3689" y1="1327.8731" y2="1327.8731"/><text fill="#1A202C" font-family="Arial" font-size="14" lengthAdjust="spacing" textLength="81.498" x="1095.99" y="1303.2745">Understand</text><text fill="#1A202C" font-family="Arial" font-size="14" lengthAdjust="spacing" textLength="93.3789" x="1095.99" y="1319.5714">Current Repo</text></g><g class="entity" data-qualified-name="plan" data-source-line="17" id="ent0004"><rect fill="#F8F9FA" height="52.5938" rx="12.5" ry="12.5" style="stroke:#4A5568;stroke-width:1;" width="167.0137" x="1059.18" y="1414.8694"/><line style="stroke:#4A5568;stroke-width:1;" x1="1059.18" x2="1226.1937" y1="1457.4631" y2="1457.4631"/><text fill="#1A202C" font-family="Arial" font-size="14" lengthAdjust="spacing" textLength="29.7842" x="1069.18" y="1432.8645">Plan</text><text fill="#1A202C" font-family="Arial" font-size="14" lengthAdjust="spacing" textLength="147.0137" x="1069.18" y="1449.1614">architecture + scope</text></g><g class="entity" data-qualified-name="slice" data-source-line="18" id="ent0005"><rect fill="#F8F9FA" height="85.1875" rx="12.5" ry="12.5" style="stroke:#4A5568;stroke-width:1;" width="223.0342" x="1196.17" y="1528.4594"/><line style="stroke:#4A5568;stroke-width:1;" x1="1196.17" x2="1419.2042" y1="1603.6469" y2="1603.6469"/><text fill="#1A202C" font-family="Arial" font-size="14" lengthAdjust="spacing" textLength="113.627" x="1206.17" y="1546.4545">Define one Slice</text><text fill="#1A202C" font-family="Arial" font-size="14" lengthAdjust="spacing" textLength="104.5967" x="1206.17" y="1562.7514">[plan-to-ticket]</text><text fill="#1A202C" font-family="Arial" font-size="14" lengthAdjust="spacing" textLength="203.0342" x="1206.17" y="1579.0482">goal &#8226; scope &#8226; dependencies</text><text fill="#1A202C" font-family="Arial" font-size="14" lengthAdjust="spacing" textLength="166.8105" x="1206.17" y="1595.3451">acceptance &#8226; validation</text></g><g class="entity" data-qualified-name="execute" data-source-line="20" id="ent0006"><path d="M1178.67,58.6094 L1484.6893,58.6094 A12.5,12.5 0 0 1 1497.1893,71.1094 L1497.1893,84.9063 L1166.17,84.9063 L1166.17,71.1094 A12.5,12.5 0 0 1 1178.67,58.6094" fill="#F8F9FA"/><path d="M1166.17,84.9063 L1497.1893,84.9063 L1497.1893,709.1863 A12.5,12.5 0 0 1 1484.6893,721.6863 L1178.67,721.6863 A12.5,12.5 0 0 1 1166.17,709.1863 L1166.17,84.9063" fill="#F8F9FA"/><rect fill="none" height="663.0769" rx="12.5" ry="12.5" style="stroke:#4A5568;stroke-width:1;" width="331.0193" x="1166.17" y="58.6094"/><line style="stroke:#4A5568;stroke-width:1;" x1="1166.17" x2="1497.1893" y1="84.9063" y2="84.9063"/><text fill="#1A202C" font-family="Arial" font-size="14" lengthAdjust="spacing" textLength="144.8262" x="1259.2666" y="76.6045">Slice Execution Loop</text><g class="entity" data-qualified-name="execute.acceptance" data-source-line="21" id="ent0007"><rect fill="#F8F9FA" height="50" rx="12.5" ry="12.5" style="stroke:#4A5568;stroke-width:1;" width="155.8438" x="1233.86" y="96.9063"/><line style="stroke:#4A5568;stroke-width:1;" x1="1233.86" x2="1389.7038" y1="123.2031" y2="123.2031"/><text fill="#1A202C" font-family="Arial" font-size="14" lengthAdjust="spacing" textLength="135.8438" x="1243.86" y="114.9014">Acceptance criteria</text></g><g class="entity" data-qualified-name="execute.strategy" data-source-line="22" id="ent0008"><rect fill="#F8F9FA" height="52.5938" rx="12.5" ry="12.5" style="stroke:#4A5568;stroke-width:1;" width="267.2285" x="1178.17" y="183.9063"/><line style="stroke:#4A5568;stroke-width:1;" x1="1178.17" x2="1445.3985" y1="226.5" y2="226.5"/><text fill="#1A202C" font-family="Arial" font-size="14" lengthAdjust="spacing" textLength="146.7129" x="1188.17" y="201.9014">Test strategy + level</text><text fill="#1A202C" font-family="Arial" font-size="14" lengthAdjust="spacing" textLength="247.2285" x="1188.17" y="218.1982">minimal / focused / regression / full</text></g><g class="entity" data-qualified-name="execute.behavior" data-source-line="23" id="ent0009"><rect fill="#F8F9FA" height="50" rx="12.5" ry="12.5" style="stroke:#4A5568;stroke-width:1;" width="145.5693" x="1239" y="273.4963"/><line style="stroke:#4A5568;stroke-width:1;" x1="1239" x2="1384.5693" y1="299.7931" y2="299.7931"/><text fill="#1A202C" font-family="Arial" font-size="14" lengthAdjust="spacing" textLength="125.5693" x="1249" y="291.4914">Behavior change?</text></g><g class="entity" data-qualified-name="execute.test_first" data-source-line="24" id="ent0010"><rect fill="#F8F9FA" height="52.5938" rx="12.5" ry="12.5" style="stroke:#4A5568;stroke-width:1;" width="141.3037" x="1188.13" y="376.4963"/><line style="stroke:#4A5568;stroke-width:1;" x1="1188.13" x2="1329.4337" y1="419.09" y2="419.09"/><text fill="#1A202C" font-family="Arial" font-size="14" lengthAdjust="spacing" textLength="61.7559" x="1198.13" y="394.4914">Test first</text><text fill="#1A202C" font-family="Arial" font-size="14" lengthAdjust="spacing" textLength="121.3037" x="1198.13" y="410.7882">when meaningful</text></g><g class="entity" data-qualified-name="execute.implement" data-source-line="25" id="ent0011"><rect fill="#F8F9FA" height="50" rx="12.5" ry="12.5" style="stroke:#4A5568;stroke-width:1;" width="130.8105" x="1246.38" y="466.0962"/><line style="stroke:#4A5568;stroke-width:1;" x1="1246.38" x2="1377.1905" y1="492.3931" y2="492.3931"/><text fill="#1A202C" font-family="Arial" font-size="14" lengthAdjust="spacing" textLength="110.8105" x="1256.38" y="484.0914">Minimal change</text></g><g class="entity" data-qualified-name="execute.tests" data-source-line="26" id="ent0012"><rect fill="#F8F9FA" height="52.5938" rx="12.5" ry="12.5" style="stroke:#4A5568;stroke-width:1;" width="151.3594" x="1236.1" y="553.0962"/><line style="stroke:#4A5568;stroke-width:1;" x1="1236.1" x2="1387.4594" y1="595.69" y2="595.69"/><text fill="#1A202C" font-family="Arial" font-size="14" lengthAdjust="spacing" textLength="131.3594" x="1246.1" y="571.0914">Focused validation</text><text fill="#1A202C" font-family="Arial" font-size="14" lengthAdjust="spacing" textLength="105.5742" x="1246.1" y="587.3882">[test-workflow]</text></g><g class="entity" data-qualified-name="execute.fix" data-source-line="27" id="ent0013"><rect fill="#F8F9FA" height="50" rx="12.5" ry="12.5" style="stroke:#4A5568;stroke-width:1;" width="113.2012" x="1219.18" y="658.6863"/><line style="stroke:#4A5568;stroke-width:1;" x1="1219.18" x2="1332.3812" y1="684.9831" y2="684.9831"/><text fill="#1A202C" font-family="Arial" font-size="14" lengthAdjust="spacing" textLength="93.2012" x="1229.18" y="676.6814">Fix / Refactor</text></g><g class="entity" data-qualified-name="execute.complete" data-source-line="28" id="ent0014"><rect fill="#F8F9FA" height="50" rx="12.5" ry="12.5" style="stroke:#4A5568;stroke-width:1;" width="122.8193" x="1350.37" y="658.6863"/><line style="stroke:#4A5568;stroke-width:1;" x1="1350.37" x2="1473.1893" y1="684.9831" y2="684.9831"/><text fill="#1A202C" font-family="Arial" font-size="14" lengthAdjust="spacing" textLength="102.8193" x="1360.37" y="676.6814">Slice complete</text></g><!--link acceptance to strategy--><g class="link" data-entity-1="ent0007" data-entity-2="ent0008" data-link-type="dependency" data-source-line="30" id="lnk30"><path d="M1311.78,147.4063 C1311.78,158.6663 1311.78,167.0263 1311.78,178.4362" fill="none" id="acceptance-to-strategy" style="stroke:#4A5568;stroke-width:1;"/><polygon fill="#4A5568" points="1311.78,183.4362,1315.78,174.4362,1311.78,178.4362,1307.78,174.4362,1311.78,183.4362" style="stroke:#4A5568;stroke-width:1;stroke-linejoin:miter;stroke-miterlimit:10;"/></g><!--link strategy to behavior--><g class="link" data-entity-1="ent0008" data-entity-2="ent0009" data-link-type="dependency" data-source-line="31" id="lnk31"><path d="M1311.78,236.6262 C1311.78,248.1663 1311.78,256.7463 1311.78,268.1462" fill="none" id="strategy-to-behavior" style="stroke:#4A5568;stroke-width:1;"/><polygon fill="#4A5568" points="1311.78,273.1462,1315.78,264.1462,1311.78,268.1462,1307.78,264.1462,1311.78,273.1462" style="stroke:#4A5568;stroke-width:1;stroke-linejoin:miter;stroke-miterlimit:10;"/></g><!--link behavior to test_first--><g class="link" data-entity-1="ent0009" data-entity-2="ent0010" data-link-type="dependency" data-source-line="32" id="lnk32"><path d="M1299.22,323.7463 C1291.02,339.5762 1282.6199,355.7766 1274.2899,371.8566" fill="none" id="behavior-to-test_first" style="stroke:#4A5568;stroke-width:1;"/><polygon fill="#4A5568" points="1271.99,376.2963,1279.6815,370.1448,1274.2899,371.8566,1272.5781,366.465,1271.99,376.2963" style="stroke:#4A5568;stroke-width:1;stroke-linejoin:miter;stroke-miterlimit:10;"/><text fill="#000000" font-family="Arial" font-size="13" lengthAdjust="spacing" textLength="22.4644" x="1289.46" y="354.5631">yes</text></g><!--link behavior to implement--><g class="link" data-entity-1="ent0009" data-entity-2="ent0011" data-link-type="dependency" data-source-line="33" id="lnk33"><path d="M1322.72,323.9063 C1328.78,338.7762 1335.69,358.3463 1338.78,376.4963 C1342.71,399.5463 1343.62,406.2263 1338.78,429.0963 C1336.13,441.6663 1332.8946,450.3136 1327.5946,461.1636" fill="none" id="behavior-to-implement" style="stroke:#4A5568;stroke-width:1;"/><polygon fill="#4A5568" points="1325.4,465.6563,1332.9443,459.3251,1327.5946,461.1636,1325.7561,455.8138,1325.4,465.6563" style="stroke:#4A5568;stroke-width:1;stroke-linejoin:miter;stroke-miterlimit:10;"/><text fill="#000000" font-family="Arial" font-size="13" lengthAdjust="spacing" textLength="16.1929" x="1343.08" y="407.3631">no</text></g><!--link test_first to implement--><g class="link" data-entity-1="ent0010" data-entity-2="ent0011" data-link-type="dependency" data-source-line="34" id="lnk34"><path d="M1274.4,429.2162 C1281.48,440.7562 1287.201,450.0771 1294.211,461.4771" fill="none" id="test_first-to-implement" style="stroke:#4A5568;stroke-width:1;"/><polygon fill="#4A5568" points="1296.83,465.7363,1295.5231,455.9745,1294.211,461.4771,1288.7084,460.1649,1296.83,465.7363" style="stroke:#4A5568;stroke-width:1;stroke-linejoin:miter;stroke-miterlimit:10;"/></g><!--link implement to tests--><g class="link" data-entity-1="ent0011" data-entity-2="ent0012" data-link-type="dependency" data-source-line="35" id="lnk35"><path d="M1311.78,516.5863 C1311.78,527.8562 1311.78,536.2163 1311.78,547.6263" fill="none" id="implement-to-tests" style="stroke:#4A5568;stroke-width:1;"/><polygon fill="#4A5568" points="1311.78,552.6263,1315.78,543.6263,1311.78,547.6263,1307.78,543.6263,1311.78,552.6263" style="stroke:#4A5568;stroke-width:1;stroke-linejoin:miter;stroke-miterlimit:10;"/></g><!--link tests to complete--><g class="link" data-entity-1="ent0012" data-entity-2="ent0014" data-link-type="dependency" data-source-line="36" id="lnk36"><path d="M1336.76,605.9363 C1352.5,622.0363 1369.1954,639.1103 1384.6654,654.9403" fill="none" id="tests-to-complete" style="stroke:#4A5568;stroke-width:1;"/><polygon fill="#4A5568" points="1388.16,658.5163,1384.7304,649.2838,1384.6654,654.9403,1379.0089,654.8752,1388.16,658.5163" style="stroke:#4A5568;stroke-width:1;stroke-linejoin:miter;stroke-miterlimit:10;"/><text fill="#000000" font-family="Arial" font-size="13" lengthAdjust="spacing" textLength="70.4844" x="1368.77" y="636.7531">pass / stop</text></g><!--link tests to fix--><g class="link" data-entity-1="ent0012" data-entity-2="ent0013" data-link-type="dependency" data-source-line="37" id="lnk37"><path d="M1286.51,606.1463 C1282.55,611.5563 1279.03,617.5062 1276.78,623.6863 C1272.83,634.5663 1271.9403,642.3415 1272.4403,653.2115" fill="none" id="tests-to-fix" style="stroke:#4A5568;stroke-width:1;"/><polygon fill="#4A5568" points="1272.67,658.2063,1276.2522,649.032,1272.4403,653.2115,1268.2607,649.3996,1272.67,658.2063" style="stroke:#4A5568;stroke-width:1;stroke-linejoin:miter;stroke-miterlimit:10;"/><text fill="#000000" font-family="Arial" font-size="13" lengthAdjust="spacing" textLength="19.7666" x="1277.78" y="636.7531">fail</text></g><!--link fix to tests--><g class="link" data-entity-1="ent0013" data-entity-2="ent0012" data-link-type="dependency" data-source-line="38" id="lnk38"><path d="M1289.89,658.2963 C1292.78,652.6363 1295.61,646.5563 1297.78,640.6863 C1301.9,629.6062 1304.0388,621.8109 1306.3088,610.9309" fill="none" id="fix-to-tests" style="stroke:#4A5568;stroke-width:1;"/><polygon fill="#4A5568" points="1307.33,606.0363,1301.5761,614.0296,1306.3088,610.9309,1309.4075,615.6635,1307.33,606.0363" style="stroke:#4A5568;stroke-width:1;stroke-linejoin:miter;stroke-miterlimit:10;"/></g></g><g class="entity" data-qualified-name="more" data-source-line="41" id="ent0015"><rect fill="#FFF4CC" height="50" rx="12.5" ry="12.5" style="stroke:#4A5568;stroke-width:1;" width="105.5723" x="1225.9" y="782.6894"/><line style="stroke:#4A5568;stroke-width:1;" x1="1225.9" x2="1331.4723" y1="808.9863" y2="808.9863"/><text fill="#1A202C" font-family="Arial" font-size="14" lengthAdjust="spacing" textLength="85.5723" x="1235.9" y="800.6845">More slices?</text></g><g class="entity" data-qualified-name="integration" data-source-line="42" id="ent0016"><rect fill="#F8F9FA" height="52.5938" rx="12.5" ry="12.5" style="stroke:#4A5568;stroke-width:1;" width="222.9316" x="666.22" y="909.6894"/><line style="stroke:#4A5568;stroke-width:1;" x1="666.22" x2="889.1516" y1="952.2831" y2="952.2831"/><text fill="#1A202C" font-family="Arial" font-size="14" lengthAdjust="spacing" textLength="202.9316" x="676.22" y="927.6845">Integration / regression tests</text><text fill="#1A202C" font-family="Arial" font-size="14" lengthAdjust="spacing" textLength="105.5742" x="676.22" y="943.9814">[test-workflow]</text></g><g class="entity" data-qualified-name="review" data-source-line="43" id="ent0017"><rect fill="#F8F9FA" height="52.5938" rx="12.5" ry="12.5" style="stroke:#4A5568;stroke-width:1;" width="124.0293" x="596.67" y="1024.6894"/><line style="stroke:#4A5568;stroke-width:1;" x1="596.67" x2="720.6993" y1="1067.2831" y2="1067.2831"/><text fill="#1A202C" font-family="Arial" font-size="14" lengthAdjust="spacing" textLength="77.376" x="606.67" y="1042.6845">Self review</text><text fill="#1A202C" font-family="Arial" font-size="14" lengthAdjust="spacing" textLength="104.0293" x="606.67" y="1058.9814">[codex review]</text></g><g class="entity" data-qualified-name="blocking" data-source-line="44" id="ent0018"><rect fill="#FFF4CC" height="50" rx="12.5" ry="12.5" style="stroke:#4A5568;stroke-width:1;" width="149.6299" x="574.87" y="1156.9794"/><line style="stroke:#4A5568;stroke-width:1;" x1="574.87" x2="724.4999" y1="1183.2763" y2="1183.2763"/><text fill="#1A202C" font-family="Arial" font-size="14" lengthAdjust="spacing" textLength="129.6299" x="584.87" y="1174.9745">Blocking problem?</text></g><g class="entity" data-qualified-name="replan" data-source-line="45" id="ent0019"><rect fill="#F8F9FA" height="50" rx="12.5" ry="12.5" style="stroke:#4A5568;stroke-width:1;" width="107.4658" x="776.95" y="1286.5694"/><line style="stroke:#4A5568;stroke-width:1;" x1="776.95" x2="884.4158" y1="1312.8663" y2="1312.8663"/><text fill="#1A202C" font-family="Arial" font-size="14" lengthAdjust="spacing" textLength="87.4658" x="786.95" y="1304.5645">Re-plan / Fix</text></g><g class="entity" data-qualified-name="state_docs" data-source-line="46" id="ent0020"><rect fill="#F8F9FA" height="52.5938" rx="12.5" ry="12.5" style="stroke:#4A5568;stroke-width:1;" width="159.3711" x="139" y="1285.2794"/><line style="stroke:#4A5568;stroke-width:1;" x1="139" x2="298.3711" y1="1327.8731" y2="1327.8731"/><text fill="#1A202C" font-family="Arial" font-size="14" lengthAdjust="spacing" textLength="85.0117" x="149" y="1303.2745">State / Docs</text><text fill="#1A202C" font-family="Arial" font-size="14" lengthAdjust="spacing" textLength="139.3711" x="149" y="1319.5714">[repo-current-state]</text></g><g class="entity" data-qualified-name="classify_outputs" data-source-line="47" id="ent0021"><rect fill="#F8F9FA" height="50" rx="12.5" ry="12.5" style="stroke:#4A5568;stroke-width:1;" width="131.8564" x="152.75" y="1416.1694"/><line style="stroke:#4A5568;stroke-width:1;" x1="152.75" x2="284.6064" y1="1442.4663" y2="1442.4663"/><text fill="#1A202C" font-family="Arial" font-size="14" lengthAdjust="spacing" textLength="111.8564" x="162.75" y="1434.1645">Classify outputs</text></g><g class="entity" data-qualified-name="sensitive" data-source-line="48" id="ent0022"><rect fill="#FFF4CC" height="50" rx="12.5" ry="12.5" style="stroke:#4A5568;stroke-width:1;" width="168.1279" x="134.62" y="1546.0594"/><line style="stroke:#4A5568;stroke-width:1;" x1="134.62" x2="302.7479" y1="1572.3563" y2="1572.3563"/><text fill="#1A202C" font-family="Arial" font-size="14" lengthAdjust="spacing" textLength="148.1279" x="144.62" y="1564.0545">Potentially sensitive?</text></g><g class="entity" data-qualified-name="redaction" data-source-line="49" id="ent0023"><rect fill="#F8F9FA" height="52.5938" rx="12.5" ry="12.5" style="stroke:#4A5568;stroke-width:1;" width="209.5469" x="34.91" y="1690.6494"/><line style="stroke:#4A5568;stroke-width:1;" x1="34.91" x2="244.4569" y1="1733.2431" y2="1733.2431"/><text fill="#1A202C" font-family="Arial" font-size="14" lengthAdjust="spacing" textLength="70.3213" x="44.91" y="1708.6445">Redaction</text><text fill="#1A202C" font-family="Arial" font-size="14" lengthAdjust="spacing" textLength="189.5469" x="44.91" y="1724.9414">[data-document-redaction]</text></g><g class="entity" data-qualified-name="redaction_gate" data-source-line="50" id="ent0024"><rect fill="#FFF4CC" height="50" rx="12.5" ry="12.5" style="stroke:#4A5568;stroke-width:1;" width="134.2559" x="72.55" y="1820.2394"/><line style="stroke:#4A5568;stroke-width:1;" x1="72.55" x2="206.8059" y1="1846.5363" y2="1846.5363"/><text fill="#1A202C" font-family="Arial" font-size="14" lengthAdjust="spacing" textLength="114.2559" x="82.55" y="1838.2345">Redaction pass?</text></g><g class="entity" data-qualified-name="publish" data-source-line="51" id="ent0025"><rect fill="#F8F9FA" height="52.5938" rx="12.5" ry="12.5" style="stroke:#4A5568;stroke-width:1;" width="202.834" x="169.27" y="1947.2394"/><line style="stroke:#4A5568;stroke-width:1;" x1="169.27" x2="372.104" y1="1989.8331" y2="1989.8331"/><text fill="#1A202C" font-family="Arial" font-size="14" lengthAdjust="spacing" textLength="102.0947" x="179.27" y="1965.2345">Commit / Push</text><text fill="#1A202C" font-family="Arial" font-size="14" lengthAdjust="spacing" textLength="182.834" x="179.27" y="1981.5314">[github-push-when-ready]</text></g><g class="entity" data-qualified-name="deployment" data-source-line="52" id="ent0026"><rect fill="#F8F9FA" height="52.5938" rx="12.5" ry="12.5" style="stroke:#4A5568;stroke-width:1;" width="181.8818" x="93.74" y="2076.8394"/><line style="stroke:#4A5568;stroke-width:1;" x1="93.74" x2="275.6218" y1="2119.4331" y2="2119.4331"/><text fill="#1A202C" font-family="Arial" font-size="14" lengthAdjust="spacing" textLength="161.8818" x="103.74" y="2094.8345">Automatic Deployment</text><text fill="#1A202C" font-family="Arial" font-size="14" lengthAdjust="spacing" textLength="94.6094" x="103.74" y="2111.1314">[auto-deploy]</text></g><g class="entity" data-qualified-name="deploy_verify" data-source-line="53" id="ent0027"><rect fill="#F8F9FA" height="52.5938" rx="12.5" ry="12.5" style="stroke:#4A5568;stroke-width:1;" width="152.0088" x="106.68" y="2190.4294"/><line style="stroke:#4A5568;stroke-width:1;" x1="106.68" x2="258.6888" y1="2233.0231" y2="2233.0231"/><text fill="#1A202C" font-family="Arial" font-size="14" lengthAdjust="spacing" textLength="55.1387" x="116.68" y="2208.4245">Health /</text><text fill="#1A202C" font-family="Arial" font-size="14" lengthAdjust="spacing" textLength="132.0088" x="116.68" y="2224.7214">Smoke Verification</text></g><g class="entity" data-qualified-name="rollback" data-source-line="54" id="ent0028"><rect fill="#FDECEC" height="52.5938" rx="12.5" ry="12.5" style="stroke:#4A5568;stroke-width:1;" width="88.5098" x="170.43" y="2320.0294"/><line style="stroke:#4A5568;stroke-width:1;" x1="170.43" x2="258.9398" y1="2362.6231" y2="2362.6231"/><text fill="#1A202C" font-family="Arial" font-size="14" lengthAdjust="spacing" textLength="68.5098" x="180.43" y="2338.0245">Rollback /</text><text fill="#1A202C" font-family="Arial" font-size="14" lengthAdjust="spacing" textLength="58.9873" x="180.43" y="2354.3214">Escalate</text></g><g class="entity" data-qualified-name="blocked" data-source-line="55" id="ent0029"><rect fill="#FDECEC" height="50" rx="12.5" ry="12.5" style="stroke:#4A5568;stroke-width:1;" width="75.3643" x="12" y="1948.5394"/><line style="stroke:#4A5568;stroke-width:1;" x1="12" x2="87.3643" y1="1974.8363" y2="1974.8363"/><text fill="#1A202C" font-family="Arial" font-size="14" lengthAdjust="spacing" textLength="55.3643" x="22" y="1966.5345">Blocked</text></g><g class="start_entity" data-qualified-name=".start." data-source-line="57" id="ent0039"><ellipse cx="1199.68" cy="935.9894" fill="#FFFFFF" rx="10" ry="10" style="stroke:#000000;stroke-width:1;"/></g><g class="end_entity" data-qualified-name=".end." data-source-line="80" id="ent0063"><ellipse cx="174.68" cy="2460.6194" fill="none" rx="11" ry="11" style="stroke:#000000;stroke-width:1;"/><ellipse cx="174.68" cy="2460.6194" fill="#FFFFFF" rx="6" ry="6" style="stroke:#000000;stroke-width:1;"/></g><g class="entity" data-qualified-name="GMN69" data-source-line="87" id="ent0070"><path d="M1532.34,362.4494 L1532.34,386.1494 L1497.33,390.1494 L1532.34,394.1494 L1532.34,417.8478 A0,0 0 0 0 1532.34,417.8478 L1977.0143,417.8478 A0,0 0 0 0 1977.0143,417.8478 L1977.0143,372.4494 L1967.0143,362.4494 L1532.34,362.4494 A0,0 0 0 0 1532.34,362.4494" fill="#FFFFFF" style="stroke:#000000;stroke-width:1;"/><path d="M1967.0143,362.4494 L1967.0143,372.4494 L1977.0143,372.4494 L1967.0143,362.4494" fill="#FFFFFF" style="stroke:#000000;stroke-width:1;"/><text fill="#000000" font-family="Arial" font-size="13" lengthAdjust="spacing" textLength="311.4478" x="1538.34" y="379.5163">TDD is a conditional test strategy inside a Slice.</text><text fill="#000000" font-family="Arial" font-size="13" lengthAdjust="spacing" textLength="398.6138" x="1538.34" y="394.6491">Use the smallest verification set that gives enough evidence.</text><text fill="#000000" font-family="Arial" font-size="13" lengthAdjust="spacing" textLength="423.6743" x="1538.34" y="409.7819">Stop after the selected level passes unless escalation is justified.</text></g><g class="entity" data-qualified-name="GMN72" data-source-line="93" id="ent0073"><path d="M333.21,1291.4394 L333.21,1307.5694 L298.74,1311.5694 L333.21,1315.5694 L333.21,1331.705 A0,0 0 0 0 333.21,1331.705 L742.147,1331.705 A0,0 0 0 0 742.147,1331.705 L742.147,1301.4394 L732.147,1291.4394 L333.21,1291.4394 A0,0 0 0 0 333.21,1291.4394" fill="#FFFFFF" style="stroke:#000000;stroke-width:1;"/><path d="M732.147,1291.4394 L732.147,1301.4394 L742.147,1301.4394 L732.147,1291.4394" fill="#FFFFFF" style="stroke:#000000;stroke-width:1;"/><text fill="#000000" font-family="Arial" font-size="13" lengthAdjust="spacing" textLength="353.9707" x="339.21" y="1308.5063">Repo_Current_State.md is the compact recovery point</text><text fill="#000000" font-family="Arial" font-size="13" lengthAdjust="spacing" textLength="387.937" x="339.21" y="1323.6391">for current focus, verified behavior, failures, and next Slice.</text></g><g class="entity" data-qualified-name="GMN75" data-source-line="98" id="ent0076"><path d="M830.38,1023.2794 L830.38,1078.6778 A0,0 0 0 0 830.38,1078.6778 L1108.9869,1078.6778 A0,0 0 0 0 1108.9869,1078.6778 L1108.9869,1054.9794 L1143.95,1050.9794 L1108.9869,1046.9794 L1108.9869,1033.2794 L1098.9869,1023.2794 L830.38,1023.2794 A0,0 0 0 0 830.38,1023.2794" fill="#FFFFFF" style="stroke:#000000;stroke-width:1;"/><path d="M1098.9869,1023.2794 L1098.9869,1033.2794 L1108.9869,1033.2794 L1098.9869,1023.2794" fill="#FFFFFF" style="stroke:#000000;stroke-width:1;"/><text fill="#000000" font-family="Arial" font-size="13" lengthAdjust="spacing" textLength="149.0239" x="836.38" y="1040.3463">One Codex agent only.</text><text fill="#000000" font-family="Arial" font-size="13" lengthAdjust="spacing" textLength="192.3086" x="836.38" y="1055.4791">No multi-agent orchestration,</text><text fill="#000000" font-family="Arial" font-size="13" lengthAdjust="spacing" textLength="257.6069" x="836.38" y="1070.6119">sub-agents, or parallel implementation.</text></g><!--link *start* to requirement--><g class="link" data-entity-1="ent0039" data-entity-2="ent0001" data-link-type="dependency" data-source-line="57" id="lnk40"><path d="M1199.68,946.2294 C1199.68,963.4194 1199.68,995.7794 1199.68,1020.6594" fill="none" id="*start*-to-requirement" style="stroke:#4A5568;stroke-width:1;"/><polygon fill="#4A5568" points="1199.68,1025.6594,1203.68,1016.6594,1199.68,1020.6594,1195.68,1016.6594,1199.68,1025.6594" style="stroke:#4A5568;stroke-width:1;stroke-linejoin:miter;stroke-miterlimit:10;"/></g><!--link requirement to classify--><g class="link" data-entity-1="ent0001" data-entity-2="ent0002" data-link-type="dependency" data-source-line="58" id="lnk41"><path d="M1188.96,1076.2494 C1178.96,1098.8694 1166.1313,1127.9161 1155.9613,1150.9261" fill="none" id="requirement-to-classify" style="stroke:#4A5568;stroke-width:1;"/><polygon fill="#4A5568" points="1153.94,1155.4994,1161.2369,1148.8846,1155.9613,1150.9261,1153.9197,1145.6505,1153.94,1155.4994" style="stroke:#4A5568;stroke-width:1;stroke-linejoin:miter;stroke-miterlimit:10;"/></g><!--link classify to context--><g class="link" data-entity-1="ent0002" data-entity-2="ent0003" data-link-type="dependency" data-source-line="59" id="lnk42"><path d="M1142.68,1208.4894 C1142.68,1230.7494 1142.68,1257.8594 1142.68,1280.0994" fill="none" id="classify-to-context" style="stroke:#4A5568;stroke-width:1;"/><polygon fill="#4A5568" points="1142.68,1285.0994,1146.68,1276.0994,1142.68,1280.0994,1138.68,1276.0994,1142.68,1285.0994" style="stroke:#4A5568;stroke-width:1;stroke-linejoin:miter;stroke-miterlimit:10;"/></g><!--link context to plan--><g class="link" data-entity-1="ent0003" data-entity-2="ent0004" data-link-type="dependency" data-source-line="60" id="lnk43"><path d="M1142.68,1338.0894 C1142.68,1360.3394 1142.68,1387.4594 1142.68,1409.6994" fill="none" id="context-to-plan" style="stroke:#4A5568;stroke-width:1;"/><polygon fill="#4A5568" points="1142.68,1414.6994,1146.68,1405.6994,1142.68,1409.6994,1138.68,1405.6994,1142.68,1414.6994" style="stroke:#4A5568;stroke-width:1;stroke-linejoin:miter;stroke-miterlimit:10;"/></g><!--link plan to slice--><g class="link" data-entity-1="ent0004" data-entity-2="ent0005" data-link-type="dependency" data-source-line="61" id="lnk44"><path d="M1175.68,1467.7394 C1197.96,1485.0194 1223.9486,1505.1556 1249.6786,1525.1056" fill="none" id="plan-to-slice" style="stroke:#4A5568;stroke-width:1;"/><polygon fill="#4A5568" points="1253.63,1528.1694,1248.9685,1519.4935,1249.6786,1525.1056,1244.0665,1525.8157,1253.63,1528.1694" style="stroke:#4A5568;stroke-width:1;stroke-linejoin:miter;stroke-miterlimit:10;"/></g><!--link slice to execute--><g class="link" data-entity-1="ent0005" data-entity-2="ent0006" data-link-type="dependency" data-source-line="62" id="lnk45"><path d="M1348.44,1528.1794 C1366.91,1504.8094 1384.68,1474.0394 1384.68,1442.1694 C1384.68,806.6894 1384.68,806.6894 1384.68,806.6894 C1384.68,779.1394 1383.8642,755.6375 1381.8942,727.0875" fill="none" id="slice-to-execute" style="stroke:#4A5568;stroke-width:1;"/><polygon fill="#4A5568" points="1381.55,722.0994,1378.179,731.3534,1381.8942,727.0875,1386.1601,730.8027,1381.55,722.0994" style="stroke:#4A5568;stroke-width:1;stroke-linejoin:miter;stroke-miterlimit:10;"/></g><!--link execute to more--><g class="link" data-entity-1="ent0006" data-entity-2="ent0015" data-link-type="dependency" data-source-line="63" id="lnk46"><path d="M1289.47,722.0994 C1286.36,746.5294 1284.3225,762.4395 1282.4225,777.3395" fill="none" id="execute-to-more" style="stroke:#4A5568;stroke-width:1;"/><polygon fill="#4A5568" points="1281.79,782.2994,1286.8963,773.8776,1282.4225,777.3395,1278.9606,772.8657,1281.79,782.2994" style="stroke:#4A5568;stroke-width:1;stroke-linejoin:miter;stroke-miterlimit:10;"/></g><!--link more to slice--><g class="link" data-entity-1="ent0015" data-entity-2="ent0005" data-link-type="dependency" data-source-line="64" id="lnk47"><path d="M1287.7,832.9994 C1296.21,858.1494 1307.68,898.7694 1307.68,934.9894 C1307.68,934.9894 1307.68,934.9894 1307.68,1442.1694 C1307.68,1470.8094 1307.68,1498.0594 1307.68,1523.0094" fill="none" id="more-to-slice" style="stroke:#4A5568;stroke-width:1;"/><polygon fill="#4A5568" points="1307.68,1528.0094,1311.68,1519.0094,1307.68,1523.0094,1303.68,1519.0094,1307.68,1528.0094" style="stroke:#4A5568;stroke-width:1;stroke-linejoin:miter;stroke-miterlimit:10;"/><text fill="#000000" font-family="Arial" font-size="13" lengthAdjust="spacing" textLength="22.4644" x="1308.68" y="1186.5463">yes</text></g><!--link more to integration--><g class="link" data-entity-1="ent0015" data-entity-2="ent0016" data-link-type="dependency" data-source-line="65" id="lnk48"><path d="M1225.54,822.0894 C1143.44,842.7794 989.1783,881.6669 884.3983,908.0869" fill="none" id="more-to-integration" style="stroke:#4A5568;stroke-width:1;"/><polygon fill="#4A5568" points="879.55,909.3094,889.2548,910.9875,884.3983,908.0869,887.2989,903.2303,879.55,909.3094" style="stroke:#4A5568;stroke-width:1;stroke-linejoin:miter;stroke-miterlimit:10;"/><text fill="#000000" font-family="Arial" font-size="13" lengthAdjust="spacing" textLength="16.1929" x="1059.18" y="875.7563">no</text></g><!--link integration to review--><g class="link" data-entity-1="ent0016" data-entity-2="ent0017" data-link-type="dependency" data-source-line="66" id="lnk49"><path d="M750.68,962.6294 C731.2,981.1194 708.6557,1002.5264 689.2057,1020.9964" fill="none" id="integration-to-review" style="stroke:#4A5568;stroke-width:1;"/><polygon fill="#4A5568" points="685.58,1024.4394,694.8607,1021.1425,689.2057,1020.9964,689.3518,1015.3414,685.58,1024.4394" style="stroke:#4A5568;stroke-width:1;stroke-linejoin:miter;stroke-miterlimit:10;"/></g><!--link review to blocking--><g class="link" data-entity-1="ent0017" data-entity-2="ent0018" data-link-type="dependency" data-source-line="67" id="lnk50"><path d="M656.88,1077.7794 C655.28,1100.7194 653.3077,1129.0315 651.7377,1151.5515" fill="none" id="review-to-blocking" style="stroke:#4A5568;stroke-width:1;"/><polygon fill="#4A5568" points="651.39,1156.5394,656.0062,1147.8394,651.7377,1151.5515,648.0256,1147.283,651.39,1156.5394" style="stroke:#4A5568;stroke-width:1;stroke-linejoin:miter;stroke-miterlimit:10;"/></g><!--link blocking to replan--><g class="link" data-entity-1="ent0018" data-entity-2="ent0019" data-link-type="dependency" data-source-line="68" id="lnk51"><path d="M660.3,1207.1894 C668.15,1222.6994 680.16,1242.2994 695.68,1255.2794 C702.46,1260.9394 737.2748,1275.0506 771.7948,1288.3606" fill="none" id="blocking-to-replan" style="stroke:#4A5568;stroke-width:1;"/><polygon fill="#4A5568" points="776.46,1290.1594,769.5016,1283.1894,771.7948,1288.3606,766.6236,1290.6537,776.46,1290.1594" style="stroke:#4A5568;stroke-width:1;stroke-linejoin:miter;stroke-miterlimit:10;"/><text fill="#000000" font-family="Arial" font-size="13" lengthAdjust="spacing" textLength="54.0757" x="696.68" y="1251.3463">problem</text></g><!--link blocking to state_docs--><g class="link" data-entity-1="ent0018" data-entity-2="ent0020" data-link-type="dependency" data-source-line="69" id="lnk52"><path d="M574.61,1205.1994 C497.43,1228.0494 382.4844,1262.0802 303.5344,1285.4502" fill="none" id="blocking-to-state_docs" style="stroke:#4A5568;stroke-width:1;"/><polygon fill="#4A5568" points="298.74,1286.8694,308.5052,1288.1503,303.5344,1285.4502,306.2345,1280.4794,298.74,1286.8694" style="stroke:#4A5568;stroke-width:1;stroke-linejoin:miter;stroke-miterlimit:10;"/><text fill="#000000" font-family="Arial" font-size="13" lengthAdjust="spacing" textLength="29.7642" x="460.99" y="1251.3463">pass</text></g><!--link replan to plan--><g class="link" data-entity-1="ent0019" data-entity-2="ent0004" data-link-type="dependency" data-source-line="70" id="lnk53"><path d="M884.82,1335.8894 C918.38,1350.2394 962.43,1368.8794 1001.68,1384.8694 C1025.91,1394.7394 1047.9527,1403.4703 1071.5327,1412.6803" fill="none" id="replan-to-plan" style="stroke:#4A5568;stroke-width:1;"/><polygon fill="#4A5568" points="1076.19,1414.4994,1069.262,1407.4991,1071.5327,1412.6803,1066.3515,1414.9509,1076.19,1414.4994" style="stroke:#4A5568;stroke-width:1;stroke-linejoin:miter;stroke-miterlimit:10;"/><text fill="#000000" font-family="Arial" font-size="13" lengthAdjust="spacing" textLength="131.4219" x="1002.68" y="1380.9363">design / scope issue</text></g><!--link replan to integration--><g class="link" data-entity-1="ent0019" data-entity-2="ent0016" data-link-type="dependency" data-source-line="71" id="lnk54"><path d="M827.22,1286.1794 C817.68,1218.9494 791.7822,1036.3598 782.0322,967.6198" fill="none" id="replan-to-integration" style="stroke:#4A5568;stroke-width:1;"/><polygon fill="#4A5568" points="781.33,962.6694,778.6335,972.1419,782.0322,967.6198,786.5543,971.0185,781.33,962.6694" style="stroke:#4A5568;stroke-width:1;stroke-linejoin:miter;stroke-miterlimit:10;"/><text fill="#000000" font-family="Arial" font-size="13" lengthAdjust="spacing" textLength="50.3052" x="805.34" y="1121.7463">local fix</text></g><!--link state_docs to classify_outputs--><g class="link" data-entity-1="ent0020" data-entity-2="ent0021" data-link-type="dependency" data-source-line="72" id="lnk55"><path d="M218.68,1338.0894 C218.68,1360.7794 218.68,1388.7194 218.68,1410.9894" fill="none" id="state_docs-to-classify_outputs" style="stroke:#4A5568;stroke-width:1;"/><polygon fill="#4A5568" points="218.68,1415.9894,222.68,1406.9894,218.68,1410.9894,214.68,1406.9894,218.68,1415.9894" style="stroke:#4A5568;stroke-width:1;stroke-linejoin:miter;stroke-miterlimit:10;"/></g><!--link classify_outputs to sensitive--><g class="link" data-entity-1="ent0021" data-entity-2="ent0022" data-link-type="dependency" data-source-line="73" id="lnk56"><path d="M218.68,1466.5194 C218.68,1489.2794 218.68,1518.0594 218.68,1540.7894" fill="none" id="classify_outputs-to-sensitive" style="stroke:#4A5568;stroke-width:1;"/><polygon fill="#4A5568" points="218.68,1545.7894,222.68,1536.7894,218.68,1540.7894,214.68,1536.7894,218.68,1545.7894" style="stroke:#4A5568;stroke-width:1;stroke-linejoin:miter;stroke-miterlimit:10;"/></g><!--link sensitive to redaction--><g class="link" data-entity-1="ent0022" data-entity-2="ent0023" data-link-type="dependency" data-source-line="74" id="lnk57"><path d="M205.28,1596.4694 C190.93,1622.6094 170.6667,1659.5167 156.0867,1686.0667" fill="none" id="sensitive-to-redaction" style="stroke:#4A5568;stroke-width:1;"/><polygon fill="#4A5568" points="153.68,1690.4494,161.5183,1684.486,156.0867,1686.0667,154.506,1680.6352,153.68,1690.4494" style="stroke:#4A5568;stroke-width:1;stroke-linejoin:miter;stroke-miterlimit:10;"/><text fill="#000000" font-family="Arial" font-size="13" lengthAdjust="spacing" textLength="22.4644" x="180.18" y="1656.7163">yes</text></g><!--link sensitive to publish--><g class="link" data-entity-1="ent0022" data-entity-2="ent0025" data-link-type="dependency" data-source-line="75" id="lnk58"><path d="M230.09,1596.3994 C240.49,1619.9294 255.19,1656.8794 261.68,1690.6494 C279.56,1783.6894 275.8634,1892.1386 272.8334,1941.9886" fill="none" id="sensitive-to-publish" style="stroke:#4A5568;stroke-width:1;"/><polygon fill="#4A5568" points="272.53,1946.9794,277.0687,1938.2386,272.8334,1941.9886,269.0834,1937.7533,272.53,1946.9794" style="stroke:#4A5568;stroke-width:1;stroke-linejoin:miter;stroke-miterlimit:10;"/><text fill="#000000" font-family="Arial" font-size="13" lengthAdjust="spacing" textLength="16.1929" x="274.16" y="1786.3063">no</text></g><!--link redaction to redaction_gate--><g class="link" data-entity-1="ent0023" data-entity-2="ent0024" data-link-type="dependency" data-source-line="76" id="lnk59"><path d="M139.68,1743.5094 C139.68,1765.8494 139.68,1793.0694 139.68,1815.0094" fill="none" id="redaction-to-redaction_gate" style="stroke:#4A5568;stroke-width:1;"/><polygon fill="#4A5568" points="139.68,1820.0094,143.68,1811.0094,139.68,1815.0094,135.68,1811.0094,139.68,1820.0094" style="stroke:#4A5568;stroke-width:1;stroke-linejoin:miter;stroke-miterlimit:10;"/></g><!--link redaction_gate to publish--><g class="link" data-entity-1="ent0024" data-entity-2="ent0025" data-link-type="dependency" data-source-line="77" id="lnk60"><path d="M170.85,1870.6794 C181.83,1879.6594 194.07,1890.1194 204.68,1900.2394 C220.17,1915.0294 233.0991,1929.0139 245.5891,1943.2239" fill="none" id="redaction_gate-to-publish" style="stroke:#4A5568;stroke-width:1;"/><polygon fill="#4A5568" points="248.89,1946.9794,245.9527,1937.5787,245.5891,1943.2239,239.9439,1942.8602,248.89,1946.9794" style="stroke:#4A5568;stroke-width:1;stroke-linejoin:miter;stroke-miterlimit:10;"/><text fill="#000000" font-family="Arial" font-size="13" lengthAdjust="spacing" textLength="29.7642" x="220.87" y="1913.3063">pass</text></g><!--link redaction_gate to blocked--><g class="link" data-entity-1="ent0024" data-entity-2="ent0029" data-link-type="dependency" data-source-line="78" id="lnk61"><path d="M76.91,1870.5494 C64.83,1878.1894 53.76,1887.9494 46.68,1900.2394 C38.41,1914.6194 38.4769,1928.487 41.4469,1943.297" fill="none" id="redaction_gate-to-blocked" style="stroke:#4A5568;stroke-width:1;"/><polygon fill="#4A5568" points="42.43,1948.1994,44.5823,1938.5886,41.4469,1943.297,36.7385,1940.1616,42.43,1948.1994" style="stroke:#4A5568;stroke-width:1;stroke-linejoin:miter;stroke-miterlimit:10;"/><text fill="#000000" font-family="Arial" font-size="13" lengthAdjust="spacing" textLength="152.4263" x="47.68" y="1913.3063">needs_review / blocked</text></g><!--link publish to deployment--><g class="link" data-entity-1="ent0025" data-entity-2="ent0026" data-link-type="dependency" data-source-line="79" id="lnk62"><path d="M253.49,2000.0594 C238.49,2022.3094 219.6345,2050.2832 204.6445,2072.5232" fill="none" id="publish-to-deployment" style="stroke:#4A5568;stroke-width:1;"/><polygon fill="#4A5568" points="201.85,2076.6694,210.1971,2071.442,204.6445,2072.5232,203.5633,2066.9707,201.85,2076.6694" style="stroke:#4A5568;stroke-width:1;stroke-linejoin:miter;stroke-miterlimit:10;"/><text fill="#000000" font-family="Arial" font-size="13" lengthAdjust="spacing" textLength="65.9521" x="233.83" y="2042.9063">requested</text></g><!--link publish to *end*--><g class="link" data-entity-1="ent0025" data-entity-2="ent0063" data-link-type="dependency" data-source-line="80" id="lnk64"><path d="M290,1999.8894 C306.87,2024.5994 328.68,2063.9294 328.68,2102.1394 C328.68,2102.1394 328.68,2102.1394 328.68,2347.3194 C328.68,2380.9094 330.45,2395.8794 306.68,2419.6194 C272.8,2453.4594 216.2879,2458.6951 190.9979,2459.4251" fill="none" id="publish-to-*end*" style="stroke:#4A5568;stroke-width:1;"/><polygon fill="#4A5568" points="186,2459.5694,195.1117,2463.308,190.9979,2459.4251,194.8808,2455.3114,186,2459.5694" style="stroke:#4A5568;stroke-width:1;stroke-linejoin:miter;stroke-miterlimit:10;"/><text fill="#000000" font-family="Arial" font-size="13" lengthAdjust="spacing" textLength="98.084" x="329.68" y="2221.2963">no deployment</text></g><!--link deployment to deploy_verify--><g class="link" data-entity-1="ent0026" data-entity-2="ent0027" data-link-type="dependency" data-source-line="81" id="lnk65"><path d="M184.22,2129.7394 C183.9,2147.8794 183.5483,2167.1302 183.2283,2185.2502" fill="none" id="deployment-to-deploy_verify" style="stroke:#4A5568;stroke-width:1;"/><polygon fill="#4A5568" points="183.14,2190.2494,187.2983,2181.3214,183.2283,2185.2502,179.2995,2181.1801,183.14,2190.2494" style="stroke:#4A5568;stroke-width:1;stroke-linejoin:miter;stroke-miterlimit:10;"/></g><!--link deploy_verify to *end*--><g class="link" data-entity-1="ent0027" data-entity-2="ent0063" data-link-type="dependency" data-source-line="82" id="lnk66"><path d="M162.11,2243.2694 C147.65,2262.9394 129.54,2291.5194 121.68,2320.0294 C115.47,2342.5594 115.37,2350.1094 121.68,2372.6194 C130.76,2404.9694 152.3414,2433.403 164.5214,2447.883" fill="none" id="deploy_verify-to-*end*" style="stroke:#4A5568;stroke-width:1;"/><polygon fill="#4A5568" points="167.74,2451.7094,165.0077,2442.2471,164.5214,2447.883,158.8855,2447.3968,167.74,2451.7094" style="stroke:#4A5568;stroke-width:1;stroke-linejoin:miter;stroke-miterlimit:10;"/><text fill="#000000" font-family="Arial" font-size="13" lengthAdjust="spacing" textLength="29.7642" x="122.68" y="2350.8863">pass</text></g><!--link deploy_verify to rollback--><g class="link" data-entity-1="ent0027" data-entity-2="ent0028" data-link-type="dependency" data-source-line="83" id="lnk67"><path d="M189.08,2243.2394 C194.66,2265.4994 201.5053,2292.7592 207.0753,2314.9992" fill="none" id="deploy_verify-to-rollback" style="stroke:#4A5568;stroke-width:1;"/><polygon fill="#4A5568" points="208.29,2319.8494,209.9836,2310.1472,207.0753,2314.9992,202.2233,2312.0908,208.29,2319.8494" style="stroke:#4A5568;stroke-width:1;stroke-linejoin:miter;stroke-miterlimit:10;"/><text fill="#000000" font-family="Arial" font-size="13" lengthAdjust="spacing" textLength="83.0718" x="201.6" y="2286.0963">fail / timeout</text></g><!--link rollback to *end*--><g class="link" data-entity-1="ent0028" data-entity-2="ent0063" data-link-type="dependency" data-source-line="84" id="lnk68"><path d="M189.05,2373.0194 C182.03,2381.6994 175.35,2391.9194 171.68,2402.6194 C166.28,2418.3694 168.1342,2433.1178 170.8242,2444.7578" fill="none" id="rollback-to-*end*" style="stroke:#4A5568;stroke-width:1;"/><polygon fill="#4A5568" points="171.95,2449.6294,173.8208,2439.9598,170.8242,2444.7578,166.0262,2441.7612,171.95,2449.6294" style="stroke:#4A5568;stroke-width:1;stroke-linejoin:miter;stroke-miterlimit:10;"/><text fill="#000000" font-family="Arial" font-size="13" lengthAdjust="spacing" textLength="129.1177" x="172.68" y="2415.6863">recovered / blocked</text></g><?plantuml-src RLVRRjms47tNLx39MslPRP0KQHuQRDOsMg190zjf7xB6WgP6MjOKgOhKseiYGB-bdzOlwU5DbtK3E1PdpbmuDuw_SZjgYNMAIrquqp5ds9rnphIiaZq99uqkxBtK7Uzvo-wuk6zwC-XgRPJfsVFBy6-6gAZcWtANHhiF79fNlUHgnb_rlNb8mYzNhrvz_th6j8uxOdyLZBrxOkZrvG-NAyynVKNzKWDZtbwYVRTwyUsBTV6bA9nqYjZQLFJ8pcbFodGjQST-D_rzhSm3Azcrr8sYSjLu-hNZ3LNiOsy4MLiKqPrdL_JdW5XuqMUCMzPFvmnPAswjh0_CSNk_qJTI7zWP-s3wbYjyh4tRANeCqY91i-WdZUlWMrSRlHxwtZjoHPs9O5oB7aSp7nNN6yrxiPCEkHbwOjymAqn70OqiwWmzfrfgOWO_rqeAskZFdbqwKpefxidTRdHZuDs_V_yJLOIlYZg2Grf8ih0a17LmJKJcdYjPSLyImPprUiSe1Iliuf74u17i5sEw0AD0YcbDsDMaL_Iu2ceaG2Tx4_Q6hCDtZqDpm7MLJ-H6jrBB6DpQYC4YRMT8JDCZSTuwo8DIqSqaEwbyHpk-bwWLiUEweRS1TfU8HvPhYUHizCEED6k9QzGBD0S91_usy2UPzycjg3d0fCzzA9OHTPbSdWAAz7XrvKCgpTlHWfs9oKTSx0eT9fpf0wAMZnC_fa24OdEK2YWU2g1csIpB7vTnIU7rz5aWycUWJzTbRzY1x35_l2VOse0x4rZmmPgmMRDD0ZPGijjGrQ5TS6kBuRI0uERWrbmgaFrXqlHbBCht1YqIwjJ6BBUUuAVMo_KwWtv6ZpLzICEoY8As_y-Cd6J61Y1LGtelwG4o8aoTUBnDOyD_P_GxPGJcNiEwtjmX5ga8C_N8nIigVVV2FTH0qZRlzklmwuoT6-4T1jEK8WwJCa1kKolWSri1z6HmcS5rWxEB4RLDn77y60U5cEVgm2nfAvtSf-uPZqyzhxX85OvIvoMi3pxpPPyvEJpf-4GobC3R9MZRUCoHBOpPLZg4uUDWTx3NIBSRxieEfz8tC4powX3DTSETadQNHLS3dZoaK-2Xw9GvU0-XWODSLe4InQgHcoL_8gxSZfrjz7LhxedzXcbMIp6DoIYotNlwEFMlZ5B-CVLo5rPmnLF3zfdn_FByOdsnNjGBLLELO7naIF7vwzjG_lENQVOTMog_E_aZDLfyODBlG0k55SejZ8amvSF_uPp6UP77kgVvhYf2QuqIQKQCn5d3nFam9qJVGtl4Nt4GfMOengw8kE3QczmuI-vKuMbq50cVBmPoHLOslfVYioUj7MWEMxeAxPZdVixETCy3EdR9CI4wb1kZc5eaNYDNTmpKafkgCqPgWYu4GmiKHnsn54u1U8B81GJrH9NTfg2VPKQHLNZmLFB0-wh2D3o2-FhphixROoOsQSbTi3ZDL0I7dpB7feW37uuwsHB2N8oSIGUsLWFPi17a-nGQeulrijavPkgnXc_Epv5-ndqRLDB72AbsYuL38YqL0H8UrzFYaoM6dPbPlFBA8_UpVaUs7RZSiGQPnEgZpT3i6ABhLof8N_iLczVOUA8IKbZZu6bOQiBj8JLeA8Pm70jUBNpyOx0ETgWwBR2WCN-VurlDfhjV8BTfczo6n-6qhRmQRzK_hgY87AW3wmnAlgZzGfGMqB1JdQIxmR_yq9-4-6Fl19DxD_pCI94vSajH7RoQpwHVTLx7ULYuZLQ7q-A3OIt-P91b8cAzfH1_NFsai9ZWWG6JyD3_eO30gsc52BYP-Vy0?></g></svg>