<svg xmlns="http://www.w3.org/2000/svg" xmlns:xlink="http://www.w3.org/1999/xlink" contentStyleType="text/css" data-diagram-type="DESCRIPTION" height="1057px" preserveAspectRatio="none" style="width:759px;height:1057px;background:#FFFFFF;" version="1.1" viewBox="0 0 759 1057" width="759px" zoomAndPan="magnify"><?plantuml 1.2026.6?><defs/><g><g class="title" data-source-line="8"><text fill="#000000" font-family="Arial" font-size="22" font-weight="700" lengthAdjust="spacing" textLength="565.5869" x="95.7271" y="35.4209">Codex Development Workflow &#8212; Architecture</text></g><!--cluster Distribution repository--><g class="cluster" data-qualified-name="Distribution repository" data-source-line="12" id="ent0002"><path d="M13.5,196.8994 L195.0986,196.8994 A3.75,3.75 0 0 1 197.5986,199.3994 L204.5986,219.1962 L423.5,219.1962 A2.5,2.5 0 0 1 426,221.6962 L426,557.1894 A2.5,2.5 0 0 1 423.5,559.6894 L13.5,559.6894 A2.5,2.5 0 0 1 11,557.1894 L11,199.3994 A2.5,2.5 0 0 1 13.5,196.8994" fill="#FFFFFF" style="stroke:#000000;stroke-width:1;"/><line style="stroke:#000000;stroke-width:1;" x1="11" x2="204.5986" y1="219.1962" y2="219.1962"/><text fill="#000000" font-family="Arial" font-size="14" font-weight="700" lengthAdjust="spacing" textLength="180.5986" x="15" y="211.8945">Distribution repository</text></g><!--entity orchestrator--><g class="entity" data-qualified-name="Distribution repository.orchestrator" data-source-line="13" id="ent0003"><rect fill="#FFFFFF" height="52.5938" rx="2.5" ry="2.5" style="stroke:#000000;stroke-width:1;" width="175.9893" x="202.01" y="361.4994"/><text fill="#000000" font-family="Arial" font-size="14" lengthAdjust="spacing" textLength="155.9893" x="212.01" y="384.4945">Workflow orchestrator</text><text fill="#000000" font-family="Arial" font-size="14" lengthAdjust="spacing" textLength="64.7705" x="212.01" y="400.7914">SKILL.md</text></g><!--entity installer--><g class="entity" data-qualified-name="Distribution repository.installer" data-source-line="14" id="ent0004"><rect fill="#FFFFFF" height="52.5938" rx="2.5" ry="2.5" style="stroke:#000000;stroke-width:1;" width="154.9551" x="253.52" y="491.0894"/><text fill="#000000" font-family="Arial" font-size="14" lengthAdjust="spacing" textLength="56.5127" x="263.52" y="514.0845">Installer</text><text fill="#000000" font-family="Arial" font-size="14" lengthAdjust="spacing" textLength="134.9551" x="263.52" y="530.3814">scripts/install-all.sh</text></g><!--entity skillmap--><g class="entity" data-qualified-name="Distribution repository.skillmap" data-source-line="15" id="ent0005"><rect fill="#FFFFFF" height="52.5938" rx="2.5" ry="2.5" style="stroke:#000000;stroke-width:1;" width="189.6748" x="27.16" y="231.8994"/><text fill="#000000" font-family="Arial" font-size="14" lengthAdjust="spacing" textLength="115.4658" x="37.16" y="254.8945">Skill source map</text><text fill="#000000" font-family="Arial" font-size="14" lengthAdjust="spacing" textLength="169.6748" x="37.16" y="271.1914">references/skill-map.md</text></g><!--entity metadata--><g class="entity" data-qualified-name="Distribution repository.metadata" data-source-line="16" id="ent0006"><rect fill="#FFFFFF" height="52.5938" rx="2.5" ry="2.5" style="stroke:#000000;stroke-width:1;" width="158.7012" x="251.65" y="231.8994"/><text fill="#000000" font-family="Arial" font-size="14" lengthAdjust="spacing" textLength="131.209" x="261.65" y="254.8945">Package metadata</text><text fill="#000000" font-family="Arial" font-size="14" lengthAdjust="spacing" textLength="138.7012" x="261.65" y="271.1914">agents/openai.yaml</text></g><!--entity maintainer--><g class="entity" data-qualified-name="maintainer" data-source-line="10" id="ent0001"><ellipse cx="293.0006" cy="65.6094" fill="#FFFFFF" rx="8" ry="8" style="stroke:#000000;stroke-width:1;"/><path d="M293.0006,73.6094 L293.0006,100.6094 M280.0006,81.6094 L306.0006,81.6094 M293.0006,100.6094 L280.0006,115.6094 M293.0006,100.6094 L306.0006,115.6094" fill="none" style="stroke:#000000;stroke-width:1;"/><text fill="#000000" font-family="Arial" font-size="14" lengthAdjust="spacing" textLength="160.2412" x="212.88" y="130.6045">Maintainer / Developer</text></g><!--entity github--><g class="entity" data-qualified-name="github" data-source-line="19" id="ent0007"><path d="M138.8288,642.8982 C142.4767,637.9437 147.8518,637.6137 151.2505,643.1921 C155.0828,637.6197 158.7162,638.665 162.4022,643.3512 C167.0973,636.0965 172.5184,635.1892 177.6735,642.8812 C180.5355,636.3759 186.4113,636.3468 190.1074,642.0304 C194.0677,635.0543 198.7013,635.5298 203.0584,641.6376 C206.3155,636.4921 210.4136,636.0697 214.3963,640.8049 C218.3124,634.1972 224.663,634.6258 227.8891,641.4956 C231.5496,634.6041 238.2039,634.1083 241.9321,641.4288 C246.275,635.7491 251.2093,635.5443 254.9116,642.1079 C257.9089,637.1813 262.9368,636.8688 265.8345,642.2139 C269.8998,636.3168 276.3394,636.3458 278.9431,643.6637 C282.1974,636.2324 288.9088,637.582 292.3649,643.4603 C296.7724,635.7989 303.5617,637.3698 307.0247,644.4026 C309.7615,638.1223 315.6164,637.5012 319.3451,643.3991 C328.643,643.7244 334.5277,650.6592 328.4528,659.6175 C332.4089,667.9398 327.6889,675.8547 318.1384,675.2854 C314.7253,681.2437 308.6651,681.8086 305.597,674.948 C302.4959,681.2599 297.3597,681.7496 293.1919,676.0495 C289.3818,682.4349 285.0946,682.3988 280.3736,677.0441 C276.0611,683.8858 271.364,684.2243 266.4425,677.6779 C263.4767,683.0671 258.9251,684.1465 255.1018,678.5642 C250.7651,684.9616 245.7048,685.3316 241.675,678.2583 C237.9818,684.6734 232.7164,684.9601 228.6323,678.6592 C224.7547,684.2174 220.9833,685.113 216.269,679.593 C211.4549,685.303 206.5368,686.2086 202.6699,678.6241 C199.0699,683.6159 192.7729,683.3295 189.7511,677.9068 C185.5076,682.5892 179.2363,682.9298 176.9499,675.7879 C174.1687,681.6146 168.1391,682.2904 164.3806,676.8813 C159.7629,681.8614 154.5538,680.7254 151.7427,674.7897 C147.4859,682.0513 143.0985,681.6018 138.2862,675.3425 C130.629,671.191 129.9698,665.157 136.927,659.733 C128.3888,654.059 129.5122,646.5551 138.8288,642.8982" fill="#FFFFFF" style="stroke:#000000;stroke-width:1;"/><text fill="#000000" font-family="Arial" font-size="14" lengthAdjust="spacing" textLength="167.0977" x="143.45" y="662.8245">GitHub skill repositories</text></g><!--entity skillsdir--><g class="entity" data-qualified-name="skillsdir" data-source-line="20" id="ent0008"><path d="M362.68,622.6894 L403.68,622.6894 A3.75,3.75 0 0 1 406.18,625.1894 L413.18,643.6894 L665.3284,643.6894 A2.5,2.5 0 0 1 667.8284,646.1894 L667.8284,690.7831 A2.5,2.5 0 0 1 665.3284,693.2831 L362.68,693.2831 A2.5,2.5 0 0 1 360.18,690.7831 L360.18,625.1894 A2.5,2.5 0 0 1 362.68,622.6894" fill="#FFFFFF" style="stroke:#000000;stroke-width:1;"/><line style="stroke:#000000;stroke-width:1;" x1="360.18" x2="413.18" y1="643.6894" y2="643.6894"/><text fill="#000000" font-family="Arial" font-size="14" lengthAdjust="spacing" textLength="150.3291" x="370.18" y="663.6845">Codex skills directory</text><text fill="#000000" font-family="Arial" font-size="14" lengthAdjust="spacing" textLength="277.6484" x="370.18" y="679.9814">${CODEX_HOME:-$HOME/.codex}/skills</text></g><!--entity codex--><g class="entity" data-qualified-name="codex" data-source-line="21" id="ent0009"><polygon fill="#FFFFFF" points="442.15,780.2794,452.15,770.2794,585.858,770.2794,585.858,806.5763,575.858,816.5763,442.15,816.5763,442.15,780.2794" style="stroke:#000000;stroke-width:1;stroke-linejoin:miter;stroke-miterlimit:10;"/><line style="stroke:#000000;stroke-width:1;" x1="575.858" x2="585.858" y1="780.2794" y2="770.2794"/><line style="stroke:#000000;stroke-width:1;" x1="442.15" x2="575.858" y1="780.2794" y2="780.2794"/><line style="stroke:#000000;stroke-width:1;" x1="575.858" x2="575.858" y1="780.2794" y2="816.5763"/><text fill="#000000" font-family="Arial" font-size="14" lengthAdjust="spacing" textLength="44.126" x="457.15" y="803.2745">Codex</text><text fill="#000000" font-family="Arial" font-size="14" lengthAdjust="spacing" textLength="4.4502" x="501.276" y="803.2745">&#160;</text><text fill="#000000" font-family="Arial" font-size="14" lengthAdjust="spacing" textLength="55.1318" x="505.7262" y="803.2745">runtime</text></g><!--entity installed_orchestrator--><g class="entity" data-qualified-name="installed_orchestrator" data-source-line="23" id="ent0010"><rect fill="#FFFFFF" height="36.2969" rx="2.5" ry="2.5" style="stroke:#000000;stroke-width:1;" width="140.4082" x="443.8" y="893.5794"/><text fill="#000000" font-family="Arial" font-size="14" lengthAdjust="spacing" textLength="120.4082" x="453.8" y="916.5745">Orchestrator skill</text></g><!--entity specialists--><g class="entity" data-qualified-name="specialists" data-source-line="24" id="ent0011"><rect fill="#FFFFFF" height="36.2969" rx="2.5" ry="2.5" style="stroke:#000000;stroke-width:1;" width="125.9297" x="451.04" y="1006.8694"/><text fill="#000000" font-family="Arial" font-size="14" lengthAdjust="spacing" textLength="105.9297" x="461.04" y="1029.8645">Specialist skills</text></g><g class="entity" data-qualified-name="GMN21" data-source-line="37" id="ent0022"><path d="M443.96,497.2594 L443.96,513.3894 L408.82,517.3894 L443.96,521.3894 L443.96,537.525 A0,0 0 0 0 443.96,537.525 L744.0411,537.525 A0,0 0 0 0 744.0411,537.525 L744.0411,507.2594 L734.0411,497.2594 L443.96,497.2594 A0,0 0 0 0 443.96,497.2594" fill="#FFFFFF" style="stroke:#000000;stroke-width:1;"/><path d="M734.0411,497.2594 L734.0411,507.2594 L744.0411,507.2594 L734.0411,497.2594" fill="#FFFFFF" style="stroke:#000000;stroke-width:1;"/><text fill="#000000" font-family="Arial" font-size="13" lengthAdjust="spacing" textLength="279.0811" x="449.96" y="514.3263">Existing directories are skipped by default.</text><text fill="#000000" font-family="Arial" font-size="13" lengthAdjust="spacing" textLength="258.21" x="449.96" y="529.4591">--update replaces them before copying.</text></g><!--link maintainer to installer--><g class="link" data-entity-1="ent0001" data-entity-2="ent0004" data-link-type="dependency" data-source-line="26" id="lnk12"><path d="M373.56,134.2094 C394.89,148.2994 415.44,166.4494 428,188.8994 C487.14,294.5994 504.56,357.9994 441,461.0894 C433.26,473.6494 425.9928,480.8858 413.2328,488.5058" fill="none" id="maintainer-to-installer" style="stroke:#444444;stroke-width:1;"/><polygon fill="#444444" points="408.94,491.0694,418.7179,489.8892,413.2328,488.5058,414.6162,483.0207,408.94,491.0694" style="stroke:#444444;stroke-width:1;stroke-linejoin:miter;stroke-miterlimit:10;"/><text fill="#000000" font-family="Arial" font-size="13" lengthAdjust="spacing" textLength="97.3604" x="481.82" y="327.5663">install / update</text></g><!--link maintainer to skillmap--><g class="link" data-entity-1="ent0001" data-entity-2="ent0005" data-link-type="dependency" data-source-line="27" id="lnk13"><path d="M252.48,134.3994 C220.57,164.4194 180.6412,202.0128 152.8112,228.2028" fill="none" id="maintainer-to-skillmap" style="stroke:#444444;stroke-width:1;"/><polygon fill="#444444" points="149.17,231.6294,158.4654,228.3744,152.8112,228.2028,152.9829,222.5485,149.17,231.6294" style="stroke:#444444;stroke-width:1;stroke-linejoin:miter;stroke-miterlimit:10;"/><text fill="#000000" font-family="Arial" font-size="13" lengthAdjust="spacing" textLength="101.48" x="218.74" y="176.9663">inspect sources</text></g><!--link installer to github--><g class="link" data-entity-1="ent0004" data-entity-2="ent0007" data-link-type="dependency" data-source-line="28" id="lnk14"><path d="M311.68,544.1294 C292.18,570.1194 265.361,605.8602 246.811,630.5802" fill="none" id="installer-to-github" style="stroke:#444444;stroke-width:1;"/><polygon fill="#444444" points="243.81,634.5794,252.4112,629.7816,246.811,630.5802,246.0125,624.9799,243.81,634.5794" style="stroke:#444444;stroke-width:1;stroke-linejoin:miter;stroke-miterlimit:10;"/><text fill="#000000" font-family="Arial" font-size="13" lengthAdjust="spacing" textLength="87.8706" x="286.23" y="588.7563">shallow clone</text></g><!--link installer to skillsdir--><g class="link" data-entity-1="ent0004" data-entity-2="ent0008" data-link-type="dependency" data-source-line="29" id="lnk15"><path d="M364.99,544.1294 C394.04,566.1294 432.0942,615.9505 464.1242,640.2105" fill="none" id="installer-to-skillsdir" style="stroke:#444444;stroke-width:1;"/><polygon fill="#444444" points="468.11,643.2294,463.3507,634.6068,464.1242,640.2105,458.5205,640.984,468.11,643.2294" style="stroke:#444444;stroke-width:1;stroke-linejoin:miter;stroke-miterlimit:10;"/><text fill="#000000" font-family="Arial" font-size="13" lengthAdjust="spacing" textLength="138.6963" x="428.99" y="588.7563">copy selected folders</text></g><!--link orchestrator to installer--><g class="link" data-entity-1="ent0003" data-entity-2="ent0004" data-link-type="dependency" data-source-line="30" id="lnk16"><path d="M297.52,414.2894 C301.67,428.1694 306.99,445.6094 312,461.0894 C315.16,470.8494 317.1458,476.784 320.3758,486.124" fill="none" id="orchestrator-to-installer" style="stroke:#444444;stroke-width:1;stroke-dasharray:7,7;"/><polygon fill="#444444" points="322.01,490.8494,322.8488,481.0363,320.3758,486.124,315.2882,483.651,322.01,490.8494" style="stroke:#444444;stroke-width:1;stroke-linejoin:miter;stroke-miterlimit:10;"/><text fill="#000000" font-family="Arial" font-size="13" lengthAdjust="spacing" textLength="123.4746" x="313" y="457.1563">packaged together</text></g><!--link metadata to orchestrator--><g class="link" data-entity-1="ent0006" data-entity-2="ent0003" data-link-type="dependency" data-source-line="31" id="lnk17"><path d="M317.41,284.8394 C312.97,294.0094 308.32,304.5394 305,314.4994 C299.93,329.6994 297.0901,342.3639 294.6401,356.3939" fill="none" id="metadata-to-orchestrator" style="stroke:#444444;stroke-width:1;stroke-dasharray:7,7;"/><polygon fill="#444444" points="293.78,361.3194,299.2686,353.1416,294.6401,356.3939,291.3878,351.7654,293.78,361.3194" style="stroke:#444444;stroke-width:1;stroke-linejoin:miter;stroke-miterlimit:10;"/><text fill="#000000" font-family="Arial" font-size="13" lengthAdjust="spacing" textLength="113.2993" x="306" y="327.5663">display metadata</text></g><!--link skillsdir to codex--><g class="link" data-entity-1="ent0008" data-entity-2="ent0009" data-link-type="dependency" data-source-line="32" id="lnk18"><path d="M514,693.6994 C514,717.7894 514,744.1794 514,765.0294" fill="none" id="skillsdir-to-codex" style="stroke:#444444;stroke-width:1;"/><polygon fill="#444444" points="514,770.0294,518,761.0294,514,765.0294,510,761.0294,514,770.0294" style="stroke:#444444;stroke-width:1;stroke-linejoin:miter;stroke-miterlimit:10;"/><text fill="#000000" font-family="Arial" font-size="13" lengthAdjust="spacing" textLength="111.0396" x="515" y="736.3463">restart / discover</text></g><!--link codex to installed_orchestrator--><g class="link" data-entity-1="ent0009" data-entity-2="ent0010" data-link-type="dependency" data-source-line="33" id="lnk19"><path d="M514,816.8494 C514,839.1594 514,867.9294 514,888.2994" fill="none" id="codex-to-installed_orchestrator" style="stroke:#444444;stroke-width:1;"/><polygon fill="#444444" points="514,893.2994,518,884.2994,514,888.2994,510,884.2994,514,893.2994" style="stroke:#444444;stroke-width:1;stroke-linejoin:miter;stroke-miterlimit:10;"/><text fill="#000000" font-family="Arial" font-size="13" lengthAdjust="spacing" textLength="90.1494" x="515" y="859.6463">load workflow</text></g><!--link installed_orchestrator to specialists--><g class="link" data-entity-1="ent0010" data-entity-2="ent0011" data-link-type="dependency" data-source-line="34" id="lnk20"><path d="M514,930.1094 C514,950.8994 514,980.4894 514,1001.3894" fill="none" id="installed_orchestrator-to-specialists" style="stroke:#444444;stroke-width:1;"/><polygon fill="#444444" points="514,1006.3894,518,997.3894,514,1001.3894,510,997.3894,514,1006.3894" style="stroke:#444444;stroke-width:1;stroke-linejoin:miter;stroke-miterlimit:10;"/><text fill="#000000" font-family="Arial" font-size="13" lengthAdjust="spacing" textLength="134.4624" x="515" y="972.9363">delegate gated work</text></g><?plantuml-src TLJBRjim4BppAxPghfOlFULG8CYZ2Peq1N9e3mO2IbhBX2cI8AaaHX2W7z4lx9Tqg8Sb1OW0MHOvCxixk-AdkEE6oMcfZ8ZMKRHKs1XjGvNoN4PbZGXxPPpqig52bllQszPKvrPRJv-lkck6A6tZh64J7-91CoK9QMhDCqZ5MzdgU6LD_24H_CmhgMVxPzxRvq7_ItS94LM4shcj-8Kk-8crTGs2q2_hzrjjd-dVdxyWbZiL4R7rB8Gi8nIoErGMSREdzKXbdv4Cr1otX72eJDPCsOKAqQkYJPKZVMU3WiuXerT1KtMK7IDRH6Lm960Ry_3zvlOsRwekm7nhoRun8Kgj6OnGUkLYMAj-QOKx3xkEhqRKalomLrfJiAql6KMuZV6yPS-cvB0EQNE5rJ69RW7lIusVGxqDHrd9A3S6RmPfm1qZLNwGZUvD6W3YJOXIsxQYx9kArstH2qyMAGuTeLPnrnPYQtK5pxE-Pnqs33C5EpVcvFNy_kBoz-Fr_TtbwUeaFTPvcS1lVGrXoZw09mpsHZdVcgWQxX0T1xbDjTtFREy55cvMZuk-p8rrN68MCG4qJ-6u6eIOPePMgwzJX-Xq_8ynQnqSu_VOiH4z5A9nw64Gaqm2zWu25dPOn8Z1TyFlG4TZW2kjEr1W3Kckg7S-Y7cLbEVBP8Tvh_31run3m8knqHrqmJr5tmAEYCCq35Fqb4lN0i0yAD97E012QPyukPksvbOjxGTBMrdHy_0vYGzWNSbJ8r9EgBU6pPH-UW618S62L_KkajtElf_B5x2KgOyJY6abwJdPw1penM4ybtAnMlKDJBEj9Vf3wPIaWhSMZ6Gsb7B1fg8KJ_m7?></g></svg>