<svg xmlns="http://www.w3.org/2000/svg" xmlns:xlink="http://www.w3.org/1999/xlink" contentStyleType="text/css" data-diagram-type="ACTIVITY" height="1327px" preserveAspectRatio="none" style="width:1402px;height:1327px;background:#FFFFFF;" version="1.1" viewBox="0 0 1402 1327" width="1402px" zoomAndPan="magnify"><?plantuml 1.2026.6?><defs/><g><g class="title" data-source-line="5"><text fill="#000000" font-family="Arial" font-size="22" font-weight="700" lengthAdjust="spacing" textLength="630.5234" x="385.0044" y="35.4209">PR Review Runner - Execution and Recovery Detail</text></g><ellipse cx="519.6707" cy="66.6094" fill="#FFFFFF" rx="10" ry="10" style="stroke:#000000;stroke-width:1;"/><rect fill="#FFFFFF" height="47.9375" rx="12.5" ry="12.5" style="stroke:#000000;stroke-width:1;" width="352.2969" x="343.5222" y="96.6094"/><text fill="#000000" font-family="Arial" font-size="12" lengthAdjust="spacing" textLength="332.2969" x="353.5222" y="117.748">PR published on named feature branch; worktree clean</text><text fill="#000000" font-family="Arial" font-size="12" lengthAdjust="spacing" textLength="291.6152" x="353.5222" y="131.7168">Refresh actual PR base; resolve base/head SHAs</text><rect fill="#FFFFFF" height="47.9375" rx="12.5" ry="12.5" style="stroke:#000000;stroke-width:1;" width="194.7383" x="422.3015" y="164.5469"/><text fill="#000000" font-family="Arial" font-size="12" lengthAdjust="spacing" textLength="174.7383" x="432.3015" y="185.6855">Acquire worktree review lock</text><text fill="#000000" font-family="Arial" font-size="12" lengthAdjust="spacing" textLength="136.2012" x="432.3015" y="199.6543">Read local saved state</text><rect fill="#FFFFFF" height="47.9375" rx="12.5" ry="12.5" style="stroke:#000000;stroke-width:1;" width="256.4902" x="391.4255" y="280.8867"/><text fill="#000000" font-family="Arial" font-size="12" lengthAdjust="spacing" textLength="148.0137" x="401.4255" y="302.0254">Report existing state/log</text><text fill="#000000" font-family="Arial" font-size="12" lengthAdjust="spacing" textLength="236.4902" x="401.4255" y="315.9941">Inspect exact process; do not duplicate</text><ellipse cx="519.6707" cy="361.3555" fill="none" rx="11" ry="11" style="stroke:#000000;stroke-width:1;"/><ellipse cx="519.6707" cy="361.3555" fill="#FFFFFF" rx="6" ry="6" style="stroke:#000000;stroke-width:1;"/><polygon fill="#FFFFFF" points="411.8755,232.4844,627.4658,232.4844,639.4658,244.4844,627.4658,256.4844,411.8755,256.4844,399.8755,244.4844,411.8755,232.4844" style="stroke:#000000;stroke-width:1;stroke-linejoin:miter;stroke-miterlimit:10;"/><text fill="#000000" font-family="Arial" font-size="11" lengthAdjust="spacing" textLength="19.0083" x="523.6707" y="266.6948">yes</text><text fill="#000000" font-family="Arial" font-size="11" lengthAdjust="spacing" textLength="215.5903" x="411.8755" y="248.2925">Active runner or possible orphan child?</text><text fill="#000000" font-family="Arial" font-size="11" lengthAdjust="spacing" textLength="13.7017" x="639.4658" y="241.8901">no</text><polygon fill="#FFFFFF" points="413.8789,414.3555,625.4624,414.3555,637.4624,427.1602,625.4624,439.9648,413.8789,439.9648,401.8789,427.1602,413.8789,414.3555" style="stroke:#000000;stroke-width:1;stroke-linejoin:miter;stroke-miterlimit:10;"/><text fill="#000000" font-family="Arial" font-size="11" lengthAdjust="spacing" textLength="211.5835" x="413.8789" y="424.5659">Same base/head execution completed</text><text fill="#000000" font-family="Arial" font-size="11" lengthAdjust="spacing" textLength="104.0327" x="413.8789" y="437.3706">and no --force-full?</text><text fill="#000000" font-family="Arial" font-size="11" lengthAdjust="spacing" textLength="19.0083" x="382.8706" y="424.5659">yes</text><text fill="#000000" font-family="Arial" font-size="11" lengthAdjust="spacing" textLength="13.7017" x="637.4624" y="424.5659">no</text><rect fill="#FFFFFF" height="47.9375" rx="12.5" ry="12.5" style="stroke:#000000;stroke-width:1;" width="327.0488" x="11" y="449.9648"/><text fill="#000000" font-family="Arial" font-size="12" lengthAdjust="spacing" textLength="175.3301" x="21" y="471.1035">Reuse saved execution + log</text><text fill="#000000" font-family="Arial" font-size="12" lengthAdjust="spacing" textLength="307.0488" x="21" y="485.0723">Read existing assessment or assess pending result</text><polygon fill="#FFFFFF" points="705.1477,449.9648,1024.4861,449.9648,1036.4861,469.1719,1024.4861,488.3789,705.1477,488.3789,693.1477,469.1719,705.1477,449.9648" style="stroke:#000000;stroke-width:1;stroke-linejoin:miter;stroke-miterlimit:10;"/><text fill="#000000" font-family="Arial" font-size="11" lengthAdjust="spacing" textLength="305.3521" x="705.1477" y="460.1753">Previous review completed and assessed pass/blocking</text><text fill="#000000" font-family="Arial" font-size="11" lengthAdjust="spacing" textLength="319.3384" x="705.1477" y="472.98">Same feature branch and base; previous head is ancestor</text><text fill="#000000" font-family="Arial" font-size="11" lengthAdjust="spacing" textLength="210.23" x="705.1477" y="485.7847">Different current head; no --force-full?</text><text fill="#000000" font-family="Arial" font-size="11" lengthAdjust="spacing" textLength="19.0083" x="674.1394" y="466.5776">yes</text><text fill="#000000" font-family="Arial" font-size="11" lengthAdjust="spacing" textLength="13.7017" x="1036.4861" y="466.5776">no</text><path d="M709.9766,498.3789 L709.9766,544.7773 L689.9766,548.7773 L709.9766,552.7773 L709.9766,599.1758 A0,0 0 0 0 709.9766,599.1758 L1079.5137,599.1758 A0,0 0 0 0 1079.5137,599.1758 L1079.5137,508.3789 L1069.5137,498.3789 L709.9766,498.3789 A0,0 0 0 0 709.9766,498.3789" fill="#FFFFFF" style="stroke:#000000;stroke-width:1;"/><path d="M1069.5137,498.3789 L1069.5137,508.3789 L1079.5137,508.3789 L1069.5137,498.3789" fill="#FFFFFF" style="stroke:#000000;stroke-width:1;"/><text fill="#000000" font-family="Arial" font-size="13" lengthAdjust="spacing" textLength="348.5371" x="715.9766" y="515.4458">Main agent must establish bounded fix impact before</text><text fill="#000000" font-family="Arial" font-size="13" lengthAdjust="spacing" textLength="258.959" x="715.9766" y="530.5786">accepting the normal incremental path.</text><text fill="#000000" font-family="Arial" font-size="13" lengthAdjust="spacing" textLength="306.3315" x="715.9766" y="545.7114">Interfaces / security boundaries / cross-module</text><text fill="#000000" font-family="Arial" font-size="13" lengthAdjust="spacing" textLength="302.9355" x="715.9766" y="560.8442">behavior / architecture / API / schema / history</text><text fill="#000000" font-family="Arial" font-size="13" lengthAdjust="spacing" textLength="285.6445" x="715.9766" y="575.9771">changes / uncertainty require full coverage.</text><text fill="#000000" font-family="Arial" font-size="13" lengthAdjust="spacing" textLength="266.7666" x="715.9766" y="591.1099">Previous findings are verified separately.</text><rect fill="#FFFFFF" height="47.9375" rx="12.5" ry="12.5" style="stroke:#000000;stroke-width:1;" width="321.9277" x="368.0488" y="524.8086"/><text fill="#000000" font-family="Arial" font-size="12" lengthAdjust="spacing" textLength="301.9277" x="378.0488" y="545.9473">Review base = previous assessed head by default</text><text fill="#000000" font-family="Arial" font-size="12" lengthAdjust="spacing" textLength="221.1152" x="378.0488" y="559.916">All intervening commits are included</text><rect fill="#FFFFFF" height="47.9375" rx="12.5" ry="12.5" style="stroke:#000000;stroke-width:1;" width="202.2148" x="1099.5137" y="498.3789"/><text fill="#000000" font-family="Arial" font-size="12" lengthAdjust="spacing" textLength="182.2148" x="1109.5137" y="519.5176">Review base = actual PR base</text><text fill="#000000" font-family="Arial" font-size="12" lengthAdjust="spacing" textLength="100.0898" x="1109.5137" y="533.4863">Full PR coverage</text><polygon fill="#FFFFFF" points="864.8169,605.1758,876.8169,617.1758,864.8169,629.1758,852.8169,617.1758,864.8169,605.1758" style="stroke:#000000;stroke-width:1;stroke-linejoin:miter;stroke-miterlimit:10;"/><rect fill="#FFFFFF" height="47.9375" rx="12.5" ry="12.5" style="stroke:#000000;stroke-width:1;" width="360.7754" x="684.4292" y="649.1758"/><text fill="#000000" font-family="Arial" font-size="12" lengthAdjust="spacing" textLength="143.168" x="694.4292" y="670.3145">Archive previous record</text><text fill="#000000" font-family="Arial" font-size="12" lengthAdjust="spacing" textLength="340.7754" x="694.4292" y="684.2832">Save running state + branch + scope + head + log path</text><path d="M1056.0142,707.1133 L1056.0142,738.3789 L1036.0142,742.3789 L1056.0142,746.3789 L1056.0142,777.6445 A0,0 0 0 0 1056.0142,777.6445 L1386.5322,777.6445 A0,0 0 0 0 1386.5322,777.6445 L1386.5322,717.1133 L1376.5322,707.1133 L1056.0142,707.1133 A0,0 0 0 0 1056.0142,707.1133" fill="#FFFFFF" style="stroke:#000000;stroke-width:1;"/><path d="M1376.5322,707.1133 L1376.5322,717.1133 L1386.5322,717.1133 L1376.5322,707.1133" fill="#FFFFFF" style="stroke:#000000;stroke-width:1;"/><text fill="#000000" font-family="Arial" font-size="13" lengthAdjust="spacing" textLength="275.8691" x="1062.0142" y="724.1802">Every 5 min: elapsed + output-idle notice.</text><text fill="#000000" font-family="Arial" font-size="13" lengthAdjust="spacing" textLength="309.5181" x="1062.0142" y="739.313">After 15 min: inspect progress / error evidence.</text><text fill="#000000" font-family="Arial" font-size="13" lengthAdjust="spacing" textLength="231.188" x="1062.0142" y="754.4458">Silence alone is not proof of failure.</text><text fill="#000000" font-family="Arial" font-size="13" lengthAdjust="spacing" textLength="269.5151" x="1062.0142" y="769.5786">No blind retry or automatic timeout pass.</text><rect fill="#FFFFFF" height="47.9375" rx="12.5" ry="12.5" style="stroke:#000000;stroke-width:1;" width="342.3945" x="693.6196" y="718.4102"/><text fill="#000000" font-family="Arial" font-size="12" lengthAdjust="spacing" textLength="106.3711" x="703.6196" y="739.5488">Invoke ocr review</text><text fill="#000000" font-family="Arial" font-size="12" lengthAdjust="spacing" text-decoration="line-through" textLength="87.3047" x="813.8052" y="739.5488">from &lt;scope&gt;</text><text fill="#000000" font-family="Arial" font-size="12" lengthAdjust="spacing" textLength="121.0898" x="904.9243" y="739.5488">to &lt;resolved head&gt;</text><text fill="#000000" font-family="Arial" font-size="12" lengthAdjust="spacing" textLength="237.3633" x="703.6196" y="753.5176">Stream output to terminal and local log</text><polygon fill="#FFFFFF" points="735.1292,797.6445,994.5046,797.6445,1006.5046,809.6445,994.5046,821.6445,735.1292,821.6445,723.1292,809.6445,735.1292,797.6445" style="stroke:#000000;stroke-width:1;stroke-linejoin:miter;stroke-miterlimit:10;"/><text fill="#000000" font-family="Arial" font-size="11" lengthAdjust="spacing" textLength="259.3755" x="735.1292" y="813.4526">Exit zero AND same head AND clean worktree?</text><text fill="#000000" font-family="Arial" font-size="11" lengthAdjust="spacing" textLength="19.0083" x="704.1208" y="807.0503">yes</text><text fill="#000000" font-family="Arial" font-size="11" lengthAdjust="spacing" textLength="13.7017" x="1006.5046" y="807.0503">no</text><rect fill="#FFFFFF" height="47.9375" rx="12.5" ry="12.5" style="stroke:#000000;stroke-width:1;" width="196.9414" x="614.6584" y="831.6445"/><text fill="#000000" font-family="Arial" font-size="12" lengthAdjust="spacing" textLength="126.7383" x="624.6584" y="852.7832">Execution completed</text><text fill="#000000" font-family="Arial" font-size="12" lengthAdjust="spacing" textLength="176.9414" x="624.6584" y="866.752">Assessment remains pending</text><rect fill="#FFFFFF" height="47.9375" rx="12.5" ry="12.5" style="stroke:#000000;stroke-width:1;" width="212.5098" x="910.2498" y="831.6445"/><text fill="#000000" font-family="Arial" font-size="12" lengthAdjust="spacing" textLength="192.5098" x="920.2498" y="852.7832">Record incomplete / interrupted</text><text fill="#000000" font-family="Arial" font-size="12" lengthAdjust="spacing" textLength="187.418" x="920.2498" y="866.752">Retain log and failure evidence</text><rect fill="#FFFFFF" height="61.9063" rx="12.5" ry="12.5" style="stroke:#000000;stroke-width:1;" width="275.7734" x="878.6179" y="899.582"/><text fill="#000000" font-family="Arial" font-size="12" lengthAdjust="spacing" textLength="255.7734" x="888.6179" y="920.7207">Resolve environment/error; retry explicitly</text><text fill="#000000" font-family="Arial" font-size="12" lengthAdjust="spacing" textLength="232.0078" x="888.6179" y="934.6895">Current runner falls back to full review</text><text fill="#000000" font-family="Arial" font-size="12" lengthAdjust="spacing" textLength="220.6055" x="888.6179" y="948.6582">when latest saved run is unassessed</text><ellipse cx="1016.5046" cy="992.4883" fill="none" rx="11" ry="11" style="stroke:#000000;stroke-width:1;"/><ellipse cx="1016.5046" cy="992.4883" fill="#FFFFFF" rx="6" ry="6" style="stroke:#000000;stroke-width:1;"/><polygon fill="#FFFFFF" points="519.6707,1013.4883,531.6707,1025.4883,519.6707,1037.4883,507.6707,1025.4883,519.6707,1013.4883" style="stroke:#000000;stroke-width:1;stroke-linejoin:miter;stroke-miterlimit:10;"/><rect fill="#FFFFFF" height="47.9375" rx="12.5" ry="12.5" style="stroke:#000000;stroke-width:1;" width="315.4883" x="361.9265" y="1057.4883"/><text fill="#000000" font-family="Arial" font-size="12" lengthAdjust="spacing" textLength="231.7734" x="371.9265" y="1078.627">Main agent reads complete conclusion</text><text fill="#000000" font-family="Arial" font-size="12" lengthAdjust="spacing" textLength="295.4883" x="371.9265" y="1092.5957">Checks original findings + affected test evidence</text><polygon fill="#FFFFFF" points="412.4717,1125.4258,626.8696,1125.4258,638.8696,1137.4258,626.8696,1149.4258,412.4717,1149.4258,400.4717,1137.4258,412.4717,1125.4258" style="stroke:#000000;stroke-width:1;stroke-linejoin:miter;stroke-miterlimit:10;"/><text fill="#000000" font-family="Arial" font-size="11" lengthAdjust="spacing" textLength="214.3979" x="412.4717" y="1141.2339">Complete conclusion with no blockers?</text><text fill="#000000" font-family="Arial" font-size="11" lengthAdjust="spacing" textLength="19.0083" x="381.4634" y="1134.8315">yes</text><text fill="#000000" font-family="Arial" font-size="11" lengthAdjust="spacing" textLength="13.7017" x="638.8696" y="1134.8315">no</text><rect fill="#FFFFFF" height="47.9375" rx="12.5" ry="12.5" style="stroke:#000000;stroke-width:1;" width="320.0762" x="97.064" y="1159.4258"/><text fill="#000000" font-family="Arial" font-size="12" lengthAdjust="spacing" textLength="176.4375" x="107.064" y="1180.5645">Record pass + evidence note</text><text fill="#000000" font-family="Arial" font-size="12" lengthAdjust="spacing" textLength="300.0762" x="107.064" y="1194.5332">Verify PR head and required checks before merge</text><ellipse cx="257.1021" cy="1253.3633" fill="none" rx="11" ry="11" style="stroke:#000000;stroke-width:1;"/><ellipse cx="257.1021" cy="1253.3633" fill="#FFFFFF" rx="6" ry="6" style="stroke:#000000;stroke-width:1;"/><polygon fill="#FFFFFF" points="702.2637,1159.4258,862.2148,1159.4258,874.2148,1171.4258,862.2148,1183.4258,702.2637,1183.4258,690.2637,1171.4258,702.2637,1159.4258" style="stroke:#000000;stroke-width:1;stroke-linejoin:miter;stroke-miterlimit:10;"/><text fill="#000000" font-family="Arial" font-size="11" lengthAdjust="spacing" textLength="159.9512" x="702.2637" y="1175.2339">Confirmed blocking findings?</text><text fill="#000000" font-family="Arial" font-size="11" lengthAdjust="spacing" textLength="19.0083" x="671.2554" y="1168.8315">yes</text><text fill="#000000" font-family="Arial" font-size="11" lengthAdjust="spacing" textLength="104.0542" x="874.2148" y="1168.8315">missing conclusion</text><rect fill="#FFFFFF" height="61.9063" rx="12.5" ry="12.5" style="stroke:#000000;stroke-width:1;" width="335.457" x="447.1401" y="1193.4258"/><text fill="#000000" font-family="Arial" font-size="12" lengthAdjust="spacing" textLength="199.3594" x="457.1401" y="1214.5645">Record blocking + evidence note</text><text fill="#000000" font-family="Arial" font-size="12" lengthAdjust="spacing" textLength="315.457" x="457.1401" y="1228.5332">Batch fixes -&gt; affected tests -&gt; applicable redaction</text><text fill="#000000" font-family="Arial" font-size="12" lengthAdjust="spacing" textLength="269.2793" x="457.1401" y="1242.502">Commit -&gt; push -&gt; select next review scope</text><ellipse cx="614.8687" cy="1301.332" fill="none" rx="11" ry="11" style="stroke:#000000;stroke-width:1;"/><ellipse cx="614.8687" cy="1301.332" fill="#FFFFFF" rx="6" ry="6" style="stroke:#000000;stroke-width:1;"/><rect fill="#FFFFFF" height="47.9375" rx="12.5" ry="12.5" style="stroke:#000000;stroke-width:1;" width="294.0254" x="802.5972" y="1193.4258"/><text fill="#000000" font-family="Arial" font-size="12" lengthAdjust="spacing" textLength="113.959" x="812.5972" y="1214.5645">Do not record pass</text><text fill="#000000" font-family="Arial" font-size="12" lengthAdjust="spacing" textLength="274.0254" x="812.5972" y="1228.5332">Diagnose and rerun with --force-full if needed</text><ellipse cx="949.6099" cy="1287.3633" fill="none" rx="11" ry="11" style="stroke:#000000;stroke-width:1;"/><ellipse cx="949.6099" cy="1287.3633" fill="#FFFFFF" rx="6" ry="6" style="stroke:#000000;stroke-width:1;"/><line style="stroke:#475569;stroke-width:1;" x1="519.6707" x2="519.6707" y1="76.6094" y2="96.6094"/><polygon fill="#475569" points="515.6707,86.6094,519.6707,96.6094,523.6707,86.6094,519.6707,90.6094" style="stroke:#475569;stroke-width:1;stroke-linejoin:miter;stroke-miterlimit:10;"/><line style="stroke:#475569;stroke-width:1;" x1="519.6707" x2="519.6707" y1="144.5469" y2="164.5469"/><polygon fill="#475569" points="515.6707,154.5469,519.6707,164.5469,523.6707,154.5469,519.6707,158.5469" style="stroke:#475569;stroke-width:1;stroke-linejoin:miter;stroke-miterlimit:10;"/><line style="stroke:#475569;stroke-width:1;" x1="519.6707" x2="519.6707" y1="328.8242" y2="350.3555"/><polygon fill="#475569" points="515.6707,340.3555,519.6707,350.3555,523.6707,340.3555,519.6707,344.3555" style="stroke:#475569;stroke-width:1;stroke-linejoin:miter;stroke-miterlimit:10;"/><line style="stroke:#475569;stroke-width:1;" x1="519.6707" x2="519.6707" y1="256.4844" y2="280.8867"/><polygon fill="#475569" points="515.6707,270.8867,519.6707,280.8867,523.6707,270.8867,519.6707,274.8867" style="stroke:#475569;stroke-width:1;stroke-linejoin:miter;stroke-miterlimit:10;"/><line style="stroke:#475569;stroke-width:1;" x1="639.4658" x2="657.9158" y1="244.4844" y2="244.4844"/><polygon fill="#475569" points="653.9158,320.3555,657.9158,330.3555,661.9158,320.3555,657.9158,324.3555" style="stroke:#475569;stroke-width:1;stroke-linejoin:miter;stroke-miterlimit:10;"/><line style="stroke:#475569;stroke-width:1;" x1="657.9158" x2="657.9158" y1="244.4844" y2="394.3555"/><line style="stroke:#475569;stroke-width:1;" x1="657.9158" x2="519.6707" y1="394.3555" y2="394.3555"/><line style="stroke:#475569;stroke-width:1;" x1="519.6707" x2="519.6707" y1="394.3555" y2="414.3555"/><polygon fill="#475569" points="515.6707,404.3555,519.6707,414.3555,523.6707,404.3555,519.6707,408.3555" style="stroke:#475569;stroke-width:1;stroke-linejoin:miter;stroke-miterlimit:10;"/><line style="stroke:#475569;stroke-width:1;" x1="519.6707" x2="519.6707" y1="212.4844" y2="232.4844"/><polygon fill="#475569" points="515.6707,222.4844,519.6707,232.4844,523.6707,222.4844,519.6707,226.4844" style="stroke:#475569;stroke-width:1;stroke-linejoin:miter;stroke-miterlimit:10;"/><line style="stroke:#475569;stroke-width:1;" x1="693.1477" x2="529.0127" y1="469.1719" y2="469.1719"/><line style="stroke:#475569;stroke-width:1;" x1="529.0127" x2="529.0127" y1="469.1719" y2="524.8086"/><polygon fill="#475569" points="525.0127,514.8086,529.0127,524.8086,533.0127,514.8086,529.0127,518.8086" style="stroke:#475569;stroke-width:1;stroke-linejoin:miter;stroke-miterlimit:10;"/><line style="stroke:#475569;stroke-width:1;" x1="1036.4861" x2="1200.6211" y1="469.1719" y2="469.1719"/><line style="stroke:#475569;stroke-width:1;" x1="1200.6211" x2="1200.6211" y1="469.1719" y2="498.3789"/><polygon fill="#475569" points="1196.6211,488.3789,1200.6211,498.3789,1204.6211,488.3789,1200.6211,492.3789" style="stroke:#475569;stroke-width:1;stroke-linejoin:miter;stroke-miterlimit:10;"/><line style="stroke:#475569;stroke-width:1;" x1="529.0127" x2="529.0127" y1="572.7461" y2="617.1758"/><line style="stroke:#475569;stroke-width:1;" x1="529.0127" x2="852.8169" y1="617.1758" y2="617.1758"/><polygon fill="#475569" points="842.8169,613.1758,852.8169,617.1758,842.8169,621.1758,846.8169,617.1758" style="stroke:#475569;stroke-width:1;stroke-linejoin:miter;stroke-miterlimit:10;"/><line style="stroke:#475569;stroke-width:1;" x1="1200.6211" x2="1200.6211" y1="546.3164" y2="617.1758"/><line style="stroke:#475569;stroke-width:1;" x1="1200.6211" x2="876.8169" y1="617.1758" y2="617.1758"/><polygon fill="#475569" points="886.8169,613.1758,876.8169,617.1758,886.8169,621.1758,882.8169,617.1758" style="stroke:#475569;stroke-width:1;stroke-linejoin:miter;stroke-miterlimit:10;"/><line style="stroke:#475569;stroke-width:1;" x1="864.8169" x2="864.8169" y1="629.1758" y2="649.1758"/><polygon fill="#475569" points="860.8169,639.1758,864.8169,649.1758,868.8169,639.1758,864.8169,643.1758" style="stroke:#475569;stroke-width:1;stroke-linejoin:miter;stroke-miterlimit:10;"/><line style="stroke:#475569;stroke-width:1;" x1="864.8169" x2="864.8169" y1="697.1133" y2="718.4102"/><polygon fill="#475569" points="860.8169,708.4102,864.8169,718.4102,868.8169,708.4102,864.8169,712.4102" style="stroke:#475569;stroke-width:1;stroke-linejoin:miter;stroke-miterlimit:10;"/><line style="stroke:#475569;stroke-width:1;" x1="1016.5046" x2="1016.5046" y1="879.582" y2="899.582"/><polygon fill="#475569" points="1012.5046,889.582,1016.5046,899.582,1020.5046,889.582,1016.5046,893.582" style="stroke:#475569;stroke-width:1;stroke-linejoin:miter;stroke-miterlimit:10;"/><line style="stroke:#475569;stroke-width:1;" x1="1016.5046" x2="1016.5046" y1="961.4883" y2="981.4883"/><polygon fill="#475569" points="1012.5046,971.4883,1016.5046,981.4883,1020.5046,971.4883,1016.5046,975.4883" style="stroke:#475569;stroke-width:1;stroke-linejoin:miter;stroke-miterlimit:10;"/><line style="stroke:#475569;stroke-width:1;" x1="723.1292" x2="713.1292" y1="809.6445" y2="809.6445"/><line style="stroke:#475569;stroke-width:1;" x1="713.1292" x2="713.1292" y1="809.6445" y2="831.6445"/><polygon fill="#475569" points="709.1292,821.6445,713.1292,831.6445,717.1292,821.6445,713.1292,825.6445" style="stroke:#475569;stroke-width:1;stroke-linejoin:miter;stroke-miterlimit:10;"/><line style="stroke:#475569;stroke-width:1;" x1="1006.5046" x2="1016.5046" y1="809.6445" y2="809.6445"/><line style="stroke:#475569;stroke-width:1;" x1="1016.5046" x2="1016.5046" y1="809.6445" y2="831.6445"/><polygon fill="#475569" points="1012.5046,821.6445,1016.5046,831.6445,1020.5046,821.6445,1016.5046,825.6445" style="stroke:#475569;stroke-width:1;stroke-linejoin:miter;stroke-miterlimit:10;"/><line style="stroke:#475569;stroke-width:1;" x1="713.1292" x2="713.1292" y1="879.582" y2="1025.4883"/><line style="stroke:#475569;stroke-width:1;" x1="713.1292" x2="531.6707" y1="1025.4883" y2="1025.4883"/><polygon fill="#475569" points="541.6707,1021.4883,531.6707,1025.4883,541.6707,1029.4883,537.6707,1025.4883" style="stroke:#475569;stroke-width:1;stroke-linejoin:miter;stroke-miterlimit:10;"/><line style="stroke:#475569;stroke-width:1;" x1="864.8169" x2="864.8169" y1="766.3477" y2="797.6445"/><polygon fill="#475569" points="860.8169,787.6445,864.8169,797.6445,868.8169,787.6445,864.8169,791.6445" style="stroke:#475569;stroke-width:1;stroke-linejoin:miter;stroke-miterlimit:10;"/><line style="stroke:#475569;stroke-width:1;" x1="401.8789" x2="174.5244" y1="427.1602" y2="427.1602"/><line style="stroke:#475569;stroke-width:1;" x1="174.5244" x2="174.5244" y1="427.1602" y2="449.9648"/><polygon fill="#475569" points="170.5244,439.9648,174.5244,449.9648,178.5244,439.9648,174.5244,443.9648" style="stroke:#475569;stroke-width:1;stroke-linejoin:miter;stroke-miterlimit:10;"/><line style="stroke:#475569;stroke-width:1;" x1="637.4624" x2="864.8169" y1="427.1602" y2="427.1602"/><line style="stroke:#475569;stroke-width:1;" x1="864.8169" x2="864.8169" y1="427.1602" y2="449.9648"/><polygon fill="#475569" points="860.8169,439.9648,864.8169,449.9648,868.8169,439.9648,864.8169,443.9648" style="stroke:#475569;stroke-width:1;stroke-linejoin:miter;stroke-miterlimit:10;"/><line style="stroke:#475569;stroke-width:1;" x1="174.5244" x2="174.5244" y1="497.9023" y2="1025.4883"/><line style="stroke:#475569;stroke-width:1;" x1="174.5244" x2="507.6707" y1="1025.4883" y2="1025.4883"/><polygon fill="#475569" points="497.6707,1021.4883,507.6707,1025.4883,497.6707,1029.4883,501.6707,1025.4883" style="stroke:#475569;stroke-width:1;stroke-linejoin:miter;stroke-miterlimit:10;"/><line style="stroke:#475569;stroke-width:1;" x1="519.6707" x2="519.6707" y1="1037.4883" y2="1057.4883"/><polygon fill="#475569" points="515.6707,1047.4883,519.6707,1057.4883,523.6707,1047.4883,519.6707,1051.4883" style="stroke:#475569;stroke-width:1;stroke-linejoin:miter;stroke-miterlimit:10;"/><line style="stroke:#475569;stroke-width:1;" x1="257.1021" x2="257.1021" y1="1207.3633" y2="1242.3633"/><polygon fill="#475569" points="253.1021,1232.3633,257.1021,1242.3633,261.1021,1232.3633,257.1021,1236.3633" style="stroke:#475569;stroke-width:1;stroke-linejoin:miter;stroke-miterlimit:10;"/><line style="stroke:#475569;stroke-width:1;" x1="614.8687" x2="614.8687" y1="1255.332" y2="1290.332"/><polygon fill="#475569" points="610.8687,1280.332,614.8687,1290.332,618.8687,1280.332,614.8687,1284.332" style="stroke:#475569;stroke-width:1;stroke-linejoin:miter;stroke-miterlimit:10;"/><line style="stroke:#475569;stroke-width:1;" x1="949.6099" x2="949.6099" y1="1241.3633" y2="1276.3633"/><polygon fill="#475569" points="945.6099,1266.3633,949.6099,1276.3633,953.6099,1266.3633,949.6099,1270.3633" style="stroke:#475569;stroke-width:1;stroke-linejoin:miter;stroke-miterlimit:10;"/><line style="stroke:#475569;stroke-width:1;" x1="690.2637" x2="614.8687" y1="1171.4258" y2="1171.4258"/><line style="stroke:#475569;stroke-width:1;" x1="614.8687" x2="614.8687" y1="1171.4258" y2="1193.4258"/><polygon fill="#475569" points="610.8687,1183.4258,614.8687,1193.4258,618.8687,1183.4258,614.8687,1187.4258" style="stroke:#475569;stroke-width:1;stroke-linejoin:miter;stroke-miterlimit:10;"/><line style="stroke:#475569;stroke-width:1;" x1="874.2148" x2="949.6099" y1="1171.4258" y2="1171.4258"/><line style="stroke:#475569;stroke-width:1;" x1="949.6099" x2="949.6099" y1="1171.4258" y2="1193.4258"/><polygon fill="#475569" points="945.6099,1183.4258,949.6099,1193.4258,953.6099,1183.4258,949.6099,1187.4258" style="stroke:#475569;stroke-width:1;stroke-linejoin:miter;stroke-miterlimit:10;"/><line style="stroke:#475569;stroke-width:1;" x1="400.4717" x2="257.1021" y1="1137.4258" y2="1137.4258"/><line style="stroke:#475569;stroke-width:1;" x1="257.1021" x2="257.1021" y1="1137.4258" y2="1159.4258"/><polygon fill="#475569" points="253.1021,1149.4258,257.1021,1159.4258,261.1021,1149.4258,257.1021,1153.4258" style="stroke:#475569;stroke-width:1;stroke-linejoin:miter;stroke-miterlimit:10;"/><line style="stroke:#475569;stroke-width:1;" x1="638.8696" x2="782.2393" y1="1137.4258" y2="1137.4258"/><line style="stroke:#475569;stroke-width:1;" x1="782.2393" x2="782.2393" y1="1137.4258" y2="1159.4258"/><polygon fill="#475569" points="778.2393,1149.4258,782.2393,1159.4258,786.2393,1149.4258,782.2393,1153.4258" style="stroke:#475569;stroke-width:1;stroke-linejoin:miter;stroke-miterlimit:10;"/><line style="stroke:#475569;stroke-width:1;" x1="519.6707" x2="519.6707" y1="1105.4258" y2="1125.4258"/><polygon fill="#475569" points="515.6707,1115.4258,519.6707,1125.4258,523.6707,1115.4258,519.6707,1119.4258" style="stroke:#475569;stroke-width:1;stroke-linejoin:miter;stroke-miterlimit:10;"/><?plantuml-src XLPDRnit4BthLqpHIm934GeqBMAbALJRGNse4IX0JxfGt5ajOIwv9RcorL_VDxCViXiL1GnhkII7RzwyUTplIiCjK-UD2ulyw49daccfujhqldoEeJmOp6-IC_x5V6vC5PzSE51jVEONCvkKujDDz37Hzp_-_FxzJnyMnHNFz6LBMpuwVg9j7m8dMjBTCzk-k1Z8X0gpDXuvdUYMYt5-iSZ5fBAuniQkttkN6wu8QmC0LLIpANrYsYSJRBEcfvWUIs8cwzc4NTXodJWtP6pfZPVJzoRpcl0o-YFhQDMmgUZhxvkyNbnlx5-zGy0vK1hG-cWV9HnMuX6XiZdYV80hl5wucjviR768c8Qqa7WNStPxv1nJrvX0jd6--lKjWUj0RqwStow8hhVSnLI8drqkmgH6NFbus8Nxa3ksCWVurALeEUSrLP52B5JrdNTMZoViYjs2KGDw4-BR1OVArOhggzJjd2NFNDlOTfuBLxiWj8T8osKTa-LbtNj_0MQFu4FIvo1Nf42tG-Wn0vCpSBOSYh0mZAWJI9W4yL3K-WLM8i7vHNYEVPxudk6fA8OW67HuMksb60Ys2vhTQmte-g78tHHJKtSPKs2mnBGBjwwkEGb4soVzbJNh_wD1YL1ySWBzSZvYHgXdxKzJx-p2ndjoeN0wSX06a5dh2dO0iWlMznLNQusDga8_xj0K7HBzWNOaSn1uRPyX18X3Mu3siG-LwDyzasixqSUUWPl7dSPQxhGQm8_0gJM2mYQMkk2vCwLvDow-5tIr0JUqeepQ9bTEmn4cENrh4yIyR6FL--c8FJS6kIVCcWHj5qXLoh2YpPTx2MJXAGOFZHFEJ-CsYrOuQCmUrKZeyO334Wzj9wIJ6W3Idl3DsgYTYcZW3cjSxQG7MJodi3yD6rZbN0JdIvLzKxlNdh0Bd-LiZARZfIX38s7hHb94UtTddTgOAf7WsFHpyw8hHYbUWOJOoGjLXNQBCY-Xh-_3CJx27MoQH0_ffTZIHztr2SCIwUDeLOEoFk50s18SDlQbwmjX1OhNke1CHFc3EU4SEU9VWhfJNtrFM7qDQamdUhqQ8orTvKKfnTcH-4sDoFJ3kDwDPWGREYJfw1KnJ3uHe5SSfarVdPS16Hy3Iy-9LM5Fh0b_DHmT6XcMFaI2c84vSG4kyOg-nDO00HNNCd1flxzRlAgfkCNTiolqDwT8cuTRk19SG1cMaJh_xDyNElZkaWTkpgQ57e4ePyjQNzAHr5xwQGm0ChJ5KzzfjAtSNK7BBKKPqvwfMazXXak8mz6b6EJmbNAw7YdXPx5ut9kdNRWPVMgyNt3X-WpXsaUHWBRD8A9TU99yFOG8nnWC6tka57sON6e0e9V6fF7X__KBou7CgZnpX0SngmpU0APX-vXHCdTGvSsDUKK6nch5j_NySyPIjfjlOz6JAutOhfewftpXvb6oHGa8FmLKDUp2ds829-bQhRzHDQcLL70Q1Jdu8hMS3fUkoa5GDp7KBiaNnNIvp3bTl0CKqhpq6rY_cOBsXpd3w9QVNdColEdqyfQl0q254msqwjKWyrqFayTlPYzD5_YvJ2QXvl2wW9fCw_2veVVBnEs8zdRuNaXd7kN-CuSGiMrWJ0IYXNXv-GanWRdwRxdy0m00?></g></svg>