<svg xmlns="http://www.w3.org/2000/svg" xmlns:xlink="http://www.w3.org/1999/xlink" contentStyleType="text/css" data-diagram-type="STATE" height="1097px" preserveAspectRatio="none" style="width:2110px;height:1097px;background:#FFFFFF;" version="1.1" viewBox="0 0 2110 1097" width="2110px" zoomAndPan="magnify"><?plantuml 1.2026.6?><defs/><g><g class="title" data-source-line="5"><text fill="#000000" font-family="Arial" font-size="22" font-weight="700" lengthAdjust="spacing" textLength="631.2969" x="738.4553" y="35.4209">Ticket Loop - Planning, Dependencies and Delivery</text></g><g class="entity" data-qualified-name="plan" data-source-line="7" id="ent0001"><rect fill="#FFFFFF" height="68.8906" rx="12.5" ry="12.5" style="stroke:#000000;stroke-width:1;" width="350.2988" x="1298.31" y="755.2894"/><line style="stroke:#000000;stroke-width:1;" x1="1298.31" x2="1648.6088" y1="814.18" y2="814.18"/><text fill="#000000" font-family="Arial" font-size="14" lengthAdjust="spacing" textLength="165.6895" x="1308.31" y="773.2845">Define behavior Tickets</text><text fill="#000000" font-family="Arial" font-size="14" lengthAdjust="spacing" textLength="318.3223" x="1308.31" y="789.5814">Then define ordered Slices inside each Ticket</text><text fill="#000000" font-family="Arial" font-size="14" lengthAdjust="spacing" textLength="330.2988" x="1308.31" y="805.8782">Acceptance / scope / dependencies / validation</text></g><g class="entity" data-qualified-name="lookup" data-source-line="8" id="ent0002"><rect fill="#FFFFFF" height="52.5938" rx="12.5" ry="12.5" style="stroke:#000000;stroke-width:1;" width="313.002" x="1256.96" y="909.3194"/><line style="stroke:#000000;stroke-width:1;" x1="1256.96" x2="1569.962" y1="951.9131" y2="951.9131"/><text fill="#000000" font-family="Arial" font-size="14" lengthAdjust="spacing" textLength="293.002" x="1266.96" y="927.3145">Resolve repository + base + Issue access</text><text fill="#000000" font-family="Arial" font-size="14" lengthAdjust="spacing" textLength="239.5449" x="1266.96" y="943.6114">Search stable plan/Ticket markers</text></g><g class="entity" data-qualified-name="persist" data-source-line="9" id="ent0003"><rect fill="#FFFFFF" height="68.8906" rx="12.5" ry="12.5" style="stroke:#000000;stroke-width:1;" width="371.5859" x="1282.67" y="58.6094"/><line style="stroke:#000000;stroke-width:1;" x1="1282.67" x2="1654.2559" y1="117.5" y2="117.5"/><text fill="#000000" font-family="Arial" font-size="14" lengthAdjust="spacing" textLength="276.1309" x="1292.67" y="76.6045">Reuse unique matches or create Issues</text><text fill="#000000" font-family="Arial" font-size="14" lengthAdjust="spacing" textLength="334.3936" x="1292.67" y="92.9014">Parent plan -&gt; all initial Tickets -&gt; parent index</text><text fill="#000000" font-family="Arial" font-size="14" lengthAdjust="spacing" textLength="351.5859" x="1292.67" y="109.1982">Persist Status / Branch / Base / Dependencies / PR</text></g><g class="entity" data-qualified-name="plan_blocked" data-source-line="10" id="ent0004"><rect fill="#FFF4CC" height="68.8906" rx="12.5" ry="12.5" style="stroke:#000000;stroke-width:1;" width="345.7598" x="917.58" y="755.2894"/><line style="stroke:#000000;stroke-width:1;" x1="917.58" x2="1263.3398" y1="814.18" y2="814.18"/><text fill="#000000" font-family="Arial" font-size="14" lengthAdjust="spacing" textLength="119.4033" x="927.58" y="773.2845">Planning blocked</text><text fill="#000000" font-family="Arial" font-size="14" lengthAdjust="spacing" textLength="269.3838" x="927.58" y="789.5814">Report ambiguity or failed persistence</text><text fill="#000000" font-family="Arial" font-size="14" lengthAdjust="spacing" textLength="325.7598" x="927.58" y="805.8782">Keep created Issue links; no local ticket mirror</text></g><g class="entity" data-qualified-name="select" data-source-line="11" id="ent0005"><rect fill="#FFFFFF" height="52.5938" rx="12.5" ry="12.5" style="stroke:#000000;stroke-width:1;" width="366.0625" x="314.43" y="205.3194"/><line style="stroke:#000000;stroke-width:1;" x1="314.43" x2="680.4925" y1="247.9131" y2="247.9131"/><text fill="#000000" font-family="Arial" font-size="14" lengthAdjust="spacing" textLength="167.4326" x="324.43" y="223.3145">Select unfinished Ticket</text><text fill="#000000" font-family="Arial" font-size="14" lengthAdjust="spacing" textLength="346.0625" x="324.43" y="239.6114">Read authoritative Issue + dependency evidence</text></g><g class="entity" data-qualified-name="dependency" data-source-line="12" id="ent0006"><rect fill="#FFFFFF" height="52.5938" rx="12.5" ry="12.5" style="stroke:#000000;stroke-width:1;" width="200.3047" x="605.31" y="334.9094"/><line style="stroke:#000000;stroke-width:1;" x1="605.31" x2="805.6147" y1="377.5031" y2="377.5031"/><text fill="#000000" font-family="Arial" font-size="14" lengthAdjust="spacing" textLength="124.1406" x="615.31" y="352.9045">Dependency gate</text><text fill="#000000" font-family="Arial" font-size="14" lengthAdjust="spacing" textLength="180.3047" x="615.31" y="369.2014">Prerequisite PRs merged?</text></g><g class="entity" data-qualified-name="wait_dep" data-source-line="13" id="ent0007"><rect fill="#FFF4CC" height="68.8906" rx="12.5" ry="12.5" style="stroke:#000000;stroke-width:1;" width="296.7598" x="277.08" y="464.4994"/><line style="stroke:#000000;stroke-width:1;" x1="277.08" x2="573.8398" y1="523.39" y2="523.39"/><text fill="#000000" font-family="Arial" font-size="14" lengthAdjust="spacing" textLength="276.7598" x="287.08" y="482.4945">Dependency wait [blocked; Issue open]</text><text fill="#000000" font-family="Arial" font-size="14" lengthAdjust="spacing" textLength="206.5684" x="287.08" y="498.7914">Record prerequisite + reason</text><text fill="#000000" font-family="Arial" font-size="14" lengthAdjust="spacing" textLength="252.6973" x="287.08" y="515.0882">No implementation branch work yet</text></g><g class="entity" data-qualified-name="branch" data-source-line="14" id="ent0008"><rect fill="#FFFFFF" height="68.8906" rx="12.5" ry="12.5" style="stroke:#000000;stroke-width:1;" width="350.4561" x="1065.24" y="464.4994"/><line style="stroke:#000000;stroke-width:1;" x1="1065.24" x2="1415.6961" y1="523.39" y2="523.39"/><text fill="#000000" font-family="Arial" font-size="14" lengthAdjust="spacing" textLength="330.4561" x="1075.24" y="482.4945">Sync actual base; create/resume Ticket branch</text><text fill="#000000" font-family="Arial" font-size="14" lengthAdjust="spacing" textLength="205.9941" x="1075.24" y="498.7914">Verify Branch/Base metadata</text><text fill="#000000" font-family="Arial" font-size="14" lengthAdjust="spacing" textLength="134.5928" x="1075.24" y="515.0882">Status: in_progress</text></g><g class="entity" data-qualified-name="slices" data-source-line="15" id="ent0009"><rect fill="#FFFFFF" height="68.8906" rx="12.5" ry="12.5" style="stroke:#000000;stroke-width:1;" width="266.6953" x="1044.12" y="594.3894"/><line style="stroke:#000000;stroke-width:1;" x1="1044.12" x2="1310.8153" y1="653.28" y2="653.28"/><text fill="#000000" font-family="Arial" font-size="14" lengthAdjust="spacing" textLength="147.9365" x="1054.12" y="612.3845">Execute Ticket Slices</text><text fill="#000000" font-family="Arial" font-size="14" lengthAdjust="spacing" textLength="170.1602" x="1054.12" y="628.6814">See ticket-slice-loop.svg</text><text fill="#000000" font-family="Arial" font-size="14" lengthAdjust="spacing" textLength="246.6953" x="1054.12" y="644.9782">All Slices share this Ticket's branch</text></g><g class="entity" data-qualified-name="deliver" data-source-line="16" id="ent0010"><rect fill="#FFFFFF" height="68.8906" rx="12.5" ry="12.5" style="stroke:#000000;stroke-width:1;" width="299.4189" x="485.75" y="755.2894"/><line style="stroke:#000000;stroke-width:1;" x1="485.75" x2="785.1689" y1="814.18" y2="814.18"/><text fill="#000000" font-family="Arial" font-size="14" lengthAdjust="spacing" textLength="200.2178" x="495.75" y="773.2845">Publish / review / fix / merge</text><text fill="#000000" font-family="Arial" font-size="14" lengthAdjust="spacing" textLength="185.3838" x="495.75" y="789.5814">See ticket-review-loop.svg</text><text fill="#000000" font-family="Arial" font-size="14" lengthAdjust="spacing" textLength="279.4189" x="495.75" y="805.8782">Issue remains open until verified merge</text></g><g class="entity" data-qualified-name="done" data-source-line="17" id="ent0011"><rect fill="#DCFCE7" height="68.8906" rx="12.5" ry="12.5" style="stroke:#000000;stroke-width:1;" width="338.6641" x="316.13" y="901.1794"/><line style="stroke:#000000;stroke-width:1;" x1="316.13" x2="654.7941" y1="960.07" y2="960.07"/><text fill="#000000" font-family="Arial" font-size="14" lengthAdjust="spacing" textLength="112.998" x="326.13" y="919.1745">Verified merged</text><text fill="#000000" font-family="Arial" font-size="14" lengthAdjust="spacing" textLength="266.3486" x="326.13" y="935.4714">Clean exact source branch; sync base</text><text fill="#000000" font-family="Arial" font-size="14" lengthAdjust="spacing" textLength="318.6641" x="326.13" y="951.7682">Status: done; close Ticket; keep PR reference</text></g><g class="entity" data-qualified-name="state_docs" data-source-line="18" id="ent0012"><rect fill="#FFFFFF" height="52.5938" rx="12.5" ry="12.5" style="stroke:#000000;stroke-width:1;" width="350.9277" x="12" y="1031.0694"/><line style="stroke:#000000;stroke-width:1;" x1="12" x2="362.9277" y1="1073.6631" y2="1073.6631"/><text fill="#000000" font-family="Arial" font-size="14" lengthAdjust="spacing" textLength="226.2559" x="22" y="1049.0645">Reconcile State/Docs if changed</text><text fill="#000000" font-family="Arial" font-size="14" lengthAdjust="spacing" textLength="330.9277" x="22" y="1065.3614">Tracked follow-up edits use a new branch + PR</text></g><g class="entity" data-qualified-name="complete" data-source-line="19" id="ent0013"><rect fill="#DCFCE7" height="52.5938" rx="12.5" ry="12.5" style="stroke:#000000;stroke-width:1;" width="302.167" x="252.38" y="334.9094"/><line style="stroke:#000000;stroke-width:1;" x1="252.38" x2="554.547" y1="377.5031" y2="377.5031"/><text fill="#000000" font-family="Arial" font-size="14" lengthAdjust="spacing" textLength="99.627" x="262.38" y="352.9045">Plan complete</text><text fill="#000000" font-family="Arial" font-size="14" lengthAdjust="spacing" textLength="282.167" x="262.38" y="369.2014">All Ticket PRs merged; no open blockers</text></g><g class="start_entity" data-qualified-name=".start." data-source-line="21" id="ent0014"><ellipse cx="1531.46" cy="628.8394" fill="#FFFFFF" rx="10" ry="10" style="stroke:#000000;stroke-width:1;"/></g><g class="end_entity" data-qualified-name=".end." data-source-line="39" id="ent0033"><ellipse cx="231.46" cy="498.9494" fill="none" rx="11" ry="11" style="stroke:#000000;stroke-width:1;"/><ellipse cx="231.46" cy="498.9494" fill="#FFFFFF" rx="6" ry="6" style="stroke:#000000;stroke-width:1;"/></g><g class="entity" data-qualified-name="GMN35" data-source-line="42" id="ent0036"><path d="M1689.73,57.7794 L1689.73,89.0494 L1654.38,93.0494 L1689.73,97.0494 L1689.73,128.3106 A0,0 0 0 0 1689.73,128.3106 L2095.2075,128.3106 A0,0 0 0 0 2095.2075,128.3106 L2095.2075,67.7794 L2085.2075,57.7794 L1689.73,57.7794 A0,0 0 0 0 1689.73,57.7794" fill="#FFFFFF" style="stroke:#000000;stroke-width:1;"/><path d="M2085.2075,57.7794 L2085.2075,67.7794 L2095.2075,67.7794 L2085.2075,57.7794" fill="#FFFFFF" style="stroke:#000000;stroke-width:1;"/><text fill="#000000" font-family="Arial" font-size="13" lengthAdjust="spacing" textLength="255.9756" x="1695.73" y="74.8463">Parent Issue: milestones + Ticket links.</text><text fill="#000000" font-family="Arial" font-size="13" lengthAdjust="spacing" textLength="380.8784" x="1695.73" y="89.9791">Ticket Issue: behavior + nested Slice plan + current state.</text><text fill="#000000" font-family="Arial" font-size="13" lengthAdjust="spacing" textLength="384.4775" x="1695.73" y="105.1119">One Ticket = one Issue = one implementation branch / PR.</text><text fill="#000000" font-family="Arial" font-size="13" lengthAdjust="spacing" textLength="361.1563" x="1695.73" y="120.2447">Slices do not create separate branches or ticket Issues.</text></g><g class="entity" data-qualified-name="GMN38" data-source-line="48" id="ent0039"><path d="M608.91,471.2494 L608.91,494.9494 L573.98,498.9494 L608.91,502.9494 L608.91,526.6478 A0,0 0 0 0 608.91,526.6478 L1030.0091,526.6478 A0,0 0 0 0 1030.0091,526.6478 L1030.0091,481.2494 L1020.0091,471.2494 L608.91,471.2494 A0,0 0 0 0 608.91,471.2494" fill="#FFFFFF" style="stroke:#000000;stroke-width:1;"/><path d="M1020.0091,471.2494 L1020.0091,481.2494 L1030.0091,481.2494 L1020.0091,471.2494" fill="#FFFFFF" style="stroke:#000000;stroke-width:1;"/><text fill="#000000" font-family="Arial" font-size="13" lengthAdjust="spacing" textLength="351.5396" x="614.91" y="488.3163">Unchanged state is not a reason for a tight retry loop.</text><text fill="#000000" font-family="Arial" font-size="13" lengthAdjust="spacing" textLength="355.3037" x="614.91" y="503.4491">Work on a different ready Ticket only when authorized</text><text fill="#000000" font-family="Arial" font-size="13" lengthAdjust="spacing" textLength="400.0991" x="614.91" y="518.5819">and ownership boundaries permit; keep dependencies intact.</text></g><!--link *start* to plan--><g class="link" data-entity-1="ent0014" data-entity-2="ent0001" data-link-type="dependency" data-source-line="21" id="lnk15"><path d="M1528.35,638.3794 C1520.46,659.9794 1501.1146,712.9825 1487.4946,750.2925" fill="none" id="*start*-to-plan" style="stroke:#475569;stroke-width:1;"/><polygon fill="#475569" points="1485.78,754.9894,1492.6237,747.9067,1487.4946,750.2925,1485.1088,745.1634,1485.78,754.9894" style="stroke:#475569;stroke-width:1;stroke-linejoin:miter;stroke-miterlimit:10;"/></g><!--link plan to lookup--><g class="link" data-entity-1="ent0001" data-entity-2="ent0002" data-link-type="dependency" data-source-line="22" id="lnk16"><path d="M1493.3,824.6394 C1499.29,839.3994 1502.61,856.6194 1495.46,871.1794 C1487.93,886.5294 1478.7496,896.2866 1465.0796,906.1866" fill="none" id="plan-to-lookup" style="stroke:#475569;stroke-width:1;"/><polygon fill="#475569" points="1461.03,909.1194,1470.6654,907.0801,1465.0796,906.1866,1465.973,900.6008,1461.03,909.1194" style="stroke:#475569;stroke-width:1;stroke-linejoin:miter;stroke-miterlimit:10;"/></g><!--link lookup to persist--><g class="link" data-entity-1="ent0002" data-entity-2="ent0003" data-link-type="dependency" data-source-line="23" id="lnk17"><path d="M1570.11,912.9694 C1637.65,893.9094 1701.46,858.0794 1701.46,790.7294 C1701.46,230.6094 1701.46,230.6094 1701.46,230.6094 C1701.46,180.3294 1665.1664,150.1773 1617.6364,129.8273" fill="none" id="lookup-to-persist" style="stroke:#475569;stroke-width:1;"/><polygon fill="#475569" points="1613.04,127.8594,1619.7392,135.0788,1617.6364,129.8273,1622.8879,127.7246,1613.04,127.8594" style="stroke:#475569;stroke-width:1;stroke-linejoin:miter;stroke-miterlimit:10;"/><text fill="#000000" font-family="Arial" font-size="13" lengthAdjust="spacing" textLength="180.394" x="1702.46" y="503.5163">no ambiguity; access works</text></g><!--link lookup to plan_blocked--><g class="link" data-entity-1="ent0002" data-entity-2="ent0004" data-link-type="dependency" data-source-line="24" id="lnk18"><path d="M1256.48,927.6094 C1168.22,920.0094 1070.3,904.1694 1042.46,871.1794 C1030.51,856.9994 1035.4834,843.3104 1048.2734,828.2504" fill="none" id="lookup-to-plan_blocked" style="stroke:#475569;stroke-width:1;"/><polygon fill="#475569" points="1051.51,824.4394,1042.6352,828.71,1048.2734,828.2504,1048.7329,833.8886,1051.51,824.4394" style="stroke:#475569;stroke-width:1;stroke-linejoin:miter;stroke-miterlimit:10;"/><text fill="#000000" font-family="Arial" font-size="13" lengthAdjust="spacing" textLength="222.1235" x="1043.46" y="867.2463">access failure / duplicate matches</text></g><!--link plan_blocked to lookup--><g class="link" data-entity-1="ent0004" data-entity-2="ent0002" data-link-type="dependency" data-source-line="26" id="lnk20"><path d="M1196.38,824.6194 C1221.02,833.4494 1246.93,843.4994 1270.46,854.1794 C1280.48,858.7194 1326.149,884.5983 1364.239,906.3683" fill="none" id="plan_blocked-to-lookup" style="stroke:#475569;stroke-width:1;"/><polygon fill="#475569" points="1368.58,908.8494,1362.751,900.9107,1364.239,906.3683,1358.7813,907.8563,1368.58,908.8494" style="stroke:#475569;stroke-width:1;stroke-linejoin:miter;stroke-miterlimit:10;"/><text fill="#000000" font-family="Arial" font-size="13" lengthAdjust="spacing" textLength="183.5234" x="1302.53" y="867.2463">cause resolved; re-read first</text></g><!--link persist to plan_blocked--><g class="link" data-entity-1="ent0003" data-entity-2="ent0004" data-link-type="dependency" data-source-line="25" id="lnk19"><path d="M1468.46,127.7194 C1468.46,155.3594 1468.46,195.5194 1468.46,230.6094 C1468.46,230.6094 1468.46,230.6094 1468.46,629.8394 C1468.46,673.3694 1478.01,695.2794 1446.46,725.2894 C1446,725.7194 1358.9533,741.2368 1268.6233,757.2468" fill="none" id="persist-to-plan_blocked" style="stroke:#475569;stroke-width:1;"/><polygon fill="#475569" points="1263.7,758.1194,1273.26,760.4873,1268.6233,757.2468,1271.8638,752.6101,1263.7,758.1194" style="stroke:#475569;stroke-width:1;stroke-linejoin:miter;stroke-miterlimit:10;"/><text fill="#000000" font-family="Arial" font-size="13" lengthAdjust="spacing" textLength="150.5601" x="1469.46" y="430.5663">any required write fails</text></g><!--link persist to select--><g class="link" data-entity-1="ent0003" data-entity-2="ent0005" data-link-type="dependency" data-source-line="27" id="lnk21"><path d="M1282.39,120.2194 C1109.34,144.5594 857.9813,179.9132 685.8013,204.1232" fill="none" id="persist-to-select" style="stroke:#475569;stroke-width:1;"/><polygon fill="#475569" points="680.85,204.8194,690.3193,207.5273,685.8013,204.1232,689.2054,199.6052,680.85,204.8194" style="stroke:#475569;stroke-width:1;stroke-linejoin:miter;stroke-miterlimit:10;"/><text fill="#000000" font-family="Arial" font-size="13" lengthAdjust="spacing" textLength="171.1709" x="983.96" y="171.3863">all required writes verified</text></g><!--link select to dependency--><g class="link" data-entity-1="ent0005" data-entity-2="ent0006" data-link-type="dependency" data-source-line="28" id="lnk22"><path d="M545.22,258.3294 C561.62,267.4094 579.99,277.8694 596.46,287.9094 C620.89,302.7994 643.5418,317.7431 664.4518,331.9231" fill="none" id="select-to-dependency" style="stroke:#475569;stroke-width:1;"/><polygon fill="#475569" points="668.59,334.7294,663.3863,326.3675,664.4518,331.9231,658.8962,332.9886,668.59,334.7294" style="stroke:#475569;stroke-width:1;stroke-linejoin:miter;stroke-miterlimit:10;"/><text fill="#000000" font-family="Arial" font-size="13" lengthAdjust="spacing" textLength="96.0527" x="621.75" y="300.9763">Ticket remains</text></g><!--link select to complete--><g class="link" data-entity-1="ent0005" data-entity-2="ent0013" data-link-type="dependency" data-source-line="29" id="lnk23"><path d="M478.67,258.1294 C462.27,280.3794 441.5751,308.4735 425.1951,330.7135" fill="none" id="select-to-complete" style="stroke:#475569;stroke-width:1;"/><polygon fill="#475569" points="422.23,334.7394,430.788,329.8648,425.1951,330.7135,424.3465,325.1206,422.23,334.7394" style="stroke:#475569;stroke-width:1;stroke-linejoin:miter;stroke-miterlimit:10;"/><text fill="#000000" font-family="Arial" font-size="13" lengthAdjust="spacing" textLength="130.311" x="457.09" y="300.9763">all Tickets delivered</text></g><!--link dependency to wait_dep--><g class="link" data-entity-1="ent0006" data-entity-2="ent0007" data-link-type="dependency" data-source-line="30" id="lnk24"><path d="M700.53,387.7094 C696.21,403.3594 688.37,422.6094 674.46,434.4994 C665.59,442.0994 627.142,452.9329 579.082,464.4629" fill="none" id="dependency-to-wait_dep" style="stroke:#475569;stroke-width:1;"/><polygon fill="#475569" points="574.22,465.6294,583.9048,467.4194,579.082,464.4629,582.0385,459.6401,574.22,465.6294" style="stroke:#475569;stroke-width:1;stroke-linejoin:miter;stroke-miterlimit:10;"/><text fill="#000000" font-family="Arial" font-size="13" lengthAdjust="spacing" textLength="100.8516" x="688.89" y="430.5663">not yet merged</text></g><!--link wait_dep to dependency--><g class="link" data-entity-1="ent0007" data-entity-2="ent0006" data-link-type="dependency" data-source-line="31" id="lnk25"><path d="M407.15,464.2794 C401.27,448.5194 398.71,430.4194 409.46,417.4994 C433.03,389.1994 536.26,394.2794 572.46,387.4994 C582.98,385.5394 589.037,384.3981 599.987,382.3281" fill="none" id="wait_dep-to-dependency" style="stroke:#475569;stroke-width:1;"/><polygon fill="#475569" points="604.9,381.3994,595.3136,379.1407,599.987,382.3281,596.7996,387.0015,604.9,381.3994" style="stroke:#475569;stroke-width:1;stroke-linejoin:miter;stroke-miterlimit:10;"/><text fill="#000000" font-family="Arial" font-size="13" lengthAdjust="spacing" textLength="255.9185" x="410.46" y="430.5663">dependency event / scheduled recheck</text></g><!--link dependency to branch--><g class="link" data-entity-1="ent0006" data-entity-2="ent0008" data-link-type="dependency" data-source-line="32" id="lnk26"><path d="M806.09,387.7394 C891.15,409.3194 1008.8336,439.1797 1102.0836,462.8397" fill="none" id="dependency-to-branch" style="stroke:#475569;stroke-width:1;"/><polygon fill="#475569" points="1106.93,464.0694,1099.1902,457.9788,1102.0836,462.8397,1097.2227,465.7331,1106.93,464.0694" style="stroke:#475569;stroke-width:1;stroke-linejoin:miter;stroke-miterlimit:10;"/><text fill="#000000" font-family="Arial" font-size="13" lengthAdjust="spacing" textLength="139.9341" x="990.01" y="430.5663">prerequisites merged</text></g><!--link branch to slices--><g class="link" data-entity-1="ent0008" data-entity-2="ent0009" data-link-type="dependency" data-source-line="33" id="lnk27"><path d="M1223.75,533.8894 C1214.56,552.5294 1205.409,571.1038 1196.249,589.7038" fill="none" id="branch-to-slices" style="stroke:#475569;stroke-width:1;"/><polygon fill="#475569" points="1194.04,594.1894,1201.6047,587.8826,1196.249,589.7038,1194.4278,584.3482,1194.04,594.1894" style="stroke:#475569;stroke-width:1;stroke-linejoin:miter;stroke-miterlimit:10;"/></g><!--link slices to deliver--><g class="link" data-entity-1="ent0009" data-entity-2="ent0010" data-link-type="dependency" data-source-line="34" id="lnk28"><path d="M1043.63,656.3794 C996.75,666.6394 943.96,679.2994 896.46,693.2894 C836.41,710.9694 774.8523,733.4331 724.1323,753.0831" fill="none" id="slices-to-deliver" style="stroke:#475569;stroke-width:1;"/><polygon fill="#475569" points="719.47,754.8894,729.3072,755.3679,724.1323,753.0831,726.4172,747.9082,719.47,754.8894" style="stroke:#475569;stroke-width:1;stroke-linejoin:miter;stroke-miterlimit:10;"/><text fill="#000000" font-family="Arial" font-size="13" lengthAdjust="spacing" textLength="291.8462" x="897.46" y="713.8563">Ticket acceptance + integration checks pass</text></g><!--link slices to plan--><g class="link" data-entity-1="ent0009" data-entity-2="ent0001" data-link-type="dependency" data-source-line="35" id="lnk29"><path d="M1185.1,663.5694 C1191.48,684.2494 1202.65,709.6694 1221.46,725.2894 C1235.13,736.6294 1259.406,745.7218 1293.156,754.6418" fill="none" id="slices-to-plan" style="stroke:#475569;stroke-width:1;"/><polygon fill="#475569" points="1297.99,755.9194,1290.3109,749.7525,1293.156,754.6418,1288.2667,757.4869,1297.99,755.9194" style="stroke:#475569;stroke-width:1;stroke-linejoin:miter;stroke-miterlimit:10;"/><text fill="#000000" font-family="Arial" font-size="13" lengthAdjust="spacing" textLength="212.4497" x="1249.5518" y="706.3563">design/scope assumption invalid</text><text fill="#000000" font-family="Arial" font-size="13" lengthAdjust="spacing" textLength="266.6333" x="1222.46" y="721.4891">update same Issues; preserve valid work</text></g><!--link deliver to done--><g class="link" data-entity-1="ent0010" data-entity-2="ent0011" data-link-type="dependency" data-source-line="36" id="lnk30"><path d="M600.3,824.4694 C576.31,847.4794 548.2784,874.3683 524.2784,897.3883" fill="none" id="deliver-to-done" style="stroke:#475569;stroke-width:1;"/><polygon fill="#475569" points="520.67,900.8494,529.9341,897.5062,524.2784,897.3883,524.3963,891.7327,520.67,900.8494" style="stroke:#475569;stroke-width:1;stroke-linejoin:miter;stroke-miterlimit:10;"/><text fill="#000000" font-family="Arial" font-size="13" lengthAdjust="spacing" textLength="333.9121" x="565.96" y="867.2463">reviewed head + required checks + merge verified</text></g><!--link done to state_docs--><g class="link" data-entity-1="ent0011" data-entity-2="ent0012" data-link-type="dependency" data-source-line="37" id="lnk31"><path d="M401.26,970.4494 C353.76,989.5394 299.9792,1011.1446 256.2192,1028.7346" fill="none" id="done-to-state_docs" style="stroke:#475569;stroke-width:1;"/><polygon fill="#475569" points="251.58,1030.5994,261.4225,1030.9541,256.2192,1028.7346,258.4388,1023.5313,251.58,1030.5994" style="stroke:#475569;stroke-width:1;stroke-linejoin:miter;stroke-miterlimit:10;"/></g><!--link state_docs to select--><g class="link" data-entity-1="ent0012" data-entity-2="ent0005" data-link-type="dependency" data-source-line="38" id="lnk32"><path d="M180.69,1030.8694 C174.89,1006.7694 167.46,969.4994 167.46,936.6194 C167.46,360.2094 167.46,360.2094 167.46,360.2094 C167.46,315.4394 269.5663,281.4491 361.7063,259.4791" fill="none" id="state_docs-to-select" style="stroke:#475569;stroke-width:1;"/><polygon fill="#475569" points="366.57,258.3194,356.8877,256.5159,361.7063,259.4791,358.7432,264.2977,366.57,258.3194" style="stroke:#475569;stroke-width:1;stroke-linejoin:miter;stroke-miterlimit:10;"/><text fill="#000000" font-family="Arial" font-size="13" lengthAdjust="spacing" textLength="197.3169" x="168.46" y="633.4063">next Ticket; use updated base</text></g><!--link complete to *end*--><g class="link" data-entity-1="ent0013" data-entity-2="ent0033" data-link-type="dependency" data-source-line="39" id="lnk34"><path d="M361.62,387.8294 C331.69,407.1094 291.23,435.1694 259.46,464.4994 C251.12,472.2094 245.9481,478.3755 240.6081,485.4655" fill="none" id="complete-to-*end*" style="stroke:#475569;stroke-width:1;"/><polygon fill="#475569" points="237.6,489.4594,246.2097,484.6768,240.6081,485.4655,239.8195,479.8639,237.6,489.4594" style="stroke:#475569;stroke-width:1;stroke-linejoin:miter;stroke-miterlimit:10;"/></g><?plantuml-src RLPDRnit4BtlhvZ6Xm9LRLsI1fNG5gaT0qMBrB3Tz1051hKxqXAYo0t9bQp--huXkIifyKNQNSxtl7d3xsBBMwREA6shiD6sKrvjgU6LwasyTJP-K3X_vxKo9-UXLOtRQxkcbJA1JqxUUU_sryuuJnUltxvvyzFFLTJHC3tgUiEH_dAkeqkwCyfQwFz8DzonRTZMcWCfs-23qJlsXweAKKMcLpUyqfPfoQtQQTZDbiB2FhPi9LGvTRvXpmqz65t3aBP1DqoiwhR8B-oxkkOkAbipJIdKhfF_vjJzb7RAw4P5xUmhKa7gOeSmxZauisFotBcWe_C7cj1I1SRV7o7qJ0eE0k9wOENX5tfBasfhfoNxhV8RzY7PDivj-kvelOUbtkelCBHLiMuH3vAjFSjvSW3JTygpZSacNVvAoXYagYEwCvH5FdTPIYEnP-Z0emwH7k2fboH_zoX2AmyI_VIy1LEwky-vPxKXmA5Zj3GEZfg5lKSXV2IrNUfrh-D1mbqfRT25eWkJlB1_CdSbZwPKocYx2NEo3bMe4NiivT50Znyh_rHSqSNjxUthw-iXb0SsN4SK2vtNeON0qE9xLWsfFhREQyW2HyNXvDZe0_5EomCdHo4PEs9jb5hZ0uhd0QillKR76PK9j6M_vkQtf7kq-OB-Nkb8dqeAyn87G6S_Ivmr04lTgV49aAM2imlxmP7UTWQ3QMF28Yrpn_RER-Z0CJaN-q-8u9lg76mDACOUTHLupaljfvv3lnq7CPjSs8_izUfGC35DYDXoL1W21IGdoCo0fAVEkpKiPEncvS7Z-sUk-pXQpYCeOy2biPT1Fbq2yTrLsAqnYi1jcLHGYOTSgqFH_tumdzkJf4OGzak3ZWEa7ataFHvM-Xc_gIjdBhF0YS_S0CzRK5r8ZG22eZQqamfee2WPAOrD73Iu_NWc0UXV6yO0yZFAJC7r7fIIOvvJaF9BtO_LQvoLBXWNXXhDQID3SNUFU5R0m016aQIBc-lRw_TlZynGEumcc4JiyVJ6rU2t5TMjiYcOHw_IbAoSCMv_sNV4ZGOH2A4eigXIWSza6Era-Qc1eTFffje9wWJrqf_IpIFcqxockcLG5nuRjCQugqy_VAPBeI5XpqnLU2jyb__oUI6ccHWUQMHUU3IXFPp9dtB2R10JokbzulA-0readqAWrU3X9Mrxe3HyiZNsNYPGB8NgJEuOE5Hg9INrUG-W79w1CX3EIdlmvAclJ2hY1OKyzn96l5L5IXHEs6asLBv0zLHih7MsF51-WIjCdjWH-P4ZfCHHgAFqiXfFll5-HfIoHcHPWcHx8NRFUAmtN_if09kTCTg0cwgSfiAKSSwpdtsds8zfg-EQde1u8gzz9i7a6Pj1XJC32M0ITj1hEyrx7IBzjajQsgQTlh1zrmWqWjndyZgTIxY1FRP4aac8guQ0Kd0oZxD2DaY_bNPFZXqj8KrofiVE9hsKxrUJbXxF8MBvEOwqa2u1AT0caKWrTbnqC5XLXKO2X7hTHdAhSKkNYq5AR8P5QZX4126nbRgcdNjLbRSYE5wg9eWZnE42bOiweRhtoMoA_Qhwsuua_mj9YfbJy_FBAqkk4rTLuVh69HYMEqrWkJB6WJhpVIUUX8Te0J9HuQ-o7j1R_MCB3UOG2Lj4FAYoIy697YynwNcEkBEbXL3zAviKvueQlKeCBEUgEGpvEMkmmkM2MQuJ_w6jSZrrUukIjxgZfUjjexnScj25hHvO_UnA2G1ZIHmJ-Hy0?></g></svg>