<svg xmlns="http://www.w3.org/2000/svg" width="1080" height="820" viewBox="0 0 1080 820"><defs><marker id="arrow" markerWidth="10" markerHeight="10" refX="9" refY="3" orient="auto" markerUnits="strokeWidth"><path d="M0,0 L0,6 L9,3 z" fill="#455a64"/></marker></defs><rect width="100%" height="100%" fill="#fff"/><text x="540" y="48" text-anchor="middle" font-family="Arial" font-size="24" font-weight="700" fill="#263238">Installer Decision Flow — Destination, Ownership, Retirement</text><path d="M530,180 V220 H540 V260" fill="none" stroke="#455a64" stroke-width="2" marker-end="url(#arrow)"/><path d="M540,350 V305 H870 V260" fill="none" stroke="#455a64" stroke-width="2" marker-end="url(#arrow)"/><path d="M870,350 V400 H450 V450" fill="none" stroke="#455a64" stroke-width="2" marker-end="url(#arrow)"/><text x="660" y="394" text-anchor="middle" font-family="Arial" font-size="12" fill="#455a64">missing / owned</text><path d="M870,350 V400 H800 V450" fill="none" stroke="#455a64" stroke-width="2" marker-end="url(#arrow)" stroke-dasharray="8 6"/><text x="835" y="394" text-anchor="middle" font-family="Arial" font-size="12" fill="#455a64">unverified</text><path d="M450,540 V590 H590 V640" fill="none" stroke="#455a64" stroke-width="2" marker-end="url(#arrow)"/><path d="M800,540 V590 H590 V640" fill="none" stroke="#455a64" stroke-width="2" marker-end="url(#arrow)" stroke-dasharray="8 6"/><path d="M530,180 V220 H210 V260" fill="none" stroke="#455a64" stroke-width="2" marker-end="url(#arrow)" stroke-dasharray="8 6"/><text x="370" y="214" text-anchor="middle" font-family="Arial" font-size="12" fill="#455a64">unsafe dest</text><rect x="370" y="90" width="320" height="90" rx="12" fill="#e3f2fd" stroke="#1565c0" stroke-width="2"/><text x="530" y="126" text-anchor="middle" dominant-baseline="middle" font-family="Arial" font-size="12" font-weight="700" fill="#263238">Resolve destination</text><text x="530" y="144" text-anchor="middle" dominant-baseline="middle" font-family="Arial" font-size="12" font-weight="700" fill="#263238">Codex / Claude / explicit dest</text><rect x="80" y="260" width="260" height="90" rx="12" fill="#ffebee" stroke="#c62828" stroke-width="2"/><text x="210" y="296" text-anchor="middle" dominant-baseline="middle" font-family="Arial" font-size="12" font-weight="700" fill="#263238">Reject destination</text><text x="210" y="314" text-anchor="middle" dominant-baseline="middle" font-family="Arial" font-size="12" font-weight="700" fill="#263238">inside repository</text><rect x="410" y="260" width="260" height="90" rx="12" fill="#f3e5f5" stroke="#6a1b9a" stroke-width="2"/><text x="540" y="305" text-anchor="middle" dominant-baseline="middle" font-family="Arial" font-size="12" font-weight="700" fill="#263238">12 managed skill bundles</text><rect x="740" y="260" width="260" height="90" rx="12" fill="#fff9c4" stroke="#f57c00" stroke-width="2"/><text x="870" y="305" text-anchor="middle" dominant-baseline="middle" font-family="Arial" font-size="12" font-weight="700" fill="#263238">Existing destination?</text><rect x="300" y="450" width="300" height="90" rx="12" fill="#e8f5e9" stroke="#2e7d32" stroke-width="2"/><text x="450" y="495" text-anchor="middle" dominant-baseline="middle" font-family="Arial" font-size="12" font-weight="700" fill="#263238">Install / replace owned bundle</text><rect x="650" y="450" width="300" height="90" rx="12" fill="#eceff1" stroke="#455a64" stroke-width="2" stroke-dasharray="8 6"/><text x="800" y="486" text-anchor="middle" dominant-baseline="middle" font-family="Arial" font-size="12" font-weight="700" fill="#263238">Preserve unverified</text><text x="800" y="504" text-anchor="middle" dominant-baseline="middle" font-family="Arial" font-size="12" font-weight="700" fill="#263238">existing path</text><rect x="410" y="640" width="360" height="100" rx="12" fill="#fff3e0" stroke="#e65100" stroke-width="2"/><text x="590" y="681" text-anchor="middle" dominant-baseline="middle" font-family="Arial" font-size="12" font-weight="700" fill="#263238">On update: prune owned retired skills</text><text x="590" y="699" text-anchor="middle" dominant-baseline="middle" font-family="Arial" font-size="12" font-weight="700" fill="#263238">(including context-efficiency)</text></svg>