<svg xmlns="http://www.w3.org/2000/svg" width="1040" height="640" viewBox="0 0 1040 640"><defs><marker id="arrow" markerWidth="10" markerHeight="10" refX="9" refY="3" orient="auto" markerUnits="strokeWidth"><path d="M0,0 L0,6 L9,3 z" fill="#455a64"/></marker></defs><rect width="100%" height="100%" fill="#fff"/><text x="520" y="48" text-anchor="middle" font-family="Arial" font-size="24" font-weight="700" fill="#263238">Plan → Ticket → Slice — Work Decomposition Model</text><path d="M520,210 V255 H225 V300" fill="none" stroke="#455a64" stroke-width="2" marker-end="url(#arrow)"/><path d="M520,210 V255 H520 V300" fill="none" stroke="#455a64" stroke-width="2" marker-end="url(#arrow)"/><path d="M520,210 V255 H815 V300" fill="none" stroke="#455a64" stroke-width="2" marker-end="url(#arrow)"/><path d="M225,390 V437.5 H225 V485" fill="none" stroke="#455a64" stroke-width="2" marker-end="url(#arrow)"/><path d="M520,390 V437.5 H520 V485" fill="none" stroke="#455a64" stroke-width="2" marker-end="url(#arrow)"/><path d="M815,390 V437.5 H815 V485" fill="none" stroke="#455a64" stroke-width="2" marker-end="url(#arrow)"/><rect x="370" y="110" width="300" height="100" rx="12" fill="#f3e5f5" stroke="#6a1b9a" stroke-width="2"/><text x="520" y="151" text-anchor="middle" dominant-baseline="middle" font-family="Arial" font-size="14" font-weight="700" fill="#263238">1 Plan Issue</text><text x="520" y="169" text-anchor="middle" dominant-baseline="middle" font-family="Arial" font-size="14" font-weight="700" fill="#263238">Owns branch + PR + merge</text><rect x="100" y="300" width="250" height="90" rx="12" fill="#e3f2fd" stroke="#1565c0" stroke-width="2"/><text x="225" y="336" text-anchor="middle" dominant-baseline="middle" font-family="Arial" font-size="12" font-weight="700" fill="#263238">Ticket A</text><text x="225" y="354" text-anchor="middle" dominant-baseline="middle" font-family="Arial" font-size="12" font-weight="700" fill="#263238">Behavior boundary</text><rect x="395" y="300" width="250" height="90" rx="12" fill="#e3f2fd" stroke="#1565c0" stroke-width="2"/><text x="520" y="336" text-anchor="middle" dominant-baseline="middle" font-family="Arial" font-size="12" font-weight="700" fill="#263238">Ticket B</text><text x="520" y="354" text-anchor="middle" dominant-baseline="middle" font-family="Arial" font-size="12" font-weight="700" fill="#263238">Behavior boundary</text><rect x="690" y="300" width="250" height="90" rx="12" fill="#e3f2fd" stroke="#1565c0" stroke-width="2"/><text x="815" y="336" text-anchor="middle" dominant-baseline="middle" font-family="Arial" font-size="12" font-weight="700" fill="#263238">Ticket C</text><text x="815" y="354" text-anchor="middle" dominant-baseline="middle" font-family="Arial" font-size="12" font-weight="700" fill="#263238">Behavior boundary</text><rect x="100" y="485" width="250" height="80" rx="12" fill="#eceff1" stroke="#455a64" stroke-width="2"/><text x="225" y="516" text-anchor="middle" dominant-baseline="middle" font-family="Arial" font-size="12" font-weight="400" fill="#263238">Slices</text><text x="225" y="534" text-anchor="middle" dominant-baseline="middle" font-family="Arial" font-size="12" font-weight="400" fill="#263238">small execution contracts</text><rect x="395" y="485" width="250" height="80" rx="12" fill="#eceff1" stroke="#455a64" stroke-width="2"/><text x="520" y="516" text-anchor="middle" dominant-baseline="middle" font-family="Arial" font-size="12" font-weight="400" fill="#263238">Slices</text><text x="520" y="534" text-anchor="middle" dominant-baseline="middle" font-family="Arial" font-size="12" font-weight="400" fill="#263238">small execution contracts</text><rect x="690" y="485" width="250" height="80" rx="12" fill="#eceff1" stroke="#455a64" stroke-width="2"/><text x="815" y="516" text-anchor="middle" dominant-baseline="middle" font-family="Arial" font-size="12" font-weight="400" fill="#263238">Slices</text><text x="815" y="534" text-anchor="middle" dominant-baseline="middle" font-family="Arial" font-size="12" font-weight="400" fill="#263238">small execution contracts</text></svg>