<svg xmlns="http://www.w3.org/2000/svg" xmlns:xlink="http://www.w3.org/1999/xlink" contentStyleType="text/css" data-diagram-type="ACTIVITY" height="2035px" preserveAspectRatio="none" style="width:810px;height:2035px;background:#FFFFFF;" version="1.1" viewBox="0 0 810 2035" width="810px" zoomAndPan="magnify"><?plantuml 1.2026.6?><defs/><g><g class="title" data-source-line="5"><text fill="#000000" font-family="Arial" font-size="22" font-weight="700" lengthAdjust="spacing" textLength="778.0244" x="15" y="35.4209">test-workflow &#8212; Risk-Aware Verification and Test Quality Gate</text></g><ellipse cx="241.6633" cy="66.6094" fill="#FFFFFF" rx="10" ry="10" style="stroke:#000000;stroke-width:1;"/><rect fill="#FFFFFF" height="33.9688" rx="12.5" ry="12.5" style="stroke:#000000;stroke-width:1;" width="408.3477" x="37.4895" y="96.6094"/><text fill="#000000" font-family="Arial" font-size="12" lengthAdjust="spacing" textLength="388.3477" x="47.4895" y="117.748">Read requirement / Slice acceptance criteria / changed behavior</text><rect fill="#FFFFFF" height="33.9688" rx="12.5" ry="12.5" style="stroke:#000000;stroke-width:1;" width="211.959" x="135.6838" y="150.5781"/><text fill="#000000" font-family="Arial" font-size="12" lengthAdjust="spacing" textLength="191.959" x="145.6838" y="171.7168">Build Acceptance-to-Test Matrix</text><rect fill="#FFFFFF" height="33.9688" rx="12.5" ry="12.5" style="stroke:#000000;stroke-width:1;" width="224.0469" x="129.6399" y="204.5469"/><text fill="#000000" font-family="Arial" font-size="12" lengthAdjust="spacing" textLength="204.0469" x="139.6399" y="225.6855">Select mandatory risk dimensions</text><rect fill="#FFFFFF" height="33.9688" rx="12.5" ry="12.5" style="stroke:#000000;stroke-width:1;" width="227.1934" x="128.0667" y="258.5156"/><text fill="#000000" font-family="Arial" font-size="12" lengthAdjust="spacing" textLength="207.1934" x="138.0667" y="279.6543">Static / type / lint / schema checks</text><rect fill="#FFFFFF" height="33.9688" rx="12.5" ry="12.5" style="stroke:#000000;stroke-width:1;" width="133.373" x="174.9768" y="360.8867"/><text fill="#000000" font-family="Arial" font-size="12" lengthAdjust="spacing" textLength="113.373" x="184.9768" y="382.0254">Classify root cause</text><ellipse cx="241.6633" cy="434.3711" fill="none" rx="11" ry="11" style="stroke:#000000;stroke-width:1;"/><ellipse cx="241.6633" cy="434.3711" fill="#FFFFFF" rx="6" ry="6" style="stroke:#000000;stroke-width:1;"/><polygon fill="#FFFFFF" points="202.2771,312.4844,281.0496,312.4844,293.0496,324.4844,281.0496,336.4844,202.2771,336.4844,190.2771,324.4844,202.2771,312.4844" style="stroke:#000000;stroke-width:1;stroke-linejoin:miter;stroke-miterlimit:10;"/><text fill="#000000" font-family="Arial" font-size="11" lengthAdjust="spacing" textLength="19.0083" x="245.6633" y="346.6948">yes</text><text fill="#000000" font-family="Arial" font-size="11" lengthAdjust="spacing" textLength="78.7725" x="202.2771" y="328.2925">Useful failure?</text><rect fill="#FFFFFF" height="33.9688" rx="12.5" ry="12.5" style="stroke:#000000;stroke-width:1;" width="240.0898" x="121.6184" y="487.3711"/><text fill="#000000" font-family="Arial" font-size="12" lengthAdjust="spacing" textLength="220.0898" x="131.6184" y="508.5098">Focused unit / component / API tests</text><rect fill="#FFFFFF" height="33.9688" rx="12.5" ry="12.5" style="stroke:#000000;stroke-width:1;" width="133.373" x="174.9768" y="589.7422"/><text fill="#000000" font-family="Arial" font-size="12" lengthAdjust="spacing" textLength="113.373" x="184.9768" y="610.8809">Classify root cause</text><ellipse cx="241.6633" cy="663.2266" fill="none" rx="11" ry="11" style="stroke:#000000;stroke-width:1;"/><ellipse cx="241.6633" cy="663.2266" fill="#FFFFFF" rx="6" ry="6" style="stroke:#000000;stroke-width:1;"/><polygon fill="#FFFFFF" points="202.2771,541.3398,281.0496,541.3398,293.0496,553.3398,281.0496,565.3398,202.2771,565.3398,190.2771,553.3398,202.2771,541.3398" style="stroke:#000000;stroke-width:1;stroke-linejoin:miter;stroke-miterlimit:10;"/><text fill="#000000" font-family="Arial" font-size="11" lengthAdjust="spacing" textLength="19.0083" x="245.6633" y="575.5503">yes</text><text fill="#000000" font-family="Arial" font-size="11" lengthAdjust="spacing" textLength="78.7725" x="202.2771" y="557.1479">Useful failure?</text><rect fill="#FFFFFF" height="33.9688" rx="12.5" ry="12.5" style="stroke:#000000;stroke-width:1;" width="224.7676" x="129.2795" y="716.2266"/><text fill="#000000" font-family="Arial" font-size="12" lengthAdjust="spacing" textLength="204.7676" x="139.2795" y="737.3652">Boundary + negative-path checks</text><rect fill="#FFFFFF" height="47.9375" rx="12.5" ry="12.5" style="stroke:#000000;stroke-width:1;" width="349.8125" x="66.7571" y="770.1953"/><text fill="#000000" font-family="Arial" font-size="12" lengthAdjust="spacing" textLength="166.9395" x="76.7571" y="791.334">Assert failure/error contract</text><text fill="#000000" font-family="Arial" font-size="12" lengthAdjust="spacing" textLength="329.8125" x="76.7571" y="805.3027">format + structure + semantics + caller consumability</text><rect fill="#FFFFFF" height="33.9688" rx="12.5" ry="12.5" style="stroke:#000000;stroke-width:1;" width="152.5508" x="165.3879" y="886.5352"/><text fill="#000000" font-family="Arial" font-size="12" lengthAdjust="spacing" textLength="132.5508" x="175.3879" y="907.6738">Property / fuzz checks</text><polygon fill="#FFFFFF" points="127.8069,838.1328,355.5198,838.1328,367.5198,850.1328,355.5198,862.1328,127.8069,862.1328,115.8069,850.1328,127.8069,838.1328" style="stroke:#000000;stroke-width:1;stroke-linejoin:miter;stroke-miterlimit:10;"/><text fill="#000000" font-family="Arial" font-size="11" lengthAdjust="spacing" textLength="19.0083" x="245.6633" y="872.3433">yes</text><text fill="#000000" font-family="Arial" font-size="11" lengthAdjust="spacing" textLength="227.7129" x="127.8069" y="853.9409">Complex input space or strong invariant?</text><polygon fill="#FFFFFF" points="241.6633,940.5039,253.6633,952.5039,241.6633,964.5039,229.6633,952.5039,241.6633,940.5039" style="stroke:#000000;stroke-width:1;stroke-linejoin:miter;stroke-miterlimit:10;"/><rect fill="#FFFFFF" height="33.9688" rx="12.5" ry="12.5" style="stroke:#000000;stroke-width:1;" width="192.834" x="145.2463" y="1032.9063"/><text fill="#000000" font-family="Arial" font-size="12" lengthAdjust="spacing" textLength="172.834" x="155.2463" y="1054.0449">Integration / contract checks</text><polygon fill="#FFFFFF" points="117.959,984.5039,365.3677,984.5039,377.3677,996.5039,365.3677,1008.5039,117.959,1008.5039,105.959,996.5039,117.959,984.5039" style="stroke:#000000;stroke-width:1;stroke-linejoin:miter;stroke-miterlimit:10;"/><text fill="#000000" font-family="Arial" font-size="11" lengthAdjust="spacing" textLength="19.0083" x="245.6633" y="1018.7144">yes</text><text fill="#000000" font-family="Arial" font-size="11" lengthAdjust="spacing" textLength="247.4087" x="117.959" y="1000.312">External or multi-module boundary touched?</text><polygon fill="#FFFFFF" points="241.6633,1086.875,253.6633,1098.875,241.6633,1110.875,229.6633,1098.875,241.6633,1086.875" style="stroke:#000000;stroke-width:1;stroke-linejoin:miter;stroke-miterlimit:10;"/><rect fill="#FFFFFF" height="33.9688" rx="12.5" ry="12.5" style="stroke:#000000;stroke-width:1;" width="350.0762" x="66.6252" y="1179.2773"/><text fill="#000000" font-family="Arial" font-size="12" lengthAdjust="spacing" textLength="330.0762" x="76.6252" y="1200.416">Real URL / proxy / TLS / cookie / header / cache checks</text><polygon fill="#FFFFFF" points="124.1599,1130.875,359.1667,1130.875,371.1667,1142.875,359.1667,1154.875,124.1599,1154.875,112.1599,1142.875,124.1599,1130.875" style="stroke:#000000;stroke-width:1;stroke-linejoin:miter;stroke-miterlimit:10;"/><text fill="#000000" font-family="Arial" font-size="11" lengthAdjust="spacing" textLength="19.0083" x="245.6633" y="1165.0854">yes</text><text fill="#000000" font-family="Arial" font-size="11" lengthAdjust="spacing" textLength="235.0068" x="124.1599" y="1146.6831">Real entrypoint / config / client policy risk?</text><polygon fill="#FFFFFF" points="241.6633,1233.2461,253.6633,1245.2461,241.6633,1257.2461,229.6633,1245.2461,241.6633,1233.2461" style="stroke:#000000;stroke-width:1;stroke-linejoin:miter;stroke-miterlimit:10;"/><rect fill="#FFFFFF" height="33.9688" rx="12.5" ry="12.5" style="stroke:#000000;stroke-width:1;" width="261.2773" x="111.0247" y="1325.6484"/><text fill="#000000" font-family="Arial" font-size="12" lengthAdjust="spacing" textLength="241.2773" x="121.0247" y="1346.7871">Targeted mutation / test-strength check</text><polygon fill="#FFFFFF" points="136.0999,1277.2461,347.2268,1277.2461,359.2268,1289.2461,347.2268,1301.2461,136.0999,1301.2461,124.0999,1289.2461,136.0999,1277.2461" style="stroke:#000000;stroke-width:1;stroke-linejoin:miter;stroke-miterlimit:10;"/><text fill="#000000" font-family="Arial" font-size="11" lengthAdjust="spacing" textLength="19.0083" x="245.6633" y="1311.4565">yes</text><text fill="#000000" font-family="Arial" font-size="11" lengthAdjust="spacing" textLength="211.127" x="136.0999" y="1293.0542">High-risk logic or weak-test suspicion?</text><polygon fill="#FFFFFF" points="241.6633,1379.6172,253.6633,1391.6172,241.6633,1403.6172,229.6633,1391.6172,241.6633,1379.6172" style="stroke:#000000;stroke-width:1;stroke-linejoin:miter;stroke-miterlimit:10;"/><rect fill="#FFFFFF" height="33.9688" rx="12.5" ry="12.5" style="stroke:#000000;stroke-width:1;" width="137.1934" x="173.0667" y="1423.6172"/><text fill="#000000" font-family="Arial" font-size="12" lengthAdjust="spacing" textLength="117.1934" x="183.0667" y="1444.7559">Affected regression</text><rect fill="#FFFFFF" height="33.9688" rx="12.5" ry="12.5" style="stroke:#000000;stroke-width:1;" width="103.3613" x="189.9827" y="1525.9883"/><text fill="#000000" font-family="Arial" font-size="12" lengthAdjust="spacing" textLength="83.3613" x="199.9827" y="1547.127">Browser / E2E</text><polygon fill="#FFFFFF" points="162.9929,1477.5859,320.3337,1477.5859,332.3337,1489.5859,320.3337,1501.5859,162.9929,1501.5859,150.9929,1489.5859,162.9929,1477.5859" style="stroke:#000000;stroke-width:1;stroke-linejoin:miter;stroke-miterlimit:10;"/><text fill="#000000" font-family="Arial" font-size="11" lengthAdjust="spacing" textLength="19.0083" x="245.6633" y="1511.7964">yes</text><text fill="#000000" font-family="Arial" font-size="11" lengthAdjust="spacing" textLength="157.3408" x="162.9929" y="1493.394">Critical browser-visible flow?</text><polygon fill="#FFFFFF" points="241.6633,1579.957,253.6633,1591.957,241.6633,1603.957,229.6633,1591.957,241.6633,1579.957" style="stroke:#000000;stroke-width:1;stroke-linejoin:miter;stroke-miterlimit:10;"/><rect fill="#FFFFFF" height="33.9688" rx="12.5" ry="12.5" style="stroke:#000000;stroke-width:1;" width="171.9629" x="155.6819" y="1672.3594"/><text fill="#000000" font-family="Arial" font-size="12" lengthAdjust="spacing" textLength="151.9629" x="165.6819" y="1693.498">Isolation / flaky diagnosis</text><polygon fill="#FFFFFF" points="119.9866,1623.957,363.3401,1623.957,375.3401,1635.957,363.3401,1647.957,119.9866,1647.957,107.9866,1635.957,119.9866,1623.957" style="stroke:#000000;stroke-width:1;stroke-linejoin:miter;stroke-miterlimit:10;"/><text fill="#000000" font-family="Arial" font-size="11" lengthAdjust="spacing" textLength="19.0083" x="245.6633" y="1658.1675">yes</text><text fill="#000000" font-family="Arial" font-size="11" lengthAdjust="spacing" textLength="243.3535" x="119.9866" y="1639.7651">Nondeterminism risk or intermittent failure?</text><polygon fill="#FFFFFF" points="241.6633,1726.3281,253.6633,1738.3281,241.6633,1750.3281,229.6633,1738.3281,241.6633,1726.3281" style="stroke:#000000;stroke-width:1;stroke-linejoin:miter;stroke-miterlimit:10;"/><rect fill="#FFFFFF" height="33.9688" rx="12.5" ry="12.5" style="stroke:#000000;stroke-width:1;" width="181.1504" x="151.0881" y="1770.3281"/><text fill="#000000" font-family="Arial" font-size="12" lengthAdjust="spacing" textLength="161.1504" x="161.0881" y="1791.4668">Evaluate Test Quality Gate</text><polygon fill="#FFFFFF" points="103.9807,1824.2969,379.3459,1824.2969,391.3459,1837.1016,379.3459,1849.9063,103.9807,1849.9063,91.9807,1837.1016,103.9807,1824.2969" style="stroke:#000000;stroke-width:1;stroke-linejoin:miter;stroke-miterlimit:10;"/><text fill="#000000" font-family="Arial" font-size="11" lengthAdjust="spacing" textLength="275.3652" x="103.9807" y="1834.5073">Every acceptance criterion, mandatory dimension</text><text fill="#000000" font-family="Arial" font-size="11" lengthAdjust="spacing" textLength="194.7183" x="103.9807" y="1847.312">and failure/error contract satisfied?</text><text fill="#000000" font-family="Arial" font-size="11" lengthAdjust="spacing" textLength="19.0083" x="72.9724" y="1834.5073">yes</text><text fill="#000000" font-family="Arial" font-size="11" lengthAdjust="spacing" textLength="13.7017" x="391.3459" y="1834.5073">no</text><rect fill="#FFFFFF" height="33.9688" rx="12.5" ry="12.5" style="stroke:#000000;stroke-width:1;" width="50.6797" x="56.6409" y="1859.9063"/><text fill="#000000" font-family="Arial" font-size="12" lengthAdjust="spacing" textLength="30.6797" x="66.6409" y="1881.0449">PASS</text><rect fill="#FFFFFF" height="33.9688" rx="12.5" ry="12.5" style="stroke:#000000;stroke-width:1;" width="175.6602" x="313.5159" y="1859.9063"/><text fill="#000000" font-family="Arial" font-size="12" lengthAdjust="spacing" textLength="155.6602" x="323.5159" y="1881.0449">FAIL / PARTIAL / BLOCKED</text><polygon fill="#FFFFFF" points="241.6633,1899.875,253.6633,1911.875,241.6633,1923.875,229.6633,1911.875,241.6633,1899.875" style="stroke:#000000;stroke-width:1;stroke-linejoin:miter;stroke-miterlimit:10;"/><path d="M272.6633,1933.875 L272.6633,1972.707 L252.6633,1976.707 L272.6633,1980.707 L272.6633,2019.5391 A0,0 0 0 0 272.6633,2019.5391 L767.5349,2019.5391 A0,0 0 0 0 767.5349,2019.5391 L767.5349,1943.875 L757.5349,1933.875 L272.6633,1933.875 A0,0 0 0 0 272.6633,1933.875" fill="#FFFFFF" style="stroke:#000000;stroke-width:1;"/><path d="M757.5349,1933.875 L757.5349,1943.875 L767.5349,1943.875 L757.5349,1933.875" fill="#FFFFFF" style="stroke:#000000;stroke-width:1;"/><text fill="#000000" font-family="Arial" font-size="13" lengthAdjust="spacing" textLength="183.5996" x="278.6633" y="1950.9419">Coverage is diagnostic only.</text><text fill="#000000" font-family="Arial" font-size="13" lengthAdjust="spacing" textLength="206.3877" x="278.6633" y="1966.0747">N/A requires a concrete reason.</text><text fill="#000000" font-family="Arial" font-size="13" lengthAdjust="spacing" textLength="354.98" x="278.6633" y="1981.2075">Failure/status/exception occurrence alone is not PASS.</text><text fill="#000000" font-family="Arial" font-size="13" lengthAdjust="spacing" textLength="450.6328" x="278.6633" y="1996.3403">Real boundary behavior must use real or production-like entrypoints.</text><text fill="#000000" font-family="Arial" font-size="13" lengthAdjust="spacing" textLength="473.8716" x="278.6633" y="2011.4731">FAIL then retry PASS without a verified external cause is flaky, not PASS.</text><ellipse cx="241.6633" cy="1976.707" fill="none" rx="11" ry="11" style="stroke:#000000;stroke-width:1;"/><ellipse cx="241.6633" cy="1976.707" fill="#FFFFFF" rx="6" ry="6" style="stroke:#000000;stroke-width:1;"/><line style="stroke:#000000;stroke-width:1;" x1="241.6633" x2="241.6633" y1="76.6094" y2="96.6094"/><polygon fill="#000000" points="237.6633,86.6094,241.6633,96.6094,245.6633,86.6094,241.6633,90.6094" style="stroke:#000000;stroke-width:1;stroke-linejoin:miter;stroke-miterlimit:10;"/><line style="stroke:#000000;stroke-width:1;" x1="241.6633" x2="241.6633" y1="130.5781" y2="150.5781"/><polygon fill="#000000" points="237.6633,140.5781,241.6633,150.5781,245.6633,140.5781,241.6633,144.5781" style="stroke:#000000;stroke-width:1;stroke-linejoin:miter;stroke-miterlimit:10;"/><line style="stroke:#000000;stroke-width:1;" x1="241.6633" x2="241.6633" y1="184.5469" y2="204.5469"/><polygon fill="#000000" points="237.6633,194.5469,241.6633,204.5469,245.6633,194.5469,241.6633,198.5469" style="stroke:#000000;stroke-width:1;stroke-linejoin:miter;stroke-miterlimit:10;"/><line style="stroke:#000000;stroke-width:1;" x1="241.6633" x2="241.6633" y1="238.5156" y2="258.5156"/><polygon fill="#000000" points="237.6633,248.5156,241.6633,258.5156,245.6633,248.5156,241.6633,252.5156" style="stroke:#000000;stroke-width:1;stroke-linejoin:miter;stroke-miterlimit:10;"/><line style="stroke:#000000;stroke-width:1;" x1="241.6633" x2="241.6633" y1="394.8555" y2="423.3711"/><polygon fill="#000000" points="237.6633,413.3711,241.6633,423.3711,245.6633,413.3711,241.6633,417.3711" style="stroke:#000000;stroke-width:1;stroke-linejoin:miter;stroke-miterlimit:10;"/><line style="stroke:#000000;stroke-width:1;" x1="241.6633" x2="241.6633" y1="336.4844" y2="360.8867"/><polygon fill="#000000" points="237.6633,350.8867,241.6633,360.8867,245.6633,350.8867,241.6633,354.8867" style="stroke:#000000;stroke-width:1;stroke-linejoin:miter;stroke-miterlimit:10;"/><line style="stroke:#000000;stroke-width:1;" x1="293.0496" x2="318.3499" y1="324.4844" y2="324.4844"/><polygon fill="#000000" points="314.3499,393.3711,318.3499,403.3711,322.3499,393.3711,318.3499,397.3711" style="stroke:#000000;stroke-width:1;stroke-linejoin:miter;stroke-miterlimit:10;"/><line style="stroke:#000000;stroke-width:1;" x1="318.3499" x2="318.3499" y1="324.4844" y2="467.3711"/><line style="stroke:#000000;stroke-width:1;" x1="318.3499" x2="241.6633" y1="467.3711" y2="467.3711"/><line style="stroke:#000000;stroke-width:1;" x1="241.6633" x2="241.6633" y1="467.3711" y2="487.3711"/><polygon fill="#000000" points="237.6633,477.3711,241.6633,487.3711,245.6633,477.3711,241.6633,481.3711" style="stroke:#000000;stroke-width:1;stroke-linejoin:miter;stroke-miterlimit:10;"/><line style="stroke:#000000;stroke-width:1;" x1="241.6633" x2="241.6633" y1="292.4844" y2="312.4844"/><polygon fill="#000000" points="237.6633,302.4844,241.6633,312.4844,245.6633,302.4844,241.6633,306.4844" style="stroke:#000000;stroke-width:1;stroke-linejoin:miter;stroke-miterlimit:10;"/><line style="stroke:#000000;stroke-width:1;" x1="241.6633" x2="241.6633" y1="623.7109" y2="652.2266"/><polygon fill="#000000" points="237.6633,642.2266,241.6633,652.2266,245.6633,642.2266,241.6633,646.2266" style="stroke:#000000;stroke-width:1;stroke-linejoin:miter;stroke-miterlimit:10;"/><line style="stroke:#000000;stroke-width:1;" x1="241.6633" x2="241.6633" y1="565.3398" y2="589.7422"/><polygon fill="#000000" points="237.6633,579.7422,241.6633,589.7422,245.6633,579.7422,241.6633,583.7422" style="stroke:#000000;stroke-width:1;stroke-linejoin:miter;stroke-miterlimit:10;"/><line style="stroke:#000000;stroke-width:1;" x1="293.0496" x2="318.3499" y1="553.3398" y2="553.3398"/><polygon fill="#000000" points="314.3499,622.2266,318.3499,632.2266,322.3499,622.2266,318.3499,626.2266" style="stroke:#000000;stroke-width:1;stroke-linejoin:miter;stroke-miterlimit:10;"/><line style="stroke:#000000;stroke-width:1;" x1="318.3499" x2="318.3499" y1="553.3398" y2="696.2266"/><line style="stroke:#000000;stroke-width:1;" x1="318.3499" x2="241.6633" y1="696.2266" y2="696.2266"/><line style="stroke:#000000;stroke-width:1;" x1="241.6633" x2="241.6633" y1="696.2266" y2="716.2266"/><polygon fill="#000000" points="237.6633,706.2266,241.6633,716.2266,245.6633,706.2266,241.6633,710.2266" style="stroke:#000000;stroke-width:1;stroke-linejoin:miter;stroke-miterlimit:10;"/><line style="stroke:#000000;stroke-width:1;" x1="241.6633" x2="241.6633" y1="521.3398" y2="541.3398"/><polygon fill="#000000" points="237.6633,531.3398,241.6633,541.3398,245.6633,531.3398,241.6633,535.3398" style="stroke:#000000;stroke-width:1;stroke-linejoin:miter;stroke-miterlimit:10;"/><line style="stroke:#000000;stroke-width:1;" x1="241.6633" x2="241.6633" y1="750.1953" y2="770.1953"/><polygon fill="#000000" points="237.6633,760.1953,241.6633,770.1953,245.6633,760.1953,241.6633,764.1953" style="stroke:#000000;stroke-width:1;stroke-linejoin:miter;stroke-miterlimit:10;"/><line style="stroke:#000000;stroke-width:1;" x1="241.6633" x2="241.6633" y1="862.1328" y2="886.5352"/><polygon fill="#000000" points="237.6633,876.5352,241.6633,886.5352,245.6633,876.5352,241.6633,880.5352" style="stroke:#000000;stroke-width:1;stroke-linejoin:miter;stroke-miterlimit:10;"/><line style="stroke:#000000;stroke-width:1;" x1="367.5198" x2="379.5198" y1="850.1328" y2="850.1328"/><polygon fill="#000000" points="375.5198,893.5195,379.5198,903.5195,383.5198,893.5195,379.5198,897.5195" style="stroke:#000000;stroke-width:1;stroke-linejoin:miter;stroke-miterlimit:10;"/><line style="stroke:#000000;stroke-width:1;" x1="379.5198" x2="379.5198" y1="850.1328" y2="952.5039"/><line style="stroke:#000000;stroke-width:1;" x1="379.5198" x2="253.6633" y1="952.5039" y2="952.5039"/><polygon fill="#000000" points="263.6633,948.5039,253.6633,952.5039,263.6633,956.5039,259.6633,952.5039" style="stroke:#000000;stroke-width:1;stroke-linejoin:miter;stroke-miterlimit:10;"/><line style="stroke:#000000;stroke-width:1;" x1="241.6633" x2="241.6633" y1="920.5039" y2="940.5039"/><polygon fill="#000000" points="237.6633,930.5039,241.6633,940.5039,245.6633,930.5039,241.6633,934.5039" style="stroke:#000000;stroke-width:1;stroke-linejoin:miter;stroke-miterlimit:10;"/><line style="stroke:#000000;stroke-width:1;" x1="241.6633" x2="241.6633" y1="818.1328" y2="838.1328"/><polygon fill="#000000" points="237.6633,828.1328,241.6633,838.1328,245.6633,828.1328,241.6633,832.1328" style="stroke:#000000;stroke-width:1;stroke-linejoin:miter;stroke-miterlimit:10;"/><line style="stroke:#000000;stroke-width:1;" x1="241.6633" x2="241.6633" y1="1008.5039" y2="1032.9063"/><polygon fill="#000000" points="237.6633,1022.9063,241.6633,1032.9063,245.6633,1022.9063,241.6633,1026.9063" style="stroke:#000000;stroke-width:1;stroke-linejoin:miter;stroke-miterlimit:10;"/><line style="stroke:#000000;stroke-width:1;" x1="377.3677" x2="389.3677" y1="996.5039" y2="996.5039"/><polygon fill="#000000" points="385.3677,1039.8906,389.3677,1049.8906,393.3677,1039.8906,389.3677,1043.8906" style="stroke:#000000;stroke-width:1;stroke-linejoin:miter;stroke-miterlimit:10;"/><line style="stroke:#000000;stroke-width:1;" x1="389.3677" x2="389.3677" y1="996.5039" y2="1098.875"/><line style="stroke:#000000;stroke-width:1;" x1="389.3677" x2="253.6633" y1="1098.875" y2="1098.875"/><polygon fill="#000000" points="263.6633,1094.875,253.6633,1098.875,263.6633,1102.875,259.6633,1098.875" style="stroke:#000000;stroke-width:1;stroke-linejoin:miter;stroke-miterlimit:10;"/><line style="stroke:#000000;stroke-width:1;" x1="241.6633" x2="241.6633" y1="1066.875" y2="1086.875"/><polygon fill="#000000" points="237.6633,1076.875,241.6633,1086.875,245.6633,1076.875,241.6633,1080.875" style="stroke:#000000;stroke-width:1;stroke-linejoin:miter;stroke-miterlimit:10;"/><line style="stroke:#000000;stroke-width:1;" x1="241.6633" x2="241.6633" y1="964.5039" y2="984.5039"/><polygon fill="#000000" points="237.6633,974.5039,241.6633,984.5039,245.6633,974.5039,241.6633,978.5039" style="stroke:#000000;stroke-width:1;stroke-linejoin:miter;stroke-miterlimit:10;"/><line style="stroke:#000000;stroke-width:1;" x1="241.6633" x2="241.6633" y1="1154.875" y2="1179.2773"/><polygon fill="#000000" points="237.6633,1169.2773,241.6633,1179.2773,245.6633,1169.2773,241.6633,1173.2773" style="stroke:#000000;stroke-width:1;stroke-linejoin:miter;stroke-miterlimit:10;"/><line style="stroke:#000000;stroke-width:1;" x1="371.1667" x2="426.7014" y1="1142.875" y2="1142.875"/><polygon fill="#000000" points="422.7014,1186.2617,426.7014,1196.2617,430.7014,1186.2617,426.7014,1190.2617" style="stroke:#000000;stroke-width:1;stroke-linejoin:miter;stroke-miterlimit:10;"/><line style="stroke:#000000;stroke-width:1;" x1="426.7014" x2="426.7014" y1="1142.875" y2="1245.2461"/><line style="stroke:#000000;stroke-width:1;" x1="426.7014" x2="253.6633" y1="1245.2461" y2="1245.2461"/><polygon fill="#000000" points="263.6633,1241.2461,253.6633,1245.2461,263.6633,1249.2461,259.6633,1245.2461" style="stroke:#000000;stroke-width:1;stroke-linejoin:miter;stroke-miterlimit:10;"/><line style="stroke:#000000;stroke-width:1;" x1="241.6633" x2="241.6633" y1="1213.2461" y2="1233.2461"/><polygon fill="#000000" points="237.6633,1223.2461,241.6633,1233.2461,245.6633,1223.2461,241.6633,1227.2461" style="stroke:#000000;stroke-width:1;stroke-linejoin:miter;stroke-miterlimit:10;"/><line style="stroke:#000000;stroke-width:1;" x1="241.6633" x2="241.6633" y1="1110.875" y2="1130.875"/><polygon fill="#000000" points="237.6633,1120.875,241.6633,1130.875,245.6633,1120.875,241.6633,1124.875" style="stroke:#000000;stroke-width:1;stroke-linejoin:miter;stroke-miterlimit:10;"/><line style="stroke:#000000;stroke-width:1;" x1="241.6633" x2="241.6633" y1="1301.2461" y2="1325.6484"/><polygon fill="#000000" points="237.6633,1315.6484,241.6633,1325.6484,245.6633,1315.6484,241.6633,1319.6484" style="stroke:#000000;stroke-width:1;stroke-linejoin:miter;stroke-miterlimit:10;"/><line style="stroke:#000000;stroke-width:1;" x1="359.2268" x2="382.302" y1="1289.2461" y2="1289.2461"/><polygon fill="#000000" points="378.302,1332.6328,382.302,1342.6328,386.302,1332.6328,382.302,1336.6328" style="stroke:#000000;stroke-width:1;stroke-linejoin:miter;stroke-miterlimit:10;"/><line style="stroke:#000000;stroke-width:1;" x1="382.302" x2="382.302" y1="1289.2461" y2="1391.6172"/><line style="stroke:#000000;stroke-width:1;" x1="382.302" x2="253.6633" y1="1391.6172" y2="1391.6172"/><polygon fill="#000000" points="263.6633,1387.6172,253.6633,1391.6172,263.6633,1395.6172,259.6633,1391.6172" style="stroke:#000000;stroke-width:1;stroke-linejoin:miter;stroke-miterlimit:10;"/><line style="stroke:#000000;stroke-width:1;" x1="241.6633" x2="241.6633" y1="1359.6172" y2="1379.6172"/><polygon fill="#000000" points="237.6633,1369.6172,241.6633,1379.6172,245.6633,1369.6172,241.6633,1373.6172" style="stroke:#000000;stroke-width:1;stroke-linejoin:miter;stroke-miterlimit:10;"/><line style="stroke:#000000;stroke-width:1;" x1="241.6633" x2="241.6633" y1="1257.2461" y2="1277.2461"/><polygon fill="#000000" points="237.6633,1267.2461,241.6633,1277.2461,245.6633,1267.2461,241.6633,1271.2461" style="stroke:#000000;stroke-width:1;stroke-linejoin:miter;stroke-miterlimit:10;"/><line style="stroke:#000000;stroke-width:1;" x1="241.6633" x2="241.6633" y1="1403.6172" y2="1423.6172"/><polygon fill="#000000" points="237.6633,1413.6172,241.6633,1423.6172,245.6633,1413.6172,241.6633,1417.6172" style="stroke:#000000;stroke-width:1;stroke-linejoin:miter;stroke-miterlimit:10;"/><line style="stroke:#000000;stroke-width:1;" x1="241.6633" x2="241.6633" y1="1501.5859" y2="1525.9883"/><polygon fill="#000000" points="237.6633,1515.9883,241.6633,1525.9883,245.6633,1515.9883,241.6633,1519.9883" style="stroke:#000000;stroke-width:1;stroke-linejoin:miter;stroke-miterlimit:10;"/><line style="stroke:#000000;stroke-width:1;" x1="332.3337" x2="344.3337" y1="1489.5859" y2="1489.5859"/><polygon fill="#000000" points="340.3337,1532.9727,344.3337,1542.9727,348.3337,1532.9727,344.3337,1536.9727" style="stroke:#000000;stroke-width:1;stroke-linejoin:miter;stroke-miterlimit:10;"/><line style="stroke:#000000;stroke-width:1;" x1="344.3337" x2="344.3337" y1="1489.5859" y2="1591.957"/><line style="stroke:#000000;stroke-width:1;" x1="344.3337" x2="253.6633" y1="1591.957" y2="1591.957"/><polygon fill="#000000" points="263.6633,1587.957,253.6633,1591.957,263.6633,1595.957,259.6633,1591.957" style="stroke:#000000;stroke-width:1;stroke-linejoin:miter;stroke-miterlimit:10;"/><line style="stroke:#000000;stroke-width:1;" x1="241.6633" x2="241.6633" y1="1559.957" y2="1579.957"/><polygon fill="#000000" points="237.6633,1569.957,241.6633,1579.957,245.6633,1569.957,241.6633,1573.957" style="stroke:#000000;stroke-width:1;stroke-linejoin:miter;stroke-miterlimit:10;"/><line style="stroke:#000000;stroke-width:1;" x1="241.6633" x2="241.6633" y1="1457.5859" y2="1477.5859"/><polygon fill="#000000" points="237.6633,1467.5859,241.6633,1477.5859,245.6633,1467.5859,241.6633,1471.5859" style="stroke:#000000;stroke-width:1;stroke-linejoin:miter;stroke-miterlimit:10;"/><line style="stroke:#000000;stroke-width:1;" x1="241.6633" x2="241.6633" y1="1647.957" y2="1672.3594"/><polygon fill="#000000" points="237.6633,1662.3594,241.6633,1672.3594,245.6633,1662.3594,241.6633,1666.3594" style="stroke:#000000;stroke-width:1;stroke-linejoin:miter;stroke-miterlimit:10;"/><line style="stroke:#000000;stroke-width:1;" x1="375.3401" x2="387.3401" y1="1635.957" y2="1635.957"/><polygon fill="#000000" points="383.3401,1679.3438,387.3401,1689.3438,391.3401,1679.3438,387.3401,1683.3438" style="stroke:#000000;stroke-width:1;stroke-linejoin:miter;stroke-miterlimit:10;"/><line style="stroke:#000000;stroke-width:1;" x1="387.3401" x2="387.3401" y1="1635.957" y2="1738.3281"/><line style="stroke:#000000;stroke-width:1;" x1="387.3401" x2="253.6633" y1="1738.3281" y2="1738.3281"/><polygon fill="#000000" points="263.6633,1734.3281,253.6633,1738.3281,263.6633,1742.3281,259.6633,1738.3281" style="stroke:#000000;stroke-width:1;stroke-linejoin:miter;stroke-miterlimit:10;"/><line style="stroke:#000000;stroke-width:1;" x1="241.6633" x2="241.6633" y1="1706.3281" y2="1726.3281"/><polygon fill="#000000" points="237.6633,1716.3281,241.6633,1726.3281,245.6633,1716.3281,241.6633,1720.3281" style="stroke:#000000;stroke-width:1;stroke-linejoin:miter;stroke-miterlimit:10;"/><line style="stroke:#000000;stroke-width:1;" x1="241.6633" x2="241.6633" y1="1603.957" y2="1623.957"/><polygon fill="#000000" points="237.6633,1613.957,241.6633,1623.957,245.6633,1613.957,241.6633,1617.957" style="stroke:#000000;stroke-width:1;stroke-linejoin:miter;stroke-miterlimit:10;"/><line style="stroke:#000000;stroke-width:1;" x1="241.6633" x2="241.6633" y1="1750.3281" y2="1770.3281"/><polygon fill="#000000" points="237.6633,1760.3281,241.6633,1770.3281,245.6633,1760.3281,241.6633,1764.3281" style="stroke:#000000;stroke-width:1;stroke-linejoin:miter;stroke-miterlimit:10;"/><line style="stroke:#000000;stroke-width:1;" x1="91.9807" x2="81.9807" y1="1837.1016" y2="1837.1016"/><line style="stroke:#000000;stroke-width:1;" x1="81.9807" x2="81.9807" y1="1837.1016" y2="1859.9063"/><polygon fill="#000000" points="77.9807,1849.9063,81.9807,1859.9063,85.9807,1849.9063,81.9807,1853.9063" style="stroke:#000000;stroke-width:1;stroke-linejoin:miter;stroke-miterlimit:10;"/><line style="stroke:#000000;stroke-width:1;" x1="391.3459" x2="401.3459" y1="1837.1016" y2="1837.1016"/><line style="stroke:#000000;stroke-width:1;" x1="401.3459" x2="401.3459" y1="1837.1016" y2="1859.9063"/><polygon fill="#000000" points="397.3459,1849.9063,401.3459,1859.9063,405.3459,1849.9063,401.3459,1853.9063" style="stroke:#000000;stroke-width:1;stroke-linejoin:miter;stroke-miterlimit:10;"/><line style="stroke:#000000;stroke-width:1;" x1="81.9807" x2="81.9807" y1="1893.875" y2="1911.875"/><line style="stroke:#000000;stroke-width:1;" x1="81.9807" x2="229.6633" y1="1911.875" y2="1911.875"/><polygon fill="#000000" points="219.6633,1907.875,229.6633,1911.875,219.6633,1915.875,223.6633,1911.875" style="stroke:#000000;stroke-width:1;stroke-linejoin:miter;stroke-miterlimit:10;"/><line style="stroke:#000000;stroke-width:1;" x1="401.3459" x2="401.3459" y1="1893.875" y2="1911.875"/><line style="stroke:#000000;stroke-width:1;" x1="401.3459" x2="253.6633" y1="1911.875" y2="1911.875"/><polygon fill="#000000" points="263.6633,1907.875,253.6633,1911.875,263.6633,1915.875,259.6633,1911.875" style="stroke:#000000;stroke-width:1;stroke-linejoin:miter;stroke-miterlimit:10;"/><line style="stroke:#000000;stroke-width:1;" x1="241.6633" x2="241.6633" y1="1804.2969" y2="1824.2969"/><polygon fill="#000000" points="237.6633,1814.2969,241.6633,1824.2969,245.6633,1814.2969,241.6633,1818.2969" style="stroke:#000000;stroke-width:1;stroke-linejoin:miter;stroke-miterlimit:10;"/><line style="stroke:#000000;stroke-width:1;" x1="241.6633" x2="241.6633" y1="1923.875" y2="1965.707"/><polygon fill="#000000" points="237.6633,1955.707,241.6633,1965.707,245.6633,1955.707,241.6633,1959.707" style="stroke:#000000;stroke-width:1;stroke-linejoin:miter;stroke-miterlimit:10;"/><?plantuml-src hLNBSkCs4BppAoOtRsLfLUKe7rAqLqvKSHp7ykQKomWSKYY100CCzTXJFY9Vc2z9Wp8LRycvvIG86antp_IClj6DT4AzO-kBjBM-vyWTfGtNOMzzImsx96z-gQNXmUbzyFh8U5b5owuerAeJKabQxaFSDYxiwUy__w9dcxPbjUSez9j4srZ3QeCdzZMz89f-7TXPFT8Fh58KIJbgCNyMhYdA7uEDOEULPhHorWYnCT8hUnnDj8gCZD_CXdqhDQrbmpiRuaqnlnsigwawXvSQoX7lPzPe3uXOYHEZr849QuX7Yg1AjGLU0iDqKo16mTO0GO-zuCFPaKioA1e3LimMSRQXgyz9ci6XMjODKRx_GAYhfwkZf0y5qVpESKgs0KW8IeQ793UuJnhwGdnj6u3T1uFhcWPlCuW9NH_yINprj1nh-_-1tOO1kg7wM_BIGkLEofvrSnOrhrAIg1F8J68C4QIyHZPQD25sh7YTD0v64P7Fg8f7mHBEXfsJyK4QEbxRt6IKDDE_Wp8d1uAb1gNKCxg9tCWKO3ZhTuosUhtGzHH33qf75AGPldmvKttLb5Cl3l24PvVpTR2fBRjG3t3cUjAhOS2x-YBvqgkqyMJEsLddUnWmfoFq9HxxSF83eXlRveEpkM5zW5bFXhh06Lz_Vdv0T1_38OjvULYDISBMPfDjO7vK3ZSCzFSO_6ZRJJdQrOKM_eJOlV2sp1QXDAJU6iYuW7xXs8h2OTsWaz1nOb5vyUtK_3FKl6eQZ8ZaKMoZf3mMKminV1XbH-iOzl19kRF9hb7dFFWNmBUd8C0jlbjyfUGn-1gKOcUzJTrf1A46PSrtghcQ_sNpPGfkaj4utXunlDpwaEo_rPelTkm6h9RBPVEgPB4JkE9ohmJ_ySrkEA-5tttUNEyF1INGIOrznrrFrMe5KbYbTEN3U7LVBRC9dghdbsMLJxSFlzpzjFWqSH_7jV01t2FwhSLT05LkXMoQbERb5BmxNXUFisfQc8auKp9HybFX5FnrSV_A60jMXpIJGzQRQnUC6IBQdvUhmxx9sG5AcV5rCRhrF3lJVeM1K4oibPn-d3LOkSOQGCBIsQsy6Oy4xAnqh0Se8KrEJNkhcu3nPzgD_mjmcKp3EwwiJ6HiwyStV52Q_4t-0G00?></g></svg>